<svg width="30" height="30" viewBox="0 0 30 30" fill="none" xmlns="http://www.w3.org/2000/svg">
<path d="M26.959 14.1328C27.1963 14.1006 27.293 13.8603 27.4102 13.6758C27.5947 13.3828 27.7793 13.0928 27.9639 12.7998C28.292 12.2812 28.6201 11.7656 28.9482 11.2471C28.9863 11.1855 29.001 11.124 28.9922 11.0684C28.9922 11.0684 28.9922 11.0684 28.9922 11.0654C28.9863 11.0068 28.96 10.9453 28.9014 10.8926C28.1719 10.2158 27.4424 9.53906 26.7129 8.8623C26.6162 8.77441 26.5225 8.66015 26.3789 8.66308C26.3525 8.66308 26.3232 8.67187 26.2969 8.6748C26.1387 8.69531 25.9805 8.71581 25.8223 8.73632C25.1572 8.82421 24.4893 8.90917 23.8242 8.99706C22.8018 9.1289 21.7764 9.26367 20.7539 9.3955C19.5088 9.55663 18.2666 9.71777 17.0215 9.88183C15.6797 10.0576 14.3379 10.2305 12.9932 10.4062C11.6895 10.5762 10.3828 10.7461 9.0791 10.916C7.94824 11.0625 6.81738 11.2119 5.68652 11.3584C4.84863 11.4668 4.01367 11.5752 3.17578 11.6865C2.77734 11.7393 2.37598 11.7891 1.97754 11.8418C1.95996 11.8447 1.94238 11.8477 1.9248 11.8477C1.7666 11.8682 1.63184 11.9648 1.63184 12.1406C1.62891 12.8789 1.62012 13.6172 1.62012 14.3555C1.62012 14.4639 1.61426 14.5723 1.61426 14.6777H1.30664C1.14844 14.6777 1.02539 14.8096 1.02539 14.9707V19.8867C1.02539 20.0449 1.14844 20.1855 1.30664 20.1855H9.68848C9.63867 20.0918 9.59473 19.9951 9.55664 19.8926C9.52734 19.8076 9.50391 19.7197 9.4834 19.6289C9.48047 19.6201 9.47754 19.6084 9.47754 19.5996C9.43652 19.3828 9.43066 19.1572 9.43066 18.9346C9.43066 18.7793 9.43359 18.6211 9.43359 18.4687V18.3457C9.32226 18.3457 9.21387 18.3428 9.10254 18.3428C8.49902 18.331 8.03027 17.8125 8.13281 17.206C8.19433 16.8281 8.49902 16.5117 8.87109 16.4297C8.97656 16.4062 9.08496 16.4062 9.19336 16.4062H9.43652V15.8643C9.43652 15.8496 9.43652 15.832 9.43652 15.8174C9.43652 15.7705 9.43945 15.7236 9.43945 15.6768C9.43945 15.6738 9.43945 15.6709 9.43945 15.665C9.43945 15.6592 9.43945 15.6504 9.43945 15.6445C9.43945 15.6387 9.43945 15.6357 9.43945 15.6299C9.43945 15.624 9.43945 15.6211 9.43945 15.6152C9.43945 15.6123 9.43945 15.6064 9.43945 15.6035V15.6006C9.43945 15.5977 9.43945 15.5947 9.43945 15.5918V15.5889V15.5859C9.43945 15.583 9.43945 15.583 9.43945 15.5801C9.43945 15.5801 9.43945 15.5771 9.43945 15.5742C9.43945 15.5713 9.43945 15.5684 9.43945 15.5654C9.43945 15.5625 9.43945 15.5654 9.44238 15.5625C9.44238 15.5625 9.44531 15.5625 9.44531 15.5596C9.44531 15.5566 9.44238 15.5566 9.44238 15.5566V15.5478C9.44238 15.5449 9.44238 15.542 9.44238 15.542C9.44238 15.5361 9.44238 15.5303 9.44238 15.5244V15.5098C9.44238 15.5068 9.44824 15.5039 9.44824 15.498C9.44824 15.498 9.44824 15.4951 9.45117 15.4951C9.4541 15.4951 9.4541 15.4922 9.4541 15.4922C9.4541 15.4863 9.45703 15.4805 9.45703 15.4746C9.45996 15.457 9.46289 15.4424 9.46582 15.4248C9.46875 15.4102 9.46875 15.3984 9.47168 15.3838C9.47461 15.3662 9.47754 15.3486 9.48047 15.331C9.48047 15.3252 9.4834 15.3223 9.4834 15.3164C9.4834 15.3105 9.48633 15.3047 9.48633 15.3018C9.48926 15.293 9.48926 15.2812 9.49219 15.2725C9.49512 15.2607 9.49804 15.2461 9.50097 15.2344C9.5039 15.2227 9.50683 15.208 9.50976 15.1963C9.51269 15.1875 9.51562 15.1787 9.51855 15.167C9.5332 15.1172 9.54785 15.0644 9.56543 15.0146V15.0117C9.56836 15.0029 9.57129 14.9941 9.57422 14.9853C9.57422 14.9824 9.57715 14.9795 9.57715 14.9766C9.60058 14.915 9.62109 14.8535 9.64746 14.7949C9.65332 14.7803 9.65918 14.7685 9.66797 14.7539C9.67969 14.7305 9.69433 14.707 9.70898 14.6836C9.70898 14.6777 9.71484 14.6719 9.7207 14.666C9.73242 14.6455 9.74414 14.625 9.75586 14.6045C9.76465 14.5928 9.77051 14.5781 9.77929 14.5664C9.78808 14.5547 9.79394 14.543 9.80273 14.5283C9.7998 14.5312 9.79687 14.5312 9.79394 14.5342C9.8291 14.4844 9.86426 14.4346 9.90234 14.3877C9.92578 14.3584 9.94922 14.3291 9.97558 14.3027C10.2217 14.0215 10.541 13.8047 10.9131 13.6875C11.0303 13.6494 11.1445 13.6289 11.2617 13.6143C11.2676 13.6143 11.2705 13.6143 11.2764 13.6113C11.3467 13.6025 11.417 13.5967 11.4873 13.5967H11.5371H11.54C11.5811 13.5967 11.6221 13.5996 11.6602 13.5996H16.6084C16.9072 13.5996 17.2061 13.5967 17.5049 13.5967C17.6191 13.5967 17.7305 13.6025 17.8389 13.6201C17.8447 13.6201 17.8477 13.6201 17.8535 13.623C17.9092 13.6318 17.9619 13.6406 18.0146 13.6523C18.0381 13.6582 18.0586 13.6611 18.082 13.667C18.0937 13.6699 18.1084 13.6728 18.1201 13.6787C18.1289 13.6816 18.1377 13.6846 18.1465 13.6875C18.1494 13.6875 18.1523 13.6904 18.1553 13.6904C18.1641 13.6934 18.1728 13.6963 18.1816 13.6992C18.1934 13.7021 18.2051 13.708 18.2168 13.7109C18.2285 13.7139 18.2402 13.7197 18.252 13.7227C18.2637 13.7256 18.2754 13.7314 18.2871 13.7344C18.2988 13.7402 18.3105 13.7432 18.3223 13.749C18.334 13.7549 18.3457 13.7578 18.3574 13.7637C18.3662 13.7666 18.3779 13.7725 18.3867 13.7754C18.4014 13.7812 18.416 13.7871 18.4277 13.7959C18.4424 13.8047 18.46 13.8105 18.4746 13.8193C18.4834 13.8223 18.4893 13.8281 18.498 13.831C18.5127 13.8398 18.5273 13.8457 18.542 13.8545H18.5449C18.5537 13.8574 18.5596 13.8633 18.5654 13.8662C18.5684 13.8691 18.5713 13.8691 18.5742 13.8721C18.5889 13.8809 18.6006 13.8867 18.6152 13.8955H18.6182C18.6182 13.8955 18.6211 13.8955 18.6211 13.8984C18.6387 13.9072 18.6533 13.9189 18.6709 13.9307C18.6738 13.9336 18.6768 13.9336 18.6797 13.9365C18.7002 13.9482 18.7207 13.9629 18.7383 13.9775C18.7588 13.9922 18.7764 14.0039 18.7939 14.0185C18.7969 14.0215 18.7998 14.0244 18.8027 14.0273C18.8057 14.0273 18.8057 14.0303 18.8086 14.0332C18.8232 14.0449 18.8379 14.0566 18.8525 14.0684C18.873 14.083 18.8906 14.1006 18.9082 14.1152C18.917 14.124 18.9287 14.1328 18.9375 14.1416C18.9463 14.1504 18.958 14.1592 18.9668 14.168C18.9756 14.1768 18.9873 14.1855 18.9961 14.1973C19.0078 14.206 19.0166 14.2178 19.0254 14.2266C19.0605 14.2588 19.0928 14.2939 19.1221 14.332C19.1367 14.3496 19.1514 14.3643 19.1631 14.3818C19.166 14.3848 19.166 14.3848 19.1689 14.3877C19.1719 14.3935 19.1777 14.3965 19.1807 14.4023C19.1895 14.4111 19.1953 14.4199 19.2041 14.4316C19.207 14.4346 19.21 14.4375 19.2129 14.4434C19.2217 14.4551 19.2305 14.4668 19.2393 14.4785C19.2451 14.4873 19.251 14.4961 19.2568 14.5019C19.2627 14.5107 19.2686 14.5195 19.2744 14.5283C19.2803 14.5342 19.2832 14.54 19.2891 14.5488C19.292 14.5547 19.2949 14.5605 19.2978 14.5635C19.3271 14.6074 19.3506 14.6514 19.377 14.6953C19.4268 14.7891 19.4707 14.8887 19.5059 14.9883C19.5381 15.085 19.5674 15.1816 19.5879 15.2812C19.6143 15.416 19.6318 15.5566 19.6318 15.6973C19.6318 15.7793 19.6348 15.8613 19.6348 15.9463V18.835V18.8584V18.8877V18.8906C19.6348 19.1367 19.6348 19.3828 19.5762 19.6201C19.5762 19.6377 19.5762 19.6553 19.5732 19.6728C19.5557 19.7549 19.541 19.834 19.5117 19.9102C19.4766 20.0127 19.4326 20.1094 19.3828 20.2002V20.2031H20.2793C20.2793 20.2734 20.2822 20.3437 20.2822 20.417C20.2881 20.5928 20.3437 20.7627 20.4697 20.8887C20.6191 21.0381 20.8154 21.0762 21.0176 21.0762C21.3018 21.0762 21.583 21.0879 21.8701 21.0762C22.2656 21.0586 22.5088 20.7539 22.5088 20.373V20.1855H27.7705C27.9287 20.1855 28.0752 20.0449 28.0752 19.8867V14.9707C28.0752 14.8418 28.0078 14.7568 27.9199 14.7158C27.8818 14.6924 27.835 14.6777 27.7822 14.6777H22.667C23.6807 14.5488 24.6943 14.4199 25.708 14.291C26.124 14.2383 26.543 14.1855 26.959 14.1328ZM21.7383 20.4785H21.2373C21.1406 20.4785 21.0117 20.499 20.918 20.4756C20.8359 20.4551 20.8594 20.3555 20.8594 20.2793V14.5019C20.8594 14.4639 20.8535 14.4258 20.8594 14.3935C20.8652 14.3584 20.8799 14.332 20.9238 14.3232C21.0352 14.2998 21.1787 14.3232 21.293 14.3232H21.7676C21.8145 14.3232 21.8877 14.3174 21.9141 14.3525L21.9111 14.4111V19.1748C21.9111 19.5674 21.9023 19.9687 21.917 20.3643C21.9258 20.4902 21.8496 20.4785 21.7383 20.4785Z" fill="black"/>
<path d="M19.0432 19.0224C19.0432 19.1572 19.0461 19.292 19.0256 19.4238C18.9933 19.6406 18.9084 19.8486 18.7853 20.0303C18.6769 20.1943 18.5334 20.3379 18.3664 20.4463C18.1144 20.6103 17.8303 20.6865 17.5314 20.6894C17.4553 20.6894 17.3762 20.6836 17.3 20.6836H11.7482C11.675 20.6836 11.6047 20.6894 11.5314 20.6894C11.218 20.6865 10.9221 20.5986 10.6613 20.4199C10.5119 20.3174 10.383 20.1826 10.2805 20.0303C10.1545 19.8428 10.0666 19.626 10.0344 19.4033C10.0168 19.2744 10.0197 19.1396 10.0197 19.0107V18.3398H11.3146C11.3146 18.4043 11.3176 18.4658 11.3176 18.5303C11.3322 19.1074 11.7834 19.5586 12.3605 19.5703C12.8088 19.5791 13.2599 19.5703 13.7082 19.5703H15.9494C16.4592 19.5703 17.0861 19.667 17.5021 19.3183C17.7277 19.1308 17.8478 18.8496 17.8625 18.5596H17.8654C17.8654 18.5508 17.8713 18.542 17.8713 18.5332V16.7637C17.8713 16.4941 17.8947 16.2041 17.7922 15.9492C17.6223 15.5332 17.2267 15.2988 16.7844 15.2959C15.5217 15.29 14.259 15.2959 12.9963 15.2959C12.8 15.2959 12.6008 15.2959 12.4045 15.2959C11.9943 15.2959 11.6047 15.498 11.423 15.8789C11.341 16.0488 11.3205 16.2246 11.3146 16.4062H10.0197V16.0693C10.0197 16.0166 10.0226 15.9609 10.0226 15.9082C10.0226 15.8349 10.0256 15.7617 10.0256 15.6914C10.0256 15.3808 10.1135 15.0849 10.2863 14.8271C10.2951 14.8154 10.3039 14.8037 10.3127 14.789C10.3215 14.7773 10.3303 14.7656 10.3391 14.7539C10.3391 14.7539 10.3391 14.751 10.342 14.751C10.342 14.751 10.342 14.751 10.342 14.748C10.3449 14.7422 10.3508 14.7363 10.3537 14.7305C10.3596 14.7246 10.3625 14.7187 10.3683 14.7129C10.4416 14.625 10.5266 14.543 10.6174 14.4756C10.6349 14.4609 10.6525 14.4492 10.6701 14.4375C10.676 14.4316 10.6848 14.4287 10.6906 14.4228C10.8576 14.3144 11.0422 14.2441 11.2385 14.206C11.2473 14.206 11.2531 14.206 11.2619 14.2031C11.3762 14.1826 11.4963 14.1738 11.6135 14.1738H17.1096C17.2267 14.1738 17.3498 14.165 17.4728 14.168H17.5549C17.7307 14.1797 17.9035 14.206 18.0617 14.2646C18.0676 14.2676 18.0734 14.2676 18.0793 14.2705C18.0881 14.2734 18.0969 14.2764 18.1057 14.2822C18.1115 14.2851 18.1174 14.2881 18.1262 14.291C18.384 14.4023 18.6096 14.584 18.7736 14.8183V14.8213C18.9494 15.0879 19.0314 15.375 19.0314 15.6914C19.0314 15.7646 19.0344 15.8349 19.0344 15.9053V15.9141V15.9726V16.0049V16.0166C19.0344 16.0166 19.0344 16.0254 19.0344 16.0283V16.04V16.0547V19.0224H19.0432Z" fill="black"/>
<path d="M12.6561 17.376C12.6561 17.5694 12.5155 17.7363 12.3162 17.7569C12.2694 17.7627 12.2166 17.7539 12.1668 17.7539H9.28401C9.16389 17.7539 9.04085 17.7598 8.93831 17.7217C8.85921 17.6953 8.79475 17.6455 8.74495 17.5547C8.64241 17.3613 8.72151 17.1123 8.92659 17.0215C8.93245 17.0186 8.93831 17.0156 8.94417 17.0127C9.01448 16.9863 9.08479 16.9893 9.15511 16.9893H12.0965C12.1551 16.9893 12.2108 16.9863 12.2694 16.9893C12.492 17.001 12.6561 17.1563 12.6561 17.376Z" fill="black"/>
</svg>
