<svg width="22" height="22" viewBox="0 0 22 22" fill="none" xmlns="http://www.w3.org/2000/svg">
<path d="M12.834 20.1667H9.16732C5.71035 20.1667 3.98187 20.1667 2.90792 19.0927C1.83398 18.0188 1.83398 16.2903 1.83398 12.8333V11C1.83398 7.54302 1.83398 5.81454 2.90792 4.7406C3.98187 3.66666 5.71035 3.66666 9.16732 3.66666H12.834C16.2909 3.66666 18.0195 3.66666 19.0933 4.7406C20.1673 5.81454 20.1673 7.54302 20.1673 11V12.8333C20.1673 16.2903 20.1673 18.0188 19.0933 19.0927C18.4946 19.6915 17.6924 19.9564 16.5006 20.0736" stroke="black" stroke-linecap="round"/>
<path d="M6.41602 3.66666V2.29166" stroke="black" stroke-linecap="round"/>
<path d="M15.584 3.66666V2.29166" stroke="black" stroke-linecap="round"/>
<path d="M19.709 8.25H15.2402H9.85482M1.83398 8.25H5.38607" stroke="black" stroke-linecap="round"/>
<path d="M16.4993 15.5833C16.4993 16.0896 16.089 16.5 15.5827 16.5C15.0764 16.5 14.666 16.0896 14.666 15.5833C14.666 15.077 15.0764 14.6667 15.5827 14.6667C16.089 14.6667 16.4993 15.077 16.4993 15.5833Z" fill="black"/>
<path d="M16.4993 11.9167C16.4993 12.4229 16.089 12.8333 15.5827 12.8333C15.0764 12.8333 14.666 12.4229 14.666 11.9167C14.666 11.4104 15.0764 11 15.5827 11C16.089 11 16.4993 11.4104 16.4993 11.9167Z" fill="black"/>
<path d="M11.9173 15.5833C11.9173 16.0896 11.5069 16.5 11.0007 16.5C10.4944 16.5 10.084 16.0896 10.084 15.5833C10.084 15.077 10.4944 14.6667 11.0007 14.6667C11.5069 14.6667 11.9173 15.077 11.9173 15.5833Z" fill="black"/>
<path d="M11.9173 11.9167C11.9173 12.4229 11.5069 12.8333 11.0007 12.8333C10.4944 12.8333 10.084 12.4229 10.084 11.9167C10.084 11.4104 10.4944 11 11.0007 11C11.5069 11 11.9173 11.4104 11.9173 11.9167Z" fill="black"/>
<path d="M7.33333 15.5833C7.33333 16.0896 6.92292 16.5 6.41667 16.5C5.91041 16.5 5.5 16.0896 5.5 15.5833C5.5 15.077 5.91041 14.6667 6.41667 14.6667C6.92292 14.6667 7.33333 15.077 7.33333 15.5833Z" fill="black"/>
<path d="M7.33333 11.9167C7.33333 12.4229 6.92292 12.8333 6.41667 12.8333C5.91041 12.8333 5.5 12.4229 5.5 11.9167C5.5 11.4104 5.91041 11 6.41667 11C6.92292 11 7.33333 11.4104 7.33333 11.9167Z" fill="black"/>
</svg>
