<svg width="20" height="20" viewBox="0 0 20 20" fill="none" xmlns="http://www.w3.org/2000/svg">
<g clip-path="url(#clip0_93_52)">
<path d="M3.75 14.375H2.5C1.46447 14.375 0.625 15.2145 0.625 16.25V17.5C0.625 18.5355 1.46447 19.375 2.5 19.375H3.75C4.78553 19.375 5.625 18.5355 5.625 17.5V16.25C5.625 15.2145 4.78553 14.375 3.75 14.375Z" fill="#9097A7"/>
<path d="M3.75 0.625H2.5C1.46447 0.625 0.625 1.46447 0.625 2.5V3.75C0.625 4.78553 1.46447 5.625 2.5 5.625H3.75C4.78553 5.625 5.625 4.78553 5.625 3.75V2.5C5.625 1.46447 4.78553 0.625 3.75 0.625Z" fill="#9097A7"/>
<path d="M3.75 7.5H2.5C1.46447 7.5 0.625 8.33947 0.625 9.375V10.625C0.625 11.6605 1.46447 12.5 2.5 12.5H3.75C4.78553 12.5 5.625 11.6605 5.625 10.625V9.375C5.625 8.33947 4.78553 7.5 3.75 7.5Z" fill="#9097A7"/>
<path d="M17.5 14.375H8.75C7.71447 14.375 6.875 15.2145 6.875 16.25V17.5C6.875 18.5355 7.71447 19.375 8.75 19.375H17.5C18.5355 19.375 19.375 18.5355 19.375 17.5V16.25C19.375 15.2145 18.5355 14.375 17.5 14.375Z" fill="#9097A7"/>
<path d="M17.5 7.5H8.75C7.71447 7.5 6.875 8.33947 6.875 9.375V10.625C6.875 11.6605 7.71447 12.5 8.75 12.5H17.5C18.5355 12.5 19.375 11.6605 19.375 10.625V9.375C19.375 8.33947 18.5355 7.5 17.5 7.5Z" fill="#9097A7"/>
<path d="M17.5 0.625H8.75C7.71447 0.625 6.875 1.46447 6.875 2.5V3.75C6.875 4.78553 7.71447 5.625 8.75 5.625H17.5C18.5355 5.625 19.375 4.78553 19.375 3.75V2.5C19.375 1.46447 18.5355 0.625 17.5 0.625Z" fill="#9097A7"/>
</g>
<defs>
<clipPath id="clip0_93_52">
<rect width="20" height="20" fill="white"/>
</clipPath>
</defs>
</svg>
