<svg width="56" height="56" viewBox="0 0 56 56" fill="none" xmlns="http://www.w3.org/2000/svg">
<rect width="56" height="56" rx="2" fill="white"/>
<path opacity="0.2" d="M16.1375 21.325C16.0469 21.4806 15.9995 21.6575 16 21.8375V34.1625C16.001 34.3405 16.0488 34.5152 16.1388 34.6688C16.2288 34.8224 16.3577 34.9496 16.5125 35.0375L27.5125 41.225C27.6608 41.3097 27.8292 41.3529 28 41.35L28.1125 28L16.1375 21.325Z" fill="#2DB324"/>
<path d="M40 34.1625V21.8375C39.999 21.6594 39.9512 21.4848 39.8612 21.3312C39.7712 21.1776 39.6423 21.0504 39.4875 20.9625L28.4875 14.775C28.3393 14.6894 28.1711 14.6443 28 14.6443C27.8289 14.6443 27.6607 14.6894 27.5125 14.775L16.5125 20.9625C16.3577 21.0504 16.2288 21.1776 16.1388 21.3312C16.0488 21.4848 16.001 21.6594 16 21.8375V34.1625C16.001 34.3405 16.0488 34.5151 16.1388 34.6688C16.2288 34.8224 16.3577 34.9496 16.5125 35.0375L27.5125 41.225C27.6607 41.3106 27.8289 41.3556 28 41.3556C28.1711 41.3556 28.3393 41.3106 28.4875 41.225L39.4875 35.0375C39.6423 34.9496 39.7712 34.8224 39.8612 34.6688C39.9512 34.5151 39.999 34.3405 40 34.1625V34.1625Z" stroke="#2DB324" stroke-width="2" stroke-linecap="round" stroke-linejoin="round"/>
<path d="M34.125 31.0625V24.5625L22 17.875" stroke="#2DB324" stroke-width="2" stroke-linecap="round" stroke-linejoin="round"/>
<path d="M39.8627 21.325L28.1127 28L16.1377 21.325" stroke="#2DB324" stroke-width="2" stroke-linecap="round" stroke-linejoin="round"/>
<path d="M28.1125 28L28 41.35" stroke="#2DB324" stroke-width="2" stroke-linecap="round" stroke-linejoin="round"/>
</svg>
