<svg width="20" height="20" viewBox="0 0 20 20" fill="none" xmlns="http://www.w3.org/2000/svg">
<path d="M4.27176 0H11.9184C13.3442 0 14.5038 1.15965 14.5038 2.58543V3.60598H16.1129C17.3273 3.60598 18.3145 4.59309 18.3145 5.80621V17.7984C18.3145 19.0129 17.3273 20 16.1129 20H7.69719C6.48274 20 5.49563 19.0129 5.49563 17.7984V16.394H4.2718C2.84602 16.394 1.68637 15.2344 1.68637 13.8086V2.58543C1.68633 1.15965 2.84598 0 4.27176 0ZM7.69719 18.9728H16.1129C16.7602 18.9728 17.2872 18.4458 17.2872 17.7984V5.80621C17.2872 5.15887 16.7602 4.6332 16.1129 4.6332H11.342V6.95516C11.342 8.29937 10.2492 9.39211 8.905 9.39211H6.52285V17.7984C6.52281 18.4458 7.04981 18.9728 7.69719 18.9728ZM10.3147 5.34895L7.25981 8.36488H8.90496C9.68207 8.36488 10.3147 7.73223 10.3147 6.95512V5.34895ZM2.71356 13.8086C2.71356 14.6673 3.41309 15.3668 4.27176 15.3668H5.49559V8.66445L10.617 3.60598H13.4766V2.58543C13.4766 1.72676 12.7771 1.02723 11.9184 1.02723H4.27176C3.41309 1.02723 2.71356 1.72676 2.71356 2.58543V13.8086Z" fill="black"/>
<path d="M11.3916 10.2602H12.4188V12.3159H14.4746V13.3431H12.4188V15.3989H11.3916V13.3431H9.33582V12.3159H11.3916V10.2602Z" fill="black"/>
</svg>
