<svg width="258" height="23" viewBox="0 0 258 23" fill="none" xmlns="http://www.w3.org/2000/svg">
<g clip-path="url(#clip0_83_997)">
<path opacity="0.07" d="M164.936 0H135.45C133.883 0 132.686 1.19786 132.686 2.76429V19.35C132.686 20.9164 133.976 22.1143 135.45 22.1143H164.936C166.502 22.1143 167.7 20.9164 167.7 19.35V2.76429C167.7 1.19786 166.41 0 164.936 0Z" fill="black"/>
<path d="M164.936 0.921387C165.949 0.921387 166.778 1.75067 166.778 2.76424V19.35C166.778 20.3635 165.949 21.1928 164.936 21.1928H135.45C134.436 21.1928 133.607 20.3635 133.607 19.35V2.76424C133.607 1.75067 134.436 0.921387 135.45 0.921387H164.936Z" fill="white"/>
<path d="M158.762 9.30646H158.485C158.117 10.2279 157.84 10.6886 157.564 12.0707H159.315C159.038 10.6886 159.038 10.0436 158.762 9.30646ZM161.434 14.7429H159.867C159.775 14.7429 159.775 14.7429 159.683 14.6507L159.499 13.8215L159.407 13.6372H157.195C157.103 13.6372 157.011 13.6372 157.011 13.8215L156.735 14.6507C156.735 14.7429 156.642 14.7429 156.642 14.7429H154.707L154.892 14.2822L157.564 8.01646C157.564 7.55575 157.84 7.37146 158.301 7.37146H159.683C159.775 7.37146 159.867 7.37146 159.867 7.55575L161.157 13.545C161.25 13.9136 161.342 14.19 161.342 14.5586C161.434 14.6507 161.434 14.6507 161.434 14.7429ZM149.087 14.4665L149.455 12.8079C149.547 12.8079 149.64 12.9 149.64 12.9C150.285 13.1765 150.93 13.3607 151.575 13.2686C151.759 13.2686 152.035 13.1765 152.22 13.0843C152.68 12.9 152.68 12.4393 152.312 12.0707C152.127 11.8865 151.851 11.7943 151.575 11.61C151.206 11.4257 150.837 11.2415 150.561 10.965C149.455 10.0436 149.824 8.7536 150.469 8.1086C151.022 7.74003 151.298 7.37146 152.035 7.37146C153.141 7.37146 154.339 7.37146 154.892 7.55575H154.984C154.892 8.1086 154.8 8.56932 154.615 9.12217C154.155 8.93789 153.694 8.7536 153.233 8.7536C152.957 8.7536 152.68 8.7536 152.404 8.84575C152.22 8.84575 152.127 8.93789 152.035 9.03003C151.851 9.21432 151.851 9.49075 152.035 9.67503L152.496 10.0436C152.865 10.2279 153.233 10.4122 153.51 10.5965C153.97 10.8729 154.431 11.3336 154.523 11.8865C154.707 12.7157 154.431 13.4529 153.694 14.0057C153.233 14.3743 153.049 14.5586 152.404 14.5586C151.114 14.5586 150.1 14.6507 149.271 14.3743C149.179 14.5586 149.179 14.5586 149.087 14.4665ZM145.862 14.7429C145.954 14.0979 145.954 14.0979 146.046 13.8215C146.507 11.7943 146.967 9.67503 147.336 7.64789C147.428 7.4636 147.428 7.37146 147.612 7.37146H149.271C149.087 8.47717 148.902 9.30646 148.626 10.32C148.35 11.7022 148.073 13.0843 147.705 14.4665C147.705 14.6507 147.612 14.6507 147.428 14.6507M137.292 7.55575C137.292 7.4636 137.477 7.37146 137.569 7.37146H140.702C141.162 7.37146 141.531 7.64789 141.623 8.1086L142.452 12.1629C142.452 12.255 142.452 12.255 142.545 12.3472C142.545 12.255 142.637 12.255 142.637 12.255L144.572 7.55575C144.48 7.4636 144.572 7.37146 144.664 7.37146H146.599C146.599 7.4636 146.599 7.4636 146.507 7.55575L143.65 14.2822C143.558 14.4665 143.558 14.5586 143.466 14.6507C143.374 14.7429 143.19 14.6507 143.005 14.6507H141.623C141.531 14.6507 141.439 14.6507 141.439 14.4665L139.965 8.7536C139.78 8.56932 139.504 8.29289 139.135 8.20075C138.582 7.92432 137.569 7.74003 137.385 7.74003L137.292 7.55575Z" fill="#142688"/>
</g>
<g clip-path="url(#clip1_83_997)">
<path d="M195.067 0V22.1143H188.432C187.234 22.1143 186.497 21.1929 186.774 19.995L190.828 2.11929C191.104 0.921428 192.579 0 193.777 0H195.067ZM206.677 0C205.479 0 204.004 0.921428 203.728 2.11929L199.582 19.995C199.305 21.1929 200.042 22.1143 201.24 22.1143H196.725V0H206.677Z" fill="#005B9A"/>
<path d="M193.777 0C192.579 0 191.105 1.01357 190.828 2.11929L186.774 19.995C186.497 21.1929 187.235 22.1143 188.432 22.1143H180.232C179.495 22.1143 178.85 21.5614 178.85 20.8243V1.47429C178.85 0.737143 179.495 0 180.232 0H193.777Z" fill="#E9292D"/>
<path d="M206.677 0C205.479 0 204.005 1.01357 203.728 2.11929L199.674 19.995C199.397 21.1929 200.135 22.1143 201.332 22.1143H187.972H188.432C187.235 22.1143 186.497 21.1929 186.774 19.995L190.828 2.11929C191.105 0.921428 192.579 0 193.777 0H206.677Z" fill="#0E73B9"/>
<path d="M213.771 1.47429V20.8243C213.771 21.5614 213.219 22.1143 212.389 22.1143H201.24C200.042 22.1143 199.305 21.1007 199.581 19.995L203.728 2.11929C204.004 0.921428 205.479 0 206.676 0H212.389C213.219 0 213.771 0.645 213.771 1.47429Z" fill="#059DA4"/>
<path d="M192.466 12.5728H192.595C192.724 12.5728 192.853 12.5083 192.853 12.4438L193.24 11.8633H194.337L194.143 12.1858H195.433L195.24 12.7663H193.692C193.498 13.0243 193.305 13.1533 193.047 13.1533H192.273L192.466 12.5728ZM192.273 13.4113H195.046L194.853 14.0563H193.756L193.563 14.7013H194.659L194.466 15.3463H193.369L193.111 16.3138C193.047 16.4428 193.111 16.5718 193.369 16.5073H194.272L194.079 17.1523H192.337C192.015 17.1523 191.886 16.9588 192.015 16.5718L192.337 15.3463H191.628L191.821 14.7013H192.531L192.724 14.0563H192.079L192.273 13.4113ZM196.723 11.7988V12.1858C196.723 12.1858 197.239 11.7988 197.755 11.7988H199.561L198.852 14.2498C198.787 14.5078 198.529 14.7013 198.142 14.7013H196.078L195.627 16.4428C195.627 16.5073 195.627 16.5718 195.756 16.5718H196.143L196.014 17.0878H194.982C194.595 17.0878 194.466 16.9588 194.53 16.7653L195.885 11.7988H196.723ZM198.271 12.5083H196.659L196.465 13.1533C196.465 13.1533 196.723 12.9598 197.175 12.9598H198.142L198.271 12.5083ZM197.691 14.0563C197.82 14.0563 197.884 14.0563 197.884 13.9273L198.013 13.6048H196.401L196.272 14.1208L197.691 14.0563ZM196.594 14.8303H197.497V15.2173H197.755C197.884 15.2173 197.949 15.1528 197.949 15.0883L198.013 14.8303H198.787L198.658 15.2818C198.594 15.6043 198.336 15.7333 197.949 15.7978H197.433V16.5073C197.433 16.6363 197.497 16.7008 197.755 16.7008H198.207L198.078 17.2168H196.981C196.659 17.2168 196.53 17.0878 196.53 16.7653L196.594 14.8303ZM200.464 12.5728L200.658 11.7988H201.754L201.69 12.0568C201.69 12.0568 202.206 11.7988 202.657 11.7988H204.012L203.818 12.5728H203.625L202.593 16.1203H202.786L202.593 16.8298H202.399L202.335 17.1523H201.238L201.303 16.8298H199.303L199.497 16.1203H199.69L200.722 12.5728H200.464ZM201.625 12.5728L201.367 13.5403C201.367 13.5403 201.819 13.3468 202.206 13.2823C202.27 12.9598 202.399 12.5728 202.399 12.5728H201.625ZM201.174 13.9918L200.916 15.0238C200.916 15.0238 201.432 14.7658 201.819 14.7658C201.948 14.3788 202.012 14.0563 202.012 14.0563L201.174 13.9918ZM201.367 16.1203L201.561 15.4108H200.787L200.593 16.1203H201.367ZM204.012 11.7988H205.044L205.108 12.1858C205.108 12.2503 205.173 12.3148 205.302 12.3148H205.495L205.302 12.9598H204.592C204.334 12.9598 204.141 12.8953 204.141 12.6373L204.012 11.7988ZM203.689 13.1533H206.979L206.785 13.8628H205.689L205.495 14.5078H206.527L206.334 15.2173H205.173L204.915 15.6043H205.495L205.624 16.3783C205.624 16.4428 205.689 16.5073 205.818 16.5073H206.011L205.818 17.1523H205.173C204.85 17.1523 204.657 17.0878 204.657 16.8298L204.528 16.1203L204.012 16.8943C203.883 17.0878 203.689 17.2168 203.431 17.2168H202.464L202.657 16.5718H202.98C203.109 16.5718 203.173 16.5073 203.302 16.3783L204.076 15.2173H203.109L203.302 14.5078H204.399L204.592 13.8628H203.496L203.689 13.1533ZM185.5 8.50934C185.371 9.15434 185.113 9.60584 184.662 9.92834C184.21 10.2508 183.63 10.4443 182.92 10.4443C182.275 10.4443 181.759 10.2508 181.501 9.92834C181.308 9.67034 181.179 9.41234 181.179 9.02534C181.179 8.89634 181.179 8.70284 181.243 8.50934L182.017 4.89734H183.114L182.404 8.50934V8.76734C182.404 8.96084 182.469 9.08984 182.533 9.21884C182.662 9.41234 182.856 9.47684 183.178 9.47684C183.501 9.47684 183.823 9.41234 184.017 9.21884C184.21 9.02534 184.404 8.83184 184.468 8.50934L185.178 4.89734H186.274L185.5 8.50934ZM186.532 7.09034H187.306L187.242 7.54184L187.371 7.41284C187.629 7.15484 187.951 7.02584 188.338 7.02584C188.661 7.02584 188.919 7.15484 189.048 7.34834C189.177 7.54184 189.241 7.79984 189.177 8.18684L188.725 10.3798H187.887L188.274 8.38034C188.338 8.12234 188.338 7.92884 188.274 7.86434C188.209 7.73534 188.08 7.73534 187.951 7.73534C187.758 7.73534 187.564 7.79984 187.435 7.92884C187.306 8.05784 187.177 8.25134 187.177 8.50934L186.79 10.3798H185.952L186.532 7.09034ZM195.562 7.09034H196.336L196.272 7.54184L196.401 7.41284C196.659 7.15484 196.981 7.02584 197.368 7.02584C197.691 7.02584 197.949 7.15484 198.078 7.34834C198.207 7.54184 198.271 7.79984 198.207 8.18684L197.755 10.3798H196.917L197.304 8.31584C197.368 8.12234 197.304 7.92884 197.239 7.86434C197.175 7.73534 197.046 7.73534 196.917 7.73534C196.723 7.73534 196.53 7.79984 196.401 7.92884C196.272 8.05784 196.143 8.25134 196.143 8.50934L195.756 10.3798H194.917L195.562 7.09034ZM190.209 7.09034H191.112L190.402 10.3153H189.499L190.209 7.09034ZM190.531 5.86484H191.434L191.241 6.63884H190.338L190.531 5.86484ZM191.821 10.0573C191.628 9.86384 191.499 9.54134 191.499 9.15434V8.96084C191.499 8.89634 191.499 8.76734 191.563 8.70284C191.692 8.18684 191.886 7.73534 192.208 7.47734C192.531 7.15484 192.982 7.02584 193.434 7.02584C193.821 7.02584 194.143 7.15484 194.401 7.34834C194.595 7.54184 194.724 7.86434 194.724 8.25134V8.44484C194.724 8.50934 194.724 8.63834 194.659 8.70284C194.53 9.21884 194.337 9.60584 194.014 9.92834C193.692 10.2508 193.24 10.3798 192.789 10.3798C192.466 10.3798 192.144 10.2508 191.821 10.0573ZM193.563 9.41234C193.692 9.21884 193.821 8.96084 193.885 8.63834V8.31584C193.885 8.12234 193.821 7.99334 193.756 7.86434C193.699 7.80129 193.63 7.75132 193.552 7.71791C193.474 7.6845 193.389 7.66844 193.305 7.67084C193.047 7.67084 192.853 7.73534 192.724 7.92884C192.595 8.12234 192.466 8.38034 192.402 8.70284V8.96084C192.402 9.15434 192.466 9.28334 192.531 9.41234C192.66 9.54134 192.789 9.60584 192.982 9.60584C193.24 9.67034 193.369 9.60584 193.563 9.41234ZM199.561 5.09084H201.883C202.335 5.09084 202.657 5.21984 202.915 5.41334C203.173 5.60684 203.238 5.92934 203.238 6.25184V6.50984C203.238 6.57434 203.238 6.70334 203.173 6.76784C203.109 7.21934 202.851 7.67084 202.528 7.92884C202.141 8.25134 201.754 8.38034 201.238 8.38034H199.948L199.561 10.2508H198.465L199.561 5.09084ZM200.077 7.47734H201.109C201.367 7.47734 201.561 7.41284 201.754 7.28384C201.883 7.15484 202.012 6.96134 202.077 6.70334V6.44534C202.077 6.25184 202.012 6.12284 201.883 6.05834C201.754 5.99384 201.561 5.92934 201.238 5.92934H200.4L200.077 7.47734ZM208.075 10.8958C207.753 11.6053 207.43 12.0568 207.237 12.2503C207.043 12.4438 206.656 12.8953 205.753 12.8953L205.818 12.3148C206.592 12.0568 206.979 11.0248 207.237 10.5088L206.979 7.02584H208.075L208.14 9.21884L208.978 7.09034H209.946L208.075 10.8958ZM205.366 7.34834L204.979 7.60634C204.592 7.28384 204.205 7.09034 203.56 7.41284C202.657 7.86434 201.819 11.2183 204.399 10.1218L204.528 10.3153H205.56L206.205 7.28384L205.366 7.34834ZM204.85 9.02534C204.657 9.54134 204.334 9.79934 204.012 9.73484C203.754 9.60584 203.689 9.15434 203.818 8.63834C204.012 8.12234 204.334 7.86434 204.657 7.92884C204.915 8.05784 204.979 8.50934 204.85 9.02534Z" fill="white"/>
</g>
<g clip-path="url(#clip2_83_997)">
<path opacity="0.07" d="M255.236 0H225.75C224.184 0 222.986 1.19786 222.986 2.76429V19.35C222.986 20.9164 224.276 22.1143 225.75 22.1143H255.236C256.802 22.1143 258 20.9164 258 19.35V2.76429C258 1.19786 256.71 0 255.236 0Z" fill="black"/>
<path d="M255.236 0.921387C256.249 0.921387 257.079 1.75067 257.079 2.76424V19.35C257.079 20.3635 256.249 21.1928 255.236 21.1928H225.75C224.737 21.1928 223.907 20.3635 223.907 19.35V2.76424C223.907 1.75067 224.737 0.921387 225.75 0.921387H255.236Z" fill="white"/>
<path fill-rule="evenodd" clip-rule="evenodd" d="M233.582 4.60718H236.807V15.2036C236.807 15.8146 236.565 16.4005 236.133 16.8325C235.701 17.2645 235.115 17.5072 234.504 17.5072H231.279V6.91075C231.279 6.2998 231.522 5.71388 231.954 5.28188C232.386 4.84987 232.971 4.60718 233.582 4.60718Z" fill="#006EBC"/>
<path fill-rule="evenodd" clip-rule="evenodd" d="M240.032 4.60718H243.257V15.2036C243.257 15.8146 243.014 16.4005 242.582 16.8325C242.15 17.2645 241.564 17.5072 240.954 17.5072H237.729V6.91075C237.729 6.2998 237.971 5.71388 238.403 5.28188C238.835 4.84987 239.421 4.60718 240.032 4.60718Z" fill="#F00036"/>
<path fill-rule="evenodd" clip-rule="evenodd" d="M246.482 4.60718H249.707V15.2036C249.707 15.8146 249.465 16.4005 249.033 16.8325C248.601 17.2645 248.015 17.5072 247.404 17.5072H244.179V6.91075C244.179 6.2998 244.421 5.71388 244.853 5.28188C245.285 4.84987 245.871 4.60718 246.482 4.60718Z" fill="#2AB419"/>
<path d="M232.896 13.3607C231.919 13.3607 230.941 13.0806 230.449 12.4513L231.167 11.8284C231.23 12.8724 234.434 12.9709 234.434 11.6533V8.75357H236.094V11.6533C236.094 12.3241 235.565 12.8714 234.645 13.1571C234.216 13.2898 233.387 13.3607 232.896 13.3607ZM240.374 13.3607C239.753 13.3607 239.095 13.2621 238.564 13.0235C237.69 12.6319 237.355 11.9122 237.366 10.9972C237.377 10.0629 237.768 9.35526 238.719 9.00235C239.934 8.55085 241.799 8.76186 242.336 9.25114V10.1468C241.809 9.6667 240.532 9.31932 239.646 9.72291C239.191 9.93115 238.967 10.5679 238.961 11.0571C238.955 11.5731 239.187 12.2108 239.646 12.4365C240.525 12.8668 241.849 12.4734 242.336 12.0302V12.9608C242.006 13.1958 241.182 13.3607 240.374 13.3607ZM248.371 10.977C248.712 10.7604 248.908 10.4545 248.908 10.0509C248.908 9.64735 248.801 9.41792 248.587 9.18572C248.397 8.99498 248.053 8.75357 247.446 8.75357H244.179V13.3607H247.446C248.088 13.3607 248.457 13.1488 248.658 12.9783C248.919 12.748 249.051 12.49 249.051 12.0937C249.051 11.6966 248.908 11.2571 248.371 10.977ZM246.615 10.7181H245.299V9.38751H246.677C247.558 9.38751 247.547 10.7181 246.615 10.7181ZM246.881 12.7056H245.299V11.3115H246.881C247.789 11.3115 247.878 12.7056 246.881 12.7056Z" fill="white"/>
</g>
<g clip-path="url(#clip3_83_997)">
<path opacity="0.07" d="M32.25 0H2.76429C1.19786 0 0 1.19786 0 2.76429V19.35C0 20.9164 1.29 22.1143 2.76429 22.1143H32.25C33.8164 22.1143 35.0143 20.9164 35.0143 19.35V2.76429C35.0143 1.19786 33.7243 0 32.25 0Z" fill="black"/>
<path d="M32.25 0.921387C33.2635 0.921387 34.0928 1.75067 34.0928 2.76424V19.35C34.0928 20.3635 33.2635 21.1928 32.25 21.1928H2.76424C1.75067 21.1928 0.921387 20.3635 0.921387 19.35V2.76424C0.921387 1.75067 1.75067 0.921387 2.76424 0.921387H32.25Z" fill="white"/>
<path d="M3.28942 6.59739H1.84277V11.6652H3.28942C4.0542 11.6652 4.60706 11.481 5.09542 11.0847C5.67592 10.6056 6.01685 9.88689 6.01685 9.14053C6.00763 7.6386 4.8927 6.59739 3.28942 6.59739ZM4.45042 10.4121C4.13713 10.6885 3.74092 10.8175 3.09592 10.8175H2.8287V7.46353H3.09592C3.7317 7.46353 4.1187 7.5741 4.45042 7.86896C4.79134 8.17303 4.99406 8.64296 4.99406 9.13132C4.99406 9.61967 4.79134 10.108 4.45042 10.4121ZM6.46834 6.59739H7.45427V11.6652H6.46834V6.59739ZM9.86842 8.5416C9.2787 8.32046 9.10363 8.17303 9.10363 7.90582C9.10363 7.58332 9.41692 7.34374 9.84077 7.34374C10.1356 7.34374 10.3844 7.46353 10.6332 7.75839L11.1492 7.08575C10.7253 6.71717 10.2186 6.52367 9.65649 6.52367C8.7627 6.52367 8.07163 7.15024 8.07163 7.97953C8.07163 8.67982 8.39413 9.03917 9.31556 9.37089C9.70256 9.5091 9.89606 9.60124 9.99742 9.65653C10.1909 9.78553 10.2923 9.96982 10.2923 10.1817C10.2923 10.5964 9.96977 10.9005 9.52749 10.9005C9.05756 10.9005 8.67977 10.6609 8.44942 10.2278L7.81363 10.8452C8.26513 11.5178 8.81799 11.8127 9.56434 11.8127C10.5871 11.8127 11.3151 11.1308 11.3151 10.1449C11.3335 9.32482 10.9926 8.95625 9.86842 8.5416ZM11.6376 9.14053C11.6376 10.6332 12.8078 11.785 14.3097 11.785C14.7336 11.785 15.1021 11.7021 15.5444 11.4902V10.3292C15.1482 10.7254 14.7981 10.882 14.3558 10.882C13.3606 10.882 12.6511 10.1633 12.6511 9.13132C12.6511 8.1546 13.3791 7.38982 14.3097 7.38982C14.7796 7.38982 15.139 7.55567 15.5444 7.9611V6.8001C15.1113 6.57896 14.752 6.48682 14.3281 6.48682C12.8446 6.48682 11.6376 7.66625 11.6376 9.14053ZM23.395 10.0067L22.0405 6.59739H20.9624L23.1093 11.7942H23.6438L25.8276 6.59739H24.7587L23.395 10.0067ZM26.2791 11.6652H29.0802V10.8083H27.265V9.4446H29.0157V8.58767H27.265V7.46353H29.0802V6.59739H26.2791V11.6652ZM32.9963 8.09932C32.9963 7.15025 32.3421 6.6066 31.1995 6.6066H29.7344V11.6745H30.7203V9.6381H30.8493L32.2131 11.6745H33.4293L31.8353 9.53675C32.5816 9.3801 32.9963 8.87332 32.9963 8.09932ZM31.006 8.93782H30.7203V7.39903H31.0244C31.6418 7.39903 31.9735 7.65703 31.9735 8.1546C31.9735 8.66139 31.6418 8.93782 31.006 8.93782Z" fill="#231F20"/>
<path d="M18.5762 11.8495C19.2925 11.8495 19.9794 11.565 20.4859 11.0585C20.9924 10.552 21.2769 9.8651 21.2769 9.14883C21.2769 8.43255 20.9924 7.74562 20.4859 7.23914C19.9794 6.73266 19.2925 6.44812 18.5762 6.44812C17.8599 6.44812 17.173 6.73266 16.6665 7.23914C16.16 7.74562 15.8755 8.43255 15.8755 9.14883C15.8755 9.8651 16.16 10.552 16.6665 11.0585C17.173 11.565 17.8599 11.8495 18.5762 11.8495Z" fill="url(#paint0_linear_83_997)"/>
<path opacity="0.65" d="M18.5762 11.8495C19.2925 11.8495 19.9794 11.565 20.4859 11.0585C20.9924 10.552 21.2769 9.8651 21.2769 9.14883C21.2769 8.43255 20.9924 7.74562 20.4859 7.23914C19.9794 6.73266 19.2925 6.44812 18.5762 6.44812C17.8599 6.44812 17.173 6.73266 16.6665 7.23914C16.16 7.74562 15.8755 8.43255 15.8755 9.14883C15.8755 9.8651 16.16 10.552 16.6665 11.0585C17.173 11.565 17.8599 11.8495 18.5762 11.8495Z" fill="url(#paint1_linear_83_997)"/>
<path d="M33.6966 6.91629C33.6966 6.82415 33.6321 6.77808 33.5307 6.77808H33.3833V7.22036H33.4939V7.04529L33.6229 7.22036H33.7519L33.6044 7.03608C33.6597 7.02686 33.6966 6.98079 33.6966 6.91629ZM33.5123 6.98079H33.4939V6.861H33.5123C33.5676 6.861 33.5952 6.87943 33.5952 6.91629C33.5952 6.96236 33.5676 6.98079 33.5123 6.98079Z" fill="#231F20"/>
<path d="M33.5491 6.61218C33.3372 6.61218 33.1621 6.78725 33.1621 6.99918C33.1621 7.21111 33.3372 7.38618 33.5491 7.38618C33.761 7.38618 33.9361 7.21111 33.9361 6.99918C33.9361 6.78725 33.761 6.61218 33.5491 6.61218ZM33.5491 7.32168C33.3833 7.32168 33.2358 7.18347 33.2358 6.99918C33.2358 6.82411 33.374 6.67668 33.5491 6.67668C33.715 6.67668 33.8532 6.82411 33.8532 6.99918C33.8532 7.17425 33.715 7.32168 33.5491 7.32168Z" fill="#231F20"/>
<path d="M34.0926 11.9639C34.0926 11.9639 24.9613 18.3116 8.27051 21.1929H32.2488C32.7351 21.1929 33.2016 21.0008 33.5468 20.6584C33.8919 20.3159 34.0878 19.851 34.0917 19.3648L34.1138 16.5821L34.0926 11.9639Z" fill="#F48120"/>
</g>
<g clip-path="url(#clip4_83_997)">
<path opacity="0.07" d="M76.4785 0H46.9928C45.4264 0 44.2285 1.19786 44.2285 2.76429V19.35C44.2285 20.9164 45.5185 22.1143 46.9928 22.1143H76.4785C78.0449 22.1143 79.2428 20.9164 79.2428 19.35V2.76429C79.2428 1.19786 77.9528 0 76.4785 0Z" fill="black"/>
<path d="M76.4785 0.921387C77.492 0.921387 78.3213 1.75067 78.3213 2.76424V19.35C78.3213 20.3635 77.492 21.1928 76.4785 21.1928H46.9928C45.9792 21.1928 45.1499 20.3635 45.1499 19.35V2.76424C45.1499 1.75067 45.9792 0.921387 46.9928 0.921387H76.4785Z" fill="#006FCF"/>
<path d="M52.4945 9.46126L53.2077 11.1899H51.7868L52.4945 9.46126ZM67.3064 9.53313H64.5634V10.2952H67.2622V11.4368H64.5689V12.2864H67.312V12.9673L69.2258 10.8987L67.312 8.74255L67.3064 9.53313ZM54.3484 7.37699H58.0295L58.8468 9.15995L59.6042 7.37146H69.1594L70.1527 8.46796L71.1801 7.37146H75.5689L72.3264 10.9208L75.5357 14.448H71.0815L70.0882 13.3515L69.0516 14.448H53.4703L53.0151 13.3515H51.9739L51.5178 14.448H47.9141L50.9419 7.37146H54.1024L54.3484 7.37699ZM62.3307 8.37029H60.2677L58.8855 11.6285L57.3882 8.37029H55.3408V12.8024L53.4426 8.37029H51.6062L49.4114 13.4492H50.8442L51.2994 12.3527H53.6914L54.1466 13.4492H56.6529V9.82338L58.2663 13.4547H59.3628L60.9661 9.83444V13.4557H62.3095L62.3317 8.36937L62.3307 8.37029ZM70.9369 10.9208L73.269 8.37029H71.5902L70.115 9.96067L68.6886 8.37029H63.2577V13.4547H68.6112L70.0984 11.8533L71.5247 13.4547H73.2524L70.9369 10.9208Z" fill="white"/>
</g>
<g clip-path="url(#clip5_83_997)">
<path opacity="0.07" d="M120.707 0H91.2213C89.6549 0 88.457 1.19786 88.457 2.76429V19.35C88.457 20.9164 89.747 22.1143 91.2213 22.1143H120.707C122.273 22.1143 123.471 20.9164 123.471 19.35V2.76429C123.471 1.19786 122.181 0 120.707 0Z" fill="black"/>
<path d="M120.707 0.921387C121.721 0.921387 122.55 1.75067 122.55 2.76424V19.35C122.55 20.3635 121.721 21.1928 120.707 21.1928H91.2213C90.2077 21.1928 89.3784 20.3635 89.3784 19.35V2.76424C89.3784 1.75067 90.2077 0.921387 91.2213 0.921387H120.707Z" fill="white"/>
<path d="M102.279 17.5072C105.841 17.5072 108.729 14.6194 108.729 11.0572C108.729 7.49494 105.841 4.60718 102.279 4.60718C98.7164 4.60718 95.8286 7.49494 95.8286 11.0572C95.8286 14.6194 98.7164 17.5072 102.279 17.5072Z" fill="#EB001B"/>
<path d="M109.65 17.5072C113.212 17.5072 116.1 14.6194 116.1 11.0572C116.1 7.49494 113.212 4.60718 109.65 4.60718C106.087 4.60718 103.2 7.49494 103.2 11.0572C103.2 14.6194 106.087 17.5072 109.65 17.5072Z" fill="#F79E1B"/>
<path d="M108.728 11.0572C108.728 8.84577 107.623 6.91077 105.964 5.80505C104.305 7.00291 103.2 8.93791 103.2 11.0572C103.2 13.1765 104.305 15.2036 105.964 16.3093C107.623 15.2036 108.728 13.2686 108.728 11.0572Z" fill="#FF5F00"/>
</g>
<defs>
<linearGradient id="paint0_linear_83_997" x1="19.9556" y1="11.3105" x2="18.0897" y2="8.38865" gradientUnits="userSpaceOnUse">
<stop stop-color="#F89F20"/>
<stop offset="0.25" stop-color="#F79A20"/>
<stop offset="0.533" stop-color="#F68D20"/>
<stop offset="0.62" stop-color="#F58720"/>
<stop offset="0.723" stop-color="#F48120"/>
<stop offset="1" stop-color="#F37521"/>
</linearGradient>
<linearGradient id="paint1_linear_83_997" x1="19.6616" y1="11.2709" x2="16.9342" y2="5.93949" gradientUnits="userSpaceOnUse">
<stop stop-color="#F58720"/>
<stop offset="0.359" stop-color="#E16F27"/>
<stop offset="0.703" stop-color="#D4602C"/>
<stop offset="0.982" stop-color="#D05B2E"/>
</linearGradient>
<clipPath id="clip0_83_997">
<rect width="35.0143" height="22.1143" fill="white" transform="translate(132.686)"/>
</clipPath>
<clipPath id="clip1_83_997">
<rect width="35.0143" height="22.1143" fill="white" transform="translate(178.757)"/>
</clipPath>
<clipPath id="clip2_83_997">
<rect width="35.0143" height="22.1143" fill="white" transform="translate(222.986)"/>
</clipPath>
<clipPath id="clip3_83_997">
<rect width="35.0143" height="22.1143" fill="white"/>
</clipPath>
<clipPath id="clip4_83_997">
<rect width="35.0143" height="22.1143" fill="white" transform="translate(44.2285)"/>
</clipPath>
<clipPath id="clip5_83_997">
<rect width="35.0143" height="22.1143" fill="white" transform="translate(88.457)"/>
</clipPath>
</defs>
</svg>
