<svg width="24" height="24" viewBox="0 0 24 24" fill="none" xmlns="http://www.w3.org/2000/svg">
<g clip-path="url(#clip0_789_479)">
<path d="M23.3864 14.6859C23.4246 14.534 23.4316 14.3762 23.4068 14.2217C23.3821 14.0672 23.3263 13.9189 23.2424 13.7855C23.1586 13.6521 23.0485 13.5362 22.9184 13.4445C22.7884 13.3527 22.641 13.287 22.4847 13.251C22.3294 13.2137 22.1681 13.2065 22.01 13.2299C21.8519 13.2533 21.7001 13.3069 21.5633 13.3875C21.4265 13.4681 21.3073 13.5742 21.2126 13.6998C21.1179 13.8253 21.0496 13.9678 21.0116 14.1191L20.4873 16.1847L22.8674 16.7566L23.3864 14.6859Z" fill="black"/>
<path d="M18.8778 22.5268C18.8394 22.678 18.8321 22.8351 18.8561 22.9891C18.8801 23.1431 18.9351 23.291 19.0179 23.4243C19.1007 23.5576 19.2096 23.6736 19.3385 23.7659C19.4674 23.8581 19.6137 23.9246 19.769 23.9617H19.7848C19.94 23.9991 20.1013 24.0063 20.2594 23.9829C20.4175 23.9594 20.5693 23.9059 20.7062 23.8253C20.843 23.7446 20.9622 23.6385 21.0568 23.513C21.1515 23.3874 21.2198 23.2449 21.2579 23.0936L21.7821 21.0281L19.4021 20.4562L18.8778 22.5268Z" fill="black"/>
<path d="M13.9551 7.35062L14.4479 9.21956C14.5232 9.50384 14.7112 9.74739 14.9707 9.89675C15.2302 10.0461 15.5399 10.089 15.8319 10.0162H15.8476C16.1395 9.94282 16.3895 9.75967 16.5428 9.50691C16.6962 9.25416 16.7403 8.95246 16.6654 8.66807L16.1726 6.79913L13.9551 7.35062Z" fill="black"/>
<path d="M12.8756 3.25531L15.0905 2.70127L14.6004 0.832335C14.5251 0.548057 14.337 0.304501 14.0775 0.155146C13.8181 0.00579078 13.5083 -0.0371546 13.2163 0.0357397H13.2006C12.9088 0.109075 12.6587 0.292228 12.5054 0.544983C12.352 0.797738 12.308 1.09943 12.3828 1.38382L12.8756 3.25531Z" fill="black"/>
<path d="M13.5728 16.7898C14.4116 13.4707 13.3657 10.3609 11.2347 9.85024C11.0357 9.8026 10.8315 9.7786 10.6265 9.77875C8.66323 9.77875 6.61867 11.9311 5.85589 14.9387C5.0171 18.2579 6.06297 21.3677 8.19403 21.8783C8.39304 21.926 8.59723 21.95 8.80216 21.9498C10.755 21.9575 12.8022 19.7975 13.5728 16.7898Z" fill="black"/>
<path d="M16.4558 5.84682C16.4558 5.84682 17.4309 5.36426 17.1688 4.37363C16.9276 3.46214 15.8975 3.42639 15.735 3.42639H15.7114L10.0967 4.83065C10.0967 4.83065 10.6891 6.26809 10.7336 7.2766L16.4558 5.84682Z" fill="black"/>
<path d="M8.39314 6.55916C8.65265 7.48732 8.77532 8.44672 8.75749 9.40852C9.20668 9.17093 9.69734 9.01682 10.2044 8.95406C10.1919 8.02573 10.0634 7.10233 9.82171 6.20427C9.44537 4.67407 8.66565 3.26599 7.55959 2.11916C6.9069 1.46044 5.63822 1.27661 4.72603 1.5064L4.15723 1.64938C4.15723 1.64938 7.18213 1.96597 8.39314 6.55916Z" fill="black"/>
<path d="M7.67724 10.1464C7.84563 9.02568 7.77784 7.8833 7.47803 6.78894C6.74147 4.00086 4.82534 2.01447 3.00097 2.01447C2.8012 2.01394 2.60216 2.03796 2.40857 2.08596C0.424296 2.58384 -0.52459 5.49447 0.293235 8.58639C1.0298 11.3745 2.94592 13.3609 4.7703 13.3609C4.97062 13.3572 5.16967 13.3289 5.3627 13.2766L5.499 13.2358C5.97664 12.0592 6.7213 11.003 7.67724 10.1464Z" fill="black"/>
<path d="M16.0731 12.4238C15.811 11.4792 14.697 10.68 13.714 10.4477L13.499 10.3966C13.7988 10.7876 14.0414 11.2172 14.2199 11.6732C14.773 12.7277 15.1976 14.4485 14.5449 17.0349C13.4309 21.4468 11.0036 22.2689 10.5056 22.3941L10.4453 22.4221L10.849 22.5192C11.9394 22.7745 13.4047 22.4681 14.0862 21.5975C15.0411 20.3453 15.7202 18.9146 16.081 17.3949C16.5223 15.7654 16.5196 14.052 16.0731 12.4238Z" fill="black"/>
<path d="M23.077 17.6783L17.0481 16.2307C17.0481 16.2307 16.8541 17.8724 16.3823 18.8604L22.516 20.3336C22.6156 20.3336 23.6929 20.3107 23.9498 19.2945C24.2277 18.2298 23.077 17.6783 23.077 17.6783Z" fill="black"/>
</g>
<defs>
<clipPath id="clip0_789_479">
<rect width="24" height="24" fill="white"/>
</clipPath>
</defs>
</svg>
