<svg width="20" height="20" viewBox="0 0 20 20" fill="none" xmlns="http://www.w3.org/2000/svg">
<path fill-rule="evenodd" clip-rule="evenodd" d="M10 12.4998H14.1667V17.9248C14.1667 18.0332 14.125 18.1373 14.0458 18.2165C13.9667 18.2915 13.8625 18.3373 13.7542 18.3373H6.24167C6.13333 18.3373 6.02917 18.2957 5.95 18.2165C5.875 18.1373 5.82917 18.0332 5.82917 17.9248V12.4998H9.99583H10ZM5 17.0832V12.0832C5 12.0123 5.01667 11.9457 5.04583 11.8873L6.29167 9.39567C6.3625 9.254 6.50833 9.1665 6.6625 9.1665H13.3292C13.4875 9.1665 13.6333 9.254 13.7 9.39567L14.9458 11.8873C14.975 11.9457 14.9917 12.0123 14.9917 12.0832V17.0832H17.9083C18.1375 17.0832 18.325 16.8957 18.325 16.6665V5.83317C18.325 5.604 18.1375 5.4165 17.9083 5.4165H12.0167L12.0667 5.7665C12.0667 5.78734 12.0708 5.81234 12.0708 5.83317V7.9165C12.0708 8.054 12.0042 8.18317 11.8875 8.26234C11.775 8.3415 11.6292 8.354 11.5 8.304L10.6625 7.97067L10.2208 8.2665C10.0792 8.35817 9.9 8.35817 9.75833 8.2665L9.31667 7.97067L8.47917 8.304C8.35 8.354 8.20417 8.3415 8.09167 8.26234C7.975 8.18317 7.90833 8.054 7.90833 7.9165V5.83317C7.90833 5.80817 7.90833 5.78734 7.9125 5.7665L7.9625 5.4165H2.08333C1.85417 5.4165 1.66667 5.604 1.66667 5.83317V16.6665C1.66667 16.8957 1.85417 17.0832 2.08333 17.0832H5ZM6.66667 17.0832H7.91667C8.14583 17.0832 8.33333 16.8957 8.33333 16.6665C8.33333 16.4373 8.14583 16.2498 7.91667 16.2498H6.66667C6.4375 16.2498 6.25 16.4373 6.25 16.6665C6.25 16.8957 6.4375 17.0832 6.66667 17.0832ZM13.75 15.4165C13.75 15.1873 13.5625 14.9998 13.3333 14.9998H11.25C11.0208 14.9998 10.8333 15.1873 10.8333 15.4165V16.6665C10.8333 16.8957 11.0208 17.0832 11.25 17.0832H13.3333C13.5625 17.0832 13.75 16.8957 13.75 16.6665V15.4165ZM12.9167 15.8332V16.2498H11.6667V15.8332H12.9167ZM6.66667 15.8332H7.5C7.72917 15.8332 7.91667 15.6457 7.91667 15.4165C7.91667 15.1873 7.72917 14.9998 7.5 14.9998H6.66667C6.4375 14.9998 6.25 15.1873 6.25 15.4165C6.25 15.6457 6.4375 15.8332 6.66667 15.8332ZM9.58333 9.99984V11.6665H6.09167L6.925 9.99984H9.58333ZM13.075 9.99984L13.9083 11.6665H10.4167V9.99984H13.075ZM10.6292 1.6665H9.36667L8.74583 5.8665V7.29984L9.21667 7.11234C9.34583 7.06234 9.4875 7.07484 9.60417 7.154L10 7.4165L10.3958 7.154C10.5083 7.079 10.6542 7.06234 10.7833 7.11234L11.2542 7.29984V5.8665L10.6333 1.6665H10.6292ZM8.21667 3.74984H2.45L2.03333 4.58734C2.03333 4.58734 2.06667 4.58734 2.08333 4.58734H8.09583L8.22083 3.754L8.21667 3.74984ZM11.775 3.74984L11.9 4.58317H17.9125C17.9125 4.58317 17.9458 4.58317 17.9625 4.58317L17.5458 3.74567H11.775V3.74984ZM11.4667 1.6665L11.65 2.9165H17.125L16.6167 1.89567C16.5458 1.754 16.4 1.6665 16.2458 1.6665H11.4667ZM8.3375 2.9165L8.52083 1.6665H3.74167C3.58333 1.6665 3.4375 1.754 3.37083 1.89567L2.8625 2.9165H8.3375Z" fill="#9097A7"/>
</svg>
