<svg width="20" height="20" viewBox="0 0 20 20" fill="none" xmlns="http://www.w3.org/2000/svg">
<g clip-path="url(#clip0_1222_22)">
<path d="M17.9303 2.16948C17.8894 2.16782 17.8485 2.16755 17.8076 2.1687H16.2654V0.843386C16.2655 0.31326 15.7594 0 15.2293 0H13.8076C13.2775 0 12.892 0.31326 12.892 0.843386V2.16865H7.10883V0.843386C7.10883 0.31326 6.7233 0 6.19317 0H4.77146C4.24138 0 3.73533 0.31326 3.73533 0.843386V2.16865H2.1932C1.20877 2.14121 0.388495 2.91703 0.361052 3.90141C0.359899 3.94227 0.360176 3.98323 0.361836 4.02409V17.9518C0.361836 19.012 1.1329 20 2.19315 20H17.8077C18.8679 20 19.639 19.012 19.639 17.9518V4.02409C19.6793 3.04013 18.9143 2.20979 17.9303 2.16948ZM13.8076 0.963856H15.3016V3.61444H13.8076V0.963856ZM4.77151 0.963856H6.14502V3.61444H4.77151V0.963856ZM18.6751 17.9518C18.6751 18.4819 18.3378 19.0361 17.8077 19.0361H2.1932C1.66307 19.0361 1.32574 18.4819 1.32574 17.9518V7.71085H18.6751V17.9518ZM18.6751 4.02409V6.74699H1.32569V4.02409C1.28487 3.57348 1.61709 3.17508 2.0677 3.13426C2.1094 3.13048 2.15137 3.12993 2.19315 3.13256H3.73533V3.66268C3.73533 4.19281 4.24134 4.57834 4.77146 4.57834H6.19317C6.68539 4.59185 7.09532 4.20374 7.10883 3.71152C7.10929 3.69524 7.10929 3.67896 7.10883 3.66268V3.13251H12.892V3.66264C12.8785 4.15485 13.2666 4.56478 13.7588 4.57829C13.7751 4.57876 13.7914 4.57876 13.8076 4.57829H15.2293C15.7595 4.57829 16.2655 4.19276 16.2655 3.66264V3.13251H17.8077C18.2592 3.10405 18.6484 3.44706 18.6768 3.89864C18.6794 3.94043 18.6789 3.9824 18.6751 4.02409Z" fill="#5F6C72"/>
<path d="M7.32582 14.2891L6.89209 16.6988C6.87493 16.8021 6.8919 16.9083 6.94047 17.0012C7.06385 17.237 7.35506 17.3282 7.59088 17.2048L9.75954 16.0723L11.9282 17.2048L12.1451 17.253C12.2496 17.2548 12.3517 17.2208 12.4342 17.1566C12.5782 17.0514 12.6524 16.8753 12.627 16.6987L12.1933 14.2891L13.9523 12.6024C14.0782 12.4664 14.1238 12.2745 14.0728 12.0964C14.0079 11.9317 13.8617 11.813 13.6872 11.7831L11.2776 11.4217L10.1933 9.22888C10.146 9.13128 10.0672 9.05246 9.96962 9.00523C9.73006 8.88924 9.44185 8.98937 9.3258 9.22888L8.24148 11.4217L5.83184 11.7831C5.6574 11.8129 5.5112 11.9317 5.4463 12.0964C5.39525 12.2745 5.44095 12.4664 5.56677 12.6024L7.32582 14.2891ZM8.65113 12.3374C8.80246 12.3147 8.93068 12.214 8.98847 12.0723L9.75954 10.5301L10.5306 12.0723C10.5884 12.214 10.7166 12.3147 10.8679 12.3374L12.5788 12.5783L11.3499 13.759C11.2354 13.8723 11.1817 14.0334 11.2053 14.1928L11.4944 15.9036L9.97636 15.0843L9.75949 15.0361L9.54262 15.0843L8.02457 15.9036L8.3137 14.1928C8.33732 14.0334 8.28359 13.8723 8.16911 13.759L6.94019 12.5783L8.65113 12.3374Z" fill="#5F6C72"/>
</g>
<defs>
<clipPath id="clip0_1222_22">
<rect width="20" height="20" fill="white"/>
</clipPath>
</defs>
</svg>
