<svg width="20" height="20" viewBox="0 0 20 20" fill="none" xmlns="http://www.w3.org/2000/svg">
<g clip-path="url(#clip0_1224_47)">
<path d="M17.3646 8.78046H16.5061V6.50663C16.5061 4.77421 15.8279 3.14218 14.5963 1.91054C13.3639 0.678119 11.7318 -0.000396729 10.0002 -0.000396729C8.26738 -0.000396729 6.63496 0.678119 5.4041 1.91054C4.17168 3.14179 3.49316 4.77382 3.49316 6.50663V8.78046H2.63457C1.64863 8.78046 0.84668 9.58281 0.84668 10.5691V18.2129C0.84668 19.1988 1.64863 20.0008 2.63457 20.0008H17.3646C18.351 20.0008 19.1533 19.1988 19.1533 18.2129V10.5691C19.1537 9.58281 18.351 8.78046 17.3646 8.78046ZM4.11895 6.50663C4.11895 4.94101 4.73262 3.46601 5.84668 2.35273C6.95957 1.23867 8.43457 0.624994 10.0002 0.624994C11.5646 0.624994 13.0396 1.23867 14.1537 2.35273C15.267 3.46601 15.8803 4.9414 15.8803 6.50624V8.78007H14.7244V6.50624C14.7244 5.25038 14.2314 4.06562 13.3361 3.17031C12.4408 2.27499 11.2561 1.78203 10.0002 1.78203C8.74277 1.78203 7.55801 2.27499 6.66426 3.17031C5.76895 4.06445 5.27598 5.24921 5.27598 6.50624V8.78007H4.11895V6.50663ZM5.90176 8.78046V6.50663C5.90176 5.41679 6.32949 4.38906 7.10683 3.61288C7.88262 2.83593 8.91035 2.40781 10.0002 2.40781C11.0893 2.40781 12.1166 2.83593 12.8939 3.61288C13.6709 4.38984 14.099 5.41757 14.099 6.50663V8.78046H5.90176ZM18.5279 18.2129C18.5279 18.8535 18.0061 19.375 17.3646 19.375H2.63457C1.99395 19.375 1.47246 18.8535 1.47246 18.2129V10.5691C1.47246 9.92773 1.99395 9.40585 2.63457 9.40585H17.3646C18.0061 9.40585 18.5279 9.92773 18.5279 10.5691V18.2129ZM5.5291 13.9437L4.75527 14.3902L5.5291 14.8367C5.67871 14.923 5.72988 15.1144 5.64355 15.2641C5.58574 15.3644 5.48027 15.4207 5.37246 15.4207C5.31934 15.4207 5.26582 15.407 5.21621 15.3789L4.44199 14.932V15.8266C4.44199 15.9992 4.30215 16.1394 4.1291 16.1394C3.95605 16.1394 3.81621 15.9996 3.81621 15.8266V14.932L3.04238 15.3789C2.99316 15.4074 2.93926 15.4207 2.88613 15.4207C2.77793 15.4207 2.67285 15.3644 2.61504 15.2641C2.52871 15.1144 2.57988 14.923 2.72949 14.8367L3.50332 14.3902L2.72949 13.9437C2.57988 13.8574 2.52871 13.666 2.61504 13.5164C2.70137 13.3668 2.89277 13.3156 3.04238 13.4019L3.8166 13.8488V12.9543C3.8166 12.7816 3.95644 12.6414 4.12949 12.6414C4.30254 12.6414 4.44238 12.7812 4.44238 12.9543V13.8488L5.2166 13.4019C5.36621 13.3156 5.55762 13.3668 5.64394 13.5164C5.73027 13.666 5.67871 13.8574 5.5291 13.9437ZM9.44238 13.9437L8.66855 14.3902L9.44238 14.8367C9.59199 14.923 9.64316 15.1144 9.55684 15.2641C9.49902 15.3644 9.39355 15.4207 9.28574 15.4207C9.23262 15.4207 9.1791 15.407 9.12949 15.3789L8.35527 14.932V15.8266C8.35527 15.9992 8.21543 16.1394 8.04238 16.1394C7.86934 16.1394 7.72949 15.9996 7.72949 15.8266V14.932L6.95527 15.3789C6.90605 15.4074 6.85215 15.4207 6.79902 15.4207C6.69082 15.4207 6.58574 15.3644 6.52793 15.2641C6.4416 15.1144 6.49277 14.923 6.64238 14.8367L7.41621 14.3902L6.64238 13.9437C6.49277 13.8574 6.4416 13.666 6.52793 13.5164C6.61426 13.3668 6.80566 13.3156 6.95527 13.4019L7.72949 13.8488V12.9543C7.72949 12.7816 7.86934 12.6414 8.04238 12.6414C8.21543 12.6414 8.35527 12.7812 8.35527 12.9543V13.8488L9.12949 13.4019C9.2791 13.3156 9.47051 13.3668 9.55684 13.5164C9.64316 13.666 9.59199 13.8574 9.44238 13.9437ZM13.3564 13.9437L12.5826 14.3902L13.3564 14.8367C13.5061 14.923 13.5572 15.1144 13.4709 15.2641C13.4131 15.3644 13.3076 15.4207 13.1998 15.4207C13.1467 15.4207 13.0932 15.407 13.0436 15.3789L12.2693 14.932V15.8266C12.2693 15.9992 12.1295 16.1394 11.9564 16.1394C11.7834 16.1394 11.6436 15.9996 11.6436 15.8266V14.932L10.8693 15.3789C10.8201 15.4074 10.7662 15.4207 10.7131 15.4207C10.6049 15.4207 10.4998 15.3644 10.442 15.2641C10.3557 15.1144 10.4068 14.923 10.5564 14.8367L11.3303 14.3902L10.5564 13.9437C10.4068 13.8574 10.3557 13.666 10.442 13.5164C10.5283 13.3668 10.7197 13.3156 10.8693 13.4019L11.6436 13.8488V12.9543C11.6436 12.7816 11.7834 12.6414 11.9564 12.6414C12.1295 12.6414 12.2693 12.7812 12.2693 12.9543V13.8488L13.0436 13.4019C13.1932 13.3156 13.3846 13.3668 13.4709 13.5164C13.5576 13.666 13.5061 13.8574 13.3564 13.9437ZM17.2697 13.9437L16.4959 14.3902L17.2697 14.8367C17.4193 14.923 17.4705 15.1144 17.3842 15.2641C17.3264 15.3644 17.2209 15.4207 17.1131 15.4207C17.06 15.4207 17.0064 15.407 16.9568 15.3789L16.1826 14.932V15.8266C16.1826 15.9992 16.0428 16.1394 15.8697 16.1394C15.6967 16.1394 15.5568 15.9996 15.5568 15.8266V14.932L14.7826 15.3789C14.7334 15.4074 14.6795 15.4207 14.6264 15.4207C14.5182 15.4207 14.4131 15.3644 14.3553 15.2641C14.2689 15.1144 14.3201 14.923 14.4697 14.8367L15.2436 14.3902L14.4697 13.9437C14.3201 13.8574 14.2689 13.666 14.3553 13.5164C14.4416 13.3668 14.633 13.3156 14.7826 13.4019L15.5568 13.8488V12.9543C15.5568 12.7816 15.6967 12.6414 15.8697 12.6414C16.0428 12.6414 16.1826 12.7812 16.1826 12.9543V13.8488L16.9568 13.4019C17.1064 13.3156 17.2978 13.3668 17.3842 13.5164C17.4705 13.666 17.4193 13.8574 17.2697 13.9437Z" fill="#5F6C72"/>
</g>
<defs>
<clipPath id="clip0_1224_47">
<rect width="20" height="20" fill="white"/>
</clipPath>
</defs>
</svg>
