<svg width="20" height="20" viewBox="0 0 20 20" fill="none" xmlns="http://www.w3.org/2000/svg">
<g clip-path="url(#clip0_1224_43)">
<path d="M11.5625 17.5H8.4375C8.0925 17.5 7.8125 17.22 7.8125 16.875C7.8125 16.53 8.0925 16.25 8.4375 16.25H11.5625C11.9075 16.25 12.1875 16.53 12.1875 16.875C12.1875 17.22 11.9075 17.5 11.5625 17.5Z" fill="#5F6C72"/>
<path d="M16.585 19.375H3.41566C1.89879 19.375 0.665039 18.141 0.665039 16.6241C0.665039 12.9753 3.63348 10.0072 7.28191 10.0072H12.7185C16.3672 10.0072 19.3354 12.9756 19.3354 16.6241C19.3354 18.141 18.1016 19.375 16.585 19.375ZM7.28191 11.2572C4.32254 11.2572 1.91504 13.665 1.91504 16.6241C1.91504 17.4516 2.58816 18.125 3.41566 18.125H16.585C17.4125 18.125 18.0857 17.4519 18.0857 16.6241C18.0857 13.6647 15.6779 11.2572 12.7188 11.2572H7.28191Z" fill="#5F6C72"/>
<path d="M9.99969 8.76531C7.75531 8.76531 5.92969 6.93937 5.92969 4.69531C5.92969 2.45124 7.75563 0.625305 9.99969 0.625305C12.2438 0.625305 14.0697 2.45124 14.0697 4.69531C14.0697 6.93937 12.2438 8.76531 9.99969 8.76531ZM9.99969 1.87499C8.44469 1.87499 7.17969 3.13999 7.17969 4.69499C7.17969 6.24999 8.44469 7.51499 9.99969 7.51499C11.5547 7.51499 12.8197 6.24999 12.8197 4.69499C12.8197 3.13999 11.5547 1.87499 9.99969 1.87499Z" fill="#5F6C72"/>
</g>
<defs>
<clipPath id="clip0_1224_43">
<rect width="20" height="20" fill="white"/>
</clipPath>
</defs>
</svg>
