<svg width="24" height="24" viewBox="0 0 24 24" fill="none" xmlns="http://www.w3.org/2000/svg">
<g clip-path="url(#clip0_945_447)">
<path d="M20.238 13.3188V21.1996C20.238 22.7444 18.9812 24.0013 17.4363 24.0013H2.80031C1.25625 24.0013 0 22.7445 0 21.1996V6.56485C0 5.01999 1.2562 3.76318 2.80031 3.76318H10.6811C11.0953 3.76318 11.4311 4.09899 11.4311 4.51322C11.4311 4.92746 11.0953 5.26327 10.6811 5.26327H2.80031C2.08341 5.26327 1.50014 5.84715 1.50014 6.5648V21.1995C1.50014 21.9172 2.08341 22.501 2.80031 22.501H17.4364C18.154 22.501 18.7379 21.9172 18.7379 21.1995V13.3188C18.7379 12.9046 19.0737 12.5688 19.488 12.5688C19.9022 12.5688 20.238 12.9045 20.238 13.3188ZM22.8048 1.19649C21.2082 -0.399603 18.6113 -0.399603 17.0148 1.19649L7.20619 11.0037L8.26697 12.0645L11.9349 15.7334L12.9957 16.7937L22.8043 6.98508C23.5754 6.21493 24.0001 5.18696 24.0001 4.09055C24.0001 2.99415 23.5754 1.96665 22.8048 1.19649ZM5.38978 18.6101C5.53181 18.7521 5.72353 18.8299 5.92041 18.8299C5.97244 18.8299 6.02494 18.8243 6.07697 18.813L11.6926 17.6121L10.4288 16.3488L7.65103 13.5705L6.38775 12.3068L5.18681 17.9229C5.13338 18.1714 5.20978 18.4301 5.38978 18.6101Z" fill="black"/>
</g>
<defs>
<clipPath id="clip0_945_447">
<rect width="24" height="24" fill="white"/>
</clipPath>
</defs>
</svg>
