<svg width="16" height="15" viewBox="0 0 16 15" fill="none" xmlns="http://www.w3.org/2000/svg">
<g clip-path="url(#clip0_644_2534)">
<path d="M13.4442 1.90723H7.7078H7.69288H1.95476C0.875794 1.90723 0 2.72108 0 3.7303V10.6671C0 11.6763 0.875794 12.4927 1.95476 12.4927H7.69254H7.70746H13.4442C14.5239 12.4927 15.4003 11.6763 15.4003 10.6671V3.72998C15.4 2.72108 14.5235 1.90723 13.4442 1.90723ZM13.1522 4.54352L8.76812 8.7003C8.48591 8.96736 8.10432 9.15068 7.70068 9.15068C7.2967 9.15068 6.91477 8.96736 6.6329 8.7003L2.24783 4.54352C1.98868 4.29835 1.99106 3.9003 2.25325 3.65799C2.51545 3.41567 2.93808 3.41662 3.19722 3.66211C3.19722 3.66211 6.48264 6.78049 7.58264 7.81572C7.65319 7.88201 7.75868 7.87091 7.8177 7.81572C8.91736 6.78049 12.2024 3.6637 12.2024 3.6637C12.4616 3.41821 12.8842 3.41631 13.1467 3.65862C13.4086 3.90094 13.4113 4.29835 13.1522 4.54352Z" fill="white"/>
</g>
<defs>
<clipPath id="clip0_644_2534">
<rect width="15.4" height="14.4" fill="white"/>
</clipPath>
</defs>
</svg>
