<svg width="36" height="36" viewBox="0 0 36 36" fill="none" xmlns="http://www.w3.org/2000/svg">
<path d="M14.625 14.625H27V25.875H14.625V14.625Z" stroke="black" stroke-miterlimit="10" stroke-linecap="round" stroke-linejoin="round"/>
<path d="M14.625 25.875L9 21.375V10.125H21.375L27 14.625" stroke="black" stroke-miterlimit="10" stroke-linecap="round" stroke-linejoin="round"/>
<path d="M13.5 10.125L19.125 14.625V18.5625H23.0625V14.625L17.4375 10.125" stroke="black" stroke-miterlimit="10" stroke-linecap="round" stroke-linejoin="round"/>
<path d="M9 10.125L14.625 14.625" stroke="black" stroke-miterlimit="10" stroke-linecap="round" stroke-linejoin="round"/>
<path d="M2.56494 14.85C4.02744 7.66125 10.3837 2.25 17.9999 2.25C25.1099 2.25 31.2305 7.03125 33.1874 13.5" stroke="black" stroke-miterlimit="10" stroke-linecap="round" stroke-linejoin="round"/>
<path d="M1.125 11.8125L2.56669 14.8477L5.625 12.9375" stroke="black" stroke-miterlimit="10" stroke-linecap="round" stroke-linejoin="round"/>
<path d="M33.435 21.15C31.9725 28.3388 25.6162 33.75 18 33.75C10.89 33.75 4.76944 28.9688 2.8125 22.5" stroke="black" stroke-miterlimit="10" stroke-linecap="round" stroke-linejoin="round"/>
<path d="M34.875 24.1875L33.4333 21.1522L30.375 23.0625" stroke="black" stroke-miterlimit="10" stroke-linecap="round" stroke-linejoin="round"/>
</svg>
