<svg width="20" height="20" viewBox="0 0 20 20" fill="none" xmlns="http://www.w3.org/2000/svg">
<g clip-path="url(#clip0_1153_20)">
<path fill-rule="evenodd" clip-rule="evenodd" d="M3.4375 0.625H16.5625C18.1094 0.625 19.375 1.89062 19.375 3.4375V16.5625C19.375 18.1094 18.1094 19.375 16.5625 19.375H16.1172V17.3508C16.1172 15.1086 14.5172 13.9469 12.5395 13.7621C12.1852 13.7289 11.8641 13.8738 11.6547 14.1617L10.9672 15.1086L9.9707 16.4828L8.97422 15.1086L8.28867 14.1641C8.07812 13.8738 7.75391 13.7277 7.39727 13.7645C5.44531 13.9594 3.88281 15.1598 3.88281 17.3508V19.375H3.4375C1.89062 19.375 0.625 18.1094 0.625 16.5625V3.4375C0.625 1.89062 1.89062 0.625 3.4375 0.625ZM10.0004 5.92891C11.6723 5.92891 13.0277 7.28437 13.0277 8.95742C13.0277 10.6293 11.6723 11.9848 10.0004 11.9848C8.32852 11.9848 6.97187 10.6293 6.97187 8.95742C6.97227 7.28437 8.32852 5.92891 10.0004 5.92891Z" fill="#D6A680"/>
</g>
<defs>
<clipPath id="clip0_1153_20">
<rect width="20" height="20" fill="white"/>
</clipPath>
</defs>
</svg>
