<svg width="20" height="27" viewBox="0 0 20 27" fill="none" xmlns="http://www.w3.org/2000/svg">
<path fill-rule="evenodd" clip-rule="evenodd" d="M11.8107 0H2.72554C1.22013 0 0 1.29741 0 2.89816V22.5487C0 23.6635 0.601438 24.6798 1.5472 25.1618C2.49296 25.6439 3.61406 25.5067 4.43172 24.8083L4.88235 24.4238C5.21486 24.1407 5.68729 24.1407 6.0198 24.4238L8.28927 26.3617C9.285 27.2118 10.7014 27.2128 11.6989 26.3646L13.9702 24.4325C14.3018 24.1504 14.7724 24.1494 15.104 24.4315L15.5746 24.8305C16.3932 25.5251 17.5134 25.6594 18.4573 25.1763C19.4004 24.6933 20 23.678 20 22.5651V8.69158H14.5362C13.813 8.69158 13.1198 8.38631 12.6092 7.84242C12.0977 7.2995 11.8107 6.5624 11.8107 5.79342V0ZM4.54256 19.3182H15.73C16.2315 19.3182 16.6385 18.8854 16.6385 18.3521C16.6385 17.8189 16.2315 17.3861 15.73 17.3861H4.54256C4.04106 17.3861 3.63405 17.8189 3.63405 18.3521C3.63405 18.8854 4.04106 19.3182 4.54256 19.3182ZM4.54256 15.454H15.73C16.2315 15.454 16.6385 15.0212 16.6385 14.4879C16.6385 13.9546 16.2315 13.5219 15.73 13.5219H4.54256C4.04106 13.5219 3.63405 13.9546 3.63405 14.4879C3.63405 15.0212 4.04106 15.454 4.54256 15.454ZM4.54256 11.5897H9.99364C10.4951 11.5897 10.9021 11.157 10.9021 10.6237C10.9021 10.0904 10.4951 9.65764 9.99364 9.65764H4.54256C4.04106 9.65764 3.63405 10.0904 3.63405 10.6237C3.63405 11.157 4.04106 11.5897 4.54256 11.5897ZM13.6277 0.115922V5.79342C13.6277 6.04942 13.7231 6.29577 13.8939 6.47642C14.0638 6.65804 14.2954 6.75947 14.5362 6.75947H19.8937C19.7665 6.28997 19.5285 5.85815 19.1969 5.50844L14.787 0.843366C14.4608 0.498485 14.061 0.250203 13.6277 0.115922Z" fill="#9097A7"/>
</svg>
