<svg width="24" height="24" viewBox="0 0 24 24" fill="none" xmlns="http://www.w3.org/2000/svg">
<path d="M23.5 7.00065H15.5151L14.488 2.89194C14.4561 2.74603 14.3611 2.61943 14.2241 2.55095L12.2242 1.55102C12.1738 1.5266 12.1197 1.51118 12.0643 1.50467L11.4507 0.277604C11.3656 0.107271 11.1912 7.48208e-05 11.0008 0.00110601H7.00104C6.81187 0.00073103 6.63867 0.107177 6.55355 0.276104L5.93906 1.50504C5.88305 1.51198 5.8284 1.5282 5.77759 1.55351L3.77774 2.55343C3.64655 2.61901 3.55346 2.73783 3.51784 2.87596L3.51577 2.87544L0.0159773 16.3746C-0.0471125 16.6188 0.0815045 16.8717 0.315959 16.9646L2.81579 17.9645C2.87475 17.9881 2.93775 18.0002 3.00126 18C3.23543 18.0003 3.43844 17.838 3.48971 17.6095L3.5012 17.5577V18.9999C3.5012 19.276 3.72506 19.4999 4.00118 19.4999H14.0005C14.2767 19.4999 14.5005 19.276 14.5005 18.9999V17.5568L14.512 17.6085C14.5629 17.8374 14.766 18.0002 15.0005 18V23.4996C15.0005 23.7757 15.2243 23.9996 15.5004 23.9996H18.5003C18.7669 23.9999 18.9869 23.7909 19.0002 23.5247L19.5002 13.5003V13.3643L20.0002 23.5247C20.0135 23.791 20.2335 23.9999 20.5002 23.9996H23.5C23.7761 23.9996 24 23.7757 24 23.4996V7.50064C24 7.22452 23.7761 7.00065 23.5 7.00065ZM23 8.00062V8.50061H22.0001V8.00062H23ZM23 10.4382C22.5507 10.2987 22.2005 9.94427 22.0623 9.50048H23V10.4382ZM21.0002 8.50056H18.0004V8.00058H21.0002V8.50056ZM16.0005 9.50053H16.9381C16.7983 9.94961 16.4441 10.2996 16.0005 10.438V9.50053ZM17.0004 8.00062V8.50061H16.0005V8.00062H17.0004ZM11.5197 2.65744L11.9372 5.1613L10.8428 5.52676C10.5812 5.61418 10.4398 5.89696 10.5269 6.15874L10.9463 7.41716L9.50092 9.4402V6.10324L10.9603 2.69794C10.9872 2.63574 11.001 2.56871 11.0008 2.50093V1.61918L11.5197 2.65744ZM10.0009 1.00103V2.40096L9.00056 4.73326L8.00096 2.40096V1.00103H10.0009ZM7.00104 1.61918V2.50093C7.00085 2.56866 7.01463 2.63574 7.04154 2.69794L8.50095 6.10324V9.4402L7.05555 7.41716L7.47501 6.15874C7.56205 5.897 7.42064 5.61418 7.15905 5.52676L6.06463 5.1613L6.48212 2.65744L7.00104 1.61918ZM3.08929 14.7994L1.61197 14.2085L3.50124 6.91699V12.9445L3.08929 14.7994ZM2.64081 16.8186L1.09591 16.2001L1.35914 15.1843L2.86964 15.7885L2.64081 16.8186ZM4.50121 15.0002H6.5011V14.0002H4.50121V3.3099L5.43744 2.84179L5.00818 5.41727C4.96801 5.65974 5.11003 5.89541 5.34318 5.97322L6.3686 6.31571L6.02713 7.34113C5.97562 7.49323 6.00074 7.66085 6.09463 7.7911L8.50099 11.16V18.4999H4.50121V15.0002ZM9.50087 18.5V11.165L11.9097 7.7926C12.0036 7.66235 12.0287 7.49473 11.9772 7.34263L11.6358 6.31721L12.6612 5.97472C12.8943 5.89691 13.0363 5.66124 12.9962 5.41877L12.5669 2.84301L13.5006 3.3099V14.0002H11.5007V15.0002H13.5006V18.5H9.50087ZM14.5006 12.9436V7.06327L15.0006 9.06321V15.1955L14.5006 12.9436ZM16.0005 22.9997V22.4997H18.0498L18.0249 22.9997H16.0005ZM20.2137 12.2658C19.8043 11.9118 19.1972 11.9118 18.7878 12.2658C18.5443 12.5794 18.4404 12.9793 18.5004 13.3718V13.4753L18.0997 21.4998H16.0005V11.4667C17.0102 11.2942 17.7968 10.498 17.9674 9.50048H21.0338C21.2064 10.5102 22.0026 11.2968 23.0001 11.4674V21.4997H20.9006L20.5002 13.5002V13.3717C20.5604 12.9794 20.4569 12.5796 20.2137 12.2658ZM20.9757 22.9997L20.9506 22.4997H23V22.9997H20.9757Z" fill="black"/>
</svg>
