<svg width="251" height="319" viewBox="0 0 251 319" fill="none" xmlns="http://www.w3.org/2000/svg">
<g opacity="0.8" clip-path="url(#clip0_55_1011)">
<mask id="mask0_55_1011" style="mask-type:luminance" maskUnits="userSpaceOnUse" x="0" y="0" width="262" height="319">
<path d="M262 0H0V319H262V0Z" fill="white"/>
</mask>
<g mask="url(#mask0_55_1011)">
<g opacity="0.34">
<mask id="mask1_55_1011" style="mask-type:luminance" maskUnits="userSpaceOnUse" x="10" y="7" width="348" height="302">
<path d="M334.66 220.988C334.652 220.997 334.643 221.006 334.636 221.016L334.66 220.988ZM328.292 227.273C328.292 227.273 328.292 227.273 328.295 227.268L328.298 227.259L328.286 227.27M328.249 227.299L328.286 227.27L328.21 227.332L328.249 227.301M323.082 231.297C323.082 231.298 323.081 231.299 323.081 231.3C323.08 231.301 323.08 231.302 323.08 231.303L323.082 231.297ZM343.68 175.965L343.64 176.025C343.655 176.006 343.668 175.986 343.68 175.965ZM347.982 165.994C347.997 165.959 347.994 165.966 347.97 166.02L347.982 165.994ZM342.637 175.233C342.63 175.242 342.623 175.252 342.618 175.262L342.637 175.233ZM307.521 226.238L307.536 226.233L307.515 226.241L307.52 226.243M315.77 202.133C315.767 202.134 315.765 202.134 315.763 202.136C315.761 202.137 315.76 202.139 315.759 202.141L315.77 202.133ZM299.07 237.934L299.086 237.934C299.075 237.933 299.064 237.932 299.053 237.932L299.07 237.934ZM298.94 237.926C298.937 237.924 298.935 237.923 298.932 237.922L298.94 237.926ZM295.931 237.56C295.936 237.563 295.943 237.566 295.95 237.564C295.94 237.56 295.933 237.557 295.923 237.559L295.93 237.562M295.923 237.559L295.913 237.555C295.916 237.556 295.92 237.558 295.923 237.559ZM329.315 156.38C329.302 156.397 329.29 156.415 329.28 156.433L329.315 156.38ZM317.338 160.68C317.334 160.687 317.331 160.693 317.329 160.7L317.338 160.68ZM299.594 192.075C299.592 192.075 299.59 192.075 299.589 192.076C299.588 192.077 299.586 192.078 299.586 192.08L299.594 192.075ZM284.791 199.233L284.782 199.24C284.785 199.238 284.789 199.236 284.791 199.233ZM272.905 223.691L272.88 223.712L272.868 223.723C272.882 223.712 272.894 223.702 272.905 223.691ZM270.921 225.66L270.908 225.676C270.919 225.664 270.922 225.658 270.921 225.66ZM276.737 207.19L276.71 207.221C276.72 207.212 276.729 207.201 276.737 207.19ZM258.202 246.257L258.187 246.266C258.193 246.264 258.198 246.261 258.202 246.257ZM291.362 164.633C291.349 164.65 291.338 164.667 291.328 164.685L291.362 164.633ZM289.092 162.281C289.08 162.296 289.069 162.313 289.06 162.33L289.092 162.281ZM251.983 243.324C251.985 243.319 251.985 243.319 251.983 243.324L252.002 243.312L251.98 243.324M234.178 282.839L234.202 282.785C234.194 282.802 234.186 282.82 234.178 282.837M249.809 244.898L249.781 244.922C249.79 244.915 249.8 244.906 249.809 244.898ZM222.539 298.934L222.559 298.917L222.527 298.94L222.535 298.934M258.067 217.602L258.072 217.661L258.066 217.587L258.067 217.602ZM248.256 235.043C248.242 235.046 248.228 235.05 248.214 235.054L248.256 235.043ZM254.242 213.328C254.245 213.342 254.245 213.34 254.244 213.322L254.242 213.328ZM245.741 224.88C245.732 224.876 245.724 224.872 245.713 224.874C245.724 224.879 245.732 224.883 245.741 224.88ZM228.514 257.726C228.511 257.729 228.507 257.732 228.505 257.736L228.514 257.726ZM259.462 186.349L259.442 186.393C259.45 186.379 259.456 186.364 259.462 186.349ZM217.262 279.913L217.315 279.854C217.297 279.873 217.279 279.893 217.262 279.913ZM198.445 306.035C198.345 306.017 198.297 306.009 198.297 306.01C198.297 306.011 198.348 306.02 198.445 306.035ZM202.591 292.649L202.611 292.637L202.589 292.65M231.958 226.759L231.95 226.762L231.96 226.758M256.703 168.406L256.677 168.465C256.685 168.445 256.694 168.426 256.703 168.406ZM251.349 167.733C251.35 167.731 251.351 167.729 251.351 167.727L251.349 167.733ZM237.457 188.574C237.457 188.574 237.457 188.574 237.459 188.569L237.457 188.574ZM186.5 301.379C186.492 301.378 186.484 301.378 186.476 301.379L186.5 301.379ZM186.17 301.387C186.168 301.386 186.166 301.386 186.164 301.385L186.17 301.387ZM199.373 266.195C199.363 266.2 199.354 266.206 199.345 266.212L199.373 266.195ZM195.121 274.698C195.109 274.705 195.097 274.712 195.085 274.721L195.121 274.698ZM216.962 220.187L216.942 220.193L216.917 220.202L216.962 220.187ZM216.917 220.202L216.883 220.214C216.895 220.211 216.906 220.207 216.917 220.202ZM287.72 37.8895L287.716 37.8792L287.71 37.8671C287.713 37.875 287.716 37.8826 287.72 37.8895ZM244.494 125.252L244.498 125.243L244.495 125.25M214.49 188.006C214.539 188.028 214.546 188.031 214.49 188.006V188.006ZM189.445 235.626C189.462 235.617 189.462 235.617 189.445 235.626V235.626ZM220.034 165.377L220.033 165.413L220.034 165.376M227.815 137.095C227.82 137.084 227.821 137.07 227.823 137.056L227.815 137.095ZM171.178 253.531C171.206 253.52 171.229 253.51 171.247 253.503C171.195 253.522 171.169 253.531 171.168 253.533L171.178 253.531ZM156.047 287.16C156.035 287.163 156.023 287.166 156.012 287.171L156.047 287.16ZM137.799 263.469C137.799 263.469 137.799 263.469 137.803 263.471L137.799 263.469ZM213.324 92.2014C213.325 92.1939 213.325 92.1863 213.323 92.179L213.324 92.2014ZM212.011 91.6819L212.001 91.5198C212.001 91.6812 212.008 91.7372 212.011 91.6819ZM123.927 283.251C123.905 283.251 123.883 283.252 123.862 283.255L123.927 283.251ZM186.293 126.316C186.294 126.305 186.295 126.294 186.295 126.282L186.293 126.316ZM115.89 283.228C115.877 283.222 115.863 283.224 115.85 283.223L115.89 283.228ZM181.762 127.155L181.76 127.184L181.763 127.152M113.68 265.343C113.674 265.342 113.667 265.342 113.661 265.343L113.68 265.343ZM96.3894 264.95C96.4126 264.947 96.474 264.956 96.3894 264.95V264.95ZM95.4394 251.976L95.433 251.973C95.433 251.973 95.4378 251.975 95.4394 251.976ZM118.577 174.838C118.572 174.838 118.567 174.838 118.561 174.84L118.577 174.838ZM75.9104 256.576C75.9069 256.574 75.9032 256.573 75.8993 256.572L75.9104 256.576ZM81.9189 221.707L81.9521 221.702C81.9088 221.706 81.8871 221.708 81.8867 221.708C81.8973 221.709 81.9083 221.707 81.9189 221.707ZM121.394 123.113L121.365 123.112C121.374 123.116 121.385 123.113 121.394 123.113ZM65.2077 225.817C65.2028 225.815 65.1974 225.815 65.1925 225.817C65.1925 225.817 65.1925 225.817 65.2077 225.817ZM64.2454 221.886L64.2239 221.892L64.2461 221.893M51.7302 245.53L51.7256 245.521C51.7403 245.556 51.7407 245.556 51.7302 245.53ZM126.773 76.2695C126.768 76.2511 126.762 76.2331 126.754 76.2137L126.773 76.2695ZM103.239 122.03C103.239 122.03 103.235 122.028 103.234 122.028L103.239 122.03ZM84.9058 138.91L84.7875 138.916C84.7769 138.917 84.7663 138.918 84.7559 138.921C84.7559 138.921 84.804 138.919 84.9054 138.911M112.394 71.7158C112.391 71.7083 112.388 71.7011 112.384 71.6942L112.394 71.7158ZM111.32 72.5944C111.605 73.3379 111.605 73.2727 111.32 72.5944V72.5944ZM57.0948 179.327C57.0896 179.327 57.0842 179.326 57.0789 179.327L57.0948 179.327ZM91.9421 100.222L91.9334 100.218C91.9334 100.218 91.9405 100.221 91.9421 100.222ZM91.9334 100.218C91.9309 100.217 91.9282 100.215 91.9255 100.214L91.9334 100.218ZM32.7668 200.628L32.7747 200.631C32.7716 200.629 32.7681 200.627 32.7644 200.626M38.3248 185.759L38.3435 185.762C38.3362 185.76 38.3287 185.759 38.3212 185.758M38.2939 185.754C38.3026 185.758 38.2939 185.754 38.255 185.745C38.2677 185.751 38.2817 185.751 38.2939 185.754ZM52.7035 144.343L52.6631 144.334C52.6631 144.334 52.6758 144.34 52.7035 144.343ZM69.6152 91.3569C69.6152 91.3569 69.6081 91.3538 69.6073 91.3534L69.6152 91.3569ZM30.1549 174.386C30.1451 174.38 30.1347 174.375 30.124 174.372L30.1549 174.386ZM63.151 92.3098L63.1463 92.3077C63.1477 92.3086 63.1493 92.3093 63.151 92.3098ZM48.2384 123.601C48.2354 123.6 48.2322 123.598 48.2289 123.597L48.2416 123.603M18.314 183.974L18.3066 183.937L18.2995 183.909C18.2995 183.909 18.304 183.931 18.3159 183.972M37.7412 119.626C37.7987 119.644 37.8061 119.645 37.7412 119.626V119.626ZM17.589 125.885L17.5908 125.881L17.5887 125.886M19.1654 110.617L19.1695 110.578C19.1703 110.561 19.1703 110.553 19.1696 110.554C19.1673 110.575 19.1661 110.596 19.1662 110.617M43.6849 49.9474C43.6762 49.9436 43.6697 49.9473 43.6664 49.9506L43.6849 49.9474ZM28.215 74.8056L28.2101 74.7911C28.2108 74.7962 28.2125 74.8011 28.215 74.8056ZM324.132 232.133L324.142 232.127C324.139 232.13 324.136 232.132 324.132 232.133ZM283.009 236.113C283.791 236.199 284.57 236.323 285.344 236.463L285.339 236.461L285.348 236.465L285.354 236.468C285.374 236.472 285.398 236.477 285.409 236.478C285.404 236.476 285.4 236.474 285.396 236.472C287.405 236.802 295.028 239.032 298.749 239.184L298.733 239.184C298.798 239.19 298.859 239.191 298.919 239.193L298.914 239.191C307.651 239.555 316.288 237.204 323.637 232.463L323.635 232.467C323.726 232.403 323.819 232.338 323.91 232.276C323.908 232.28 323.901 232.281 323.897 232.285C323.972 232.237 324.044 232.185 324.118 232.137C324.116 232.141 324.109 232.143 324.105 232.146L324.13 232.129C324.144 232.118 324.162 232.109 324.175 232.098L324.173 232.104C330.315 227.749 335.672 222.383 340.014 216.234C339.616 217.065 334.445 226.426 328.315 233.027C327.474 233.697 324.807 237.437 319.012 240.142C307.773 245.088 297.608 244.344 288.19 239.453C288.21 239.462 288.218 239.472 288.217 239.473C286.406 238.472 284.667 237.347 283.011 236.106M280.855 234.746C276.448 232.684 273.47 237.936 269.066 239.921C269.273 238.524 269.162 237.098 268.742 235.749C268.966 235.461 269.175 235.219 269.254 235.128C271.534 232.97 270.879 233.478 272.975 232.249C279.281 228.22 291.202 233.007 307.922 227.446C307.895 227.452 307.871 227.463 307.844 227.47C310.991 226.345 314.07 225.038 317.065 223.554L317.299 223.438L317.275 223.448C331.227 216.576 342.276 204.963 348.441 190.691C344.845 205.701 342.866 211.605 334.66 220.988L334.664 220.98C332.668 223.2 330.542 225.299 328.296 227.266C328.294 227.268 328.291 227.27 328.288 227.271L323.624 230.938C323.62 230.939 323.616 230.941 323.614 230.945L323.408 231.08C323.318 231.141 323.228 231.202 323.138 231.26C323.118 231.272 323.1 231.285 323.082 231.299C319.37 233.54 318.772 234.008 314.67 235.505C309.673 237.289 304.384 238.112 299.082 237.93L299.089 237.933L299.066 237.931L299.038 237.93L299.047 237.934C299.005 237.93 298.963 237.928 298.923 237.928C298.905 237.926 298.873 237.925 298.856 237.925L298.882 237.924C297.91 237.877 296.943 237.76 295.988 237.576C295.969 237.573 295.948 237.569 295.926 237.565C288.795 236.19 284.923 234.595 280.844 234.763M268.252 234.337C267.914 233.512 267.534 232.704 267.113 231.918C267.285 231.471 267.474 231.03 267.687 230.598C268.536 228.815 269.62 227.153 270.908 225.656C270.921 225.641 270.935 225.627 270.948 225.611C271.55 224.946 272.186 224.315 272.856 223.719L272.848 223.724L272.867 223.708L272.91 223.669L272.892 223.686C272.935 223.649 272.973 223.615 272.994 223.597L272.951 223.638C273.53 223.131 274.14 222.662 274.779 222.232C274.771 222.234 274.767 222.24 274.76 222.241C274.753 222.243 274.771 222.233 274.779 222.23C274.817 222.198 274.857 222.17 274.779 222.23C283.991 216.22 298.703 215.015 316.598 203.109C327.149 195.76 336.306 186.591 343.638 176.032L343.633 176.043C349.405 167.446 351.964 160.784 354.492 151.668C353.844 157.381 350.444 183.756 345.978 192.975L345.981 192.967C345.972 192.984 345.964 193.002 345.958 193.02C340.583 203.172 338.27 204.899 336.886 206.709C334.875 208.985 332.731 211.141 330.465 213.163C330.476 213.154 330.484 213.145 330.494 213.138C328.6 214.806 326.592 216.342 324.486 217.735C322.009 219.396 319.437 220.911 316.785 222.274L316.807 222.265L316.781 222.279C316.781 222.279 316.777 222.277 316.776 222.277C316.655 222.334 316.15 222.591 316.02 222.654C313.256 224.009 310.418 225.207 307.519 226.24C307.502 226.247 307.483 226.253 307.467 226.259C307.343 226.299 307.02 226.41 306.802 226.49C304.906 227.129 302.975 227.654 301.017 228.063C301.005 228.063 300.998 228.067 300.986 228.068L300.982 228.066C287.686 230.688 276.875 226.646 269.646 232.957L269.707 232.9C269.194 233.345 268.712 233.822 268.262 234.329M277.25 211.424L277.244 211.438C283.003 204.942 292.903 198.059 300.223 193.184C300.218 193.182 300.213 193.189 300.207 193.191L300.508 192.994L300.518 192.987C300.542 192.97 300.567 192.954 300.589 192.936L300.585 192.945C306.032 189.339 313.675 184.359 318.662 180.096C338.918 162.868 351.43 139.693 351.746 111.193C352.01 111.964 352.267 112.735 352.501 113.516C352.497 113.524 352.52 113.584 352.522 113.594C353.267 116.174 353.867 118.793 354.321 121.44C354.58 123.036 354.743 124.647 354.809 126.263C355.026 138.443 355.078 134 355.24 139.567C355.288 141.988 355.497 142.97 353.839 149.24C351.135 159.427 348.825 164.419 348.185 165.671C348.134 165.783 348.074 165.89 348.007 165.992L347.998 166.014C346.415 169.22 344.622 172.319 342.629 175.289L342.633 175.281C342.554 175.399 342.262 175.83 342.237 175.871L342.26 175.838L342.233 175.879C340.21 178.843 338.009 181.682 335.644 184.381C329.796 191.022 323.184 196.95 315.945 202.041L315.981 202.018L315.773 202.157C312.361 204.384 308.818 206.403 305.163 208.205C305.603 207.926 303.83 208.948 299.936 210.619C288.68 215.451 278.189 217.462 272.123 222.698C272.114 222.704 272.107 222.713 272.097 222.718C270.348 224.237 268.853 226.026 267.668 228.017C267.695 227.934 267.719 227.849 267.749 227.761C267.772 227.695 267.782 227.645 267.767 227.709C269.84 221.723 273.065 216.199 277.259 211.448M268.044 219.428C268.039 219.439 268.034 219.451 268.025 219.46C268.827 217.802 269.747 216.203 270.78 214.678C272.57 212.054 274.554 209.566 276.713 207.236L276.711 207.242C279.207 204.388 281.906 201.719 284.787 199.254L284.801 199.243L284.798 199.249C285.128 199.006 287.598 196.589 301.819 185.559C304.158 183.746 304.89 183.241 309.222 179.714C320.93 170.221 330.504 158.367 337.317 144.926C344.13 131.485 348.028 116.759 348.757 101.713C349.154 103.68 349.714 105.611 350.429 107.487C350.539 109.85 350.458 113.173 350.346 115.481C350.122 119.582 349.63 123.664 348.872 127.701L348.876 127.692C344.881 147.745 334.42 164.623 318.797 178.336C318.794 178.336 318.792 178.337 318.79 178.339C318.787 178.34 318.786 178.342 318.784 178.344C318.012 178.76 318.759 179.333 299.833 191.947C299.835 191.942 299.843 191.941 299.846 191.936C299.764 191.989 299.685 192.045 299.602 192.099C285.224 201.62 269.505 212.917 265.88 229.771C265.69 229.467 265.496 229.164 265.298 228.865C265.389 227.011 265.762 225.182 266.407 223.442L266.403 223.451C266.418 223.403 266.413 223.428 266.425 223.382C266.409 223.419 266.414 223.406 266.43 223.372L266.425 223.382C266.751 222.437 267.66 220.229 268.043 219.436M264.945 220.54C265.388 219.238 265.909 217.964 266.507 216.726C266.503 216.737 266.497 216.75 266.488 216.758C267.4 214.887 268.447 213.084 269.622 211.365L269.618 211.373C270.876 209.442 272.253 207.591 273.742 205.831C273.721 205.85 273.704 205.873 273.684 205.892C275.902 203.51 278.24 201.243 280.691 199.1L280.7 199.091L280.696 199.101C280.769 199.033 280.85 198.97 280.922 198.903C280.913 198.908 280.907 198.916 280.898 198.922C280.93 198.891 280.965 198.864 280.997 198.835C281.002 198.833 281.007 198.829 281.01 198.824C281.338 198.559 300.56 182.79 300.614 182.747C303.389 180.408 305.938 177.815 308.228 175C328.16 151.194 338.805 125.478 340.498 94.549C340.5 94.5335 340.503 94.4836 340.503 94.4712C341.099 83.2691 339.85 77.3913 337.473 67.5138C348.667 87.3689 347.726 96.9282 347.425 102.615C347.424 102.674 347.421 102.732 347.416 102.788L347.416 102.767C346.855 112.004 345.073 121.128 342.116 129.899C339.083 139.27 334.775 148.18 329.314 156.38L329.327 156.363C327.159 159.597 324.773 162.679 322.186 165.588L322.188 165.582C318.98 169.219 315.522 172.628 311.84 175.785C295.556 189.879 268.165 206.078 264.262 226.53L264.259 226.536C264.233 226.689 264.163 227.117 264.154 227.181L263.694 226.525C263.858 226.247 263.717 225.88 264.13 223.595C264.339 222.573 264.599 221.562 264.91 220.566L264.935 220.509L264.931 220.518M212.794 306.21C217.343 304.679 223.209 300.416 226.087 297.429C231.098 292.223 235.141 283.831 235.468 283.127L235.538 283L235.526 283.015C237.092 280.039 238.54 277.005 240.088 274.022C242.769 268.813 244.244 265.402 245.363 262.79C247.319 258.223 248.186 256.097 252.521 251.061L252.49 251.096C254.179 249.251 256.092 247.624 258.184 246.252C258.723 245.931 259.274 245.634 259.836 245.358C258.299 248.209 260.752 250.999 262.668 254.993C265.044 259.941 266.594 266.744 258.7 277.802C252.932 285.643 243.157 292.118 234.824 297.158C234.84 297.152 234.853 297.142 234.868 297.136C231.787 299.074 228.583 300.809 225.277 302.33C222.663 303.469 219.983 304.45 217.252 305.265C217.339 305.236 217.379 305.221 217.38 305.221C215.881 305.667 214.349 305.995 212.799 306.203M319.927 83.6289C320.02 69.4297 316.002 52.5518 311.995 44.316C314.515 46.0432 326.681 50.5056 335.215 63.7706C336.629 69.145 338.166 76.5835 338.06 75.9894C338.064 76.0048 338.077 76.0682 338.078 76.0705C338.573 78.43 338.92 80.8184 339.116 83.2214L339.115 83.2098L339.117 83.2346L339.116 83.2206C339.982 103.099 336.629 112.041 336.636 114.594C336.308 117.013 335.798 119.404 335.113 121.747C331.326 135.608 325.318 148.765 317.32 160.707L317.325 160.697C313.72 166.109 309.774 171.286 305.512 176.198L305.525 176.181C303.86 178.051 302.072 179.807 300.171 181.438C300.187 181.417 300.178 181.432 300.146 181.457C300.113 181.481 300.106 181.501 300.13 181.47C292.861 187.744 287.838 191.167 280.134 197.896L280.139 197.884C280.076 197.938 280.017 197.995 279.954 198.048L279.957 198.041C279.943 198.051 279.931 198.062 279.92 198.075C279.911 198.08 279.904 198.09 279.894 198.095C271.832 205.125 263.949 214.484 262.627 225.007C261.834 223.901 261.028 222.804 260.208 221.717C259.932 220.341 259.842 218.933 259.94 217.533C259.943 217.513 259.944 217.493 259.945 217.474C259.961 217.282 260.058 216.191 260.316 214.834C260.912 212.054 261.905 209.373 263.265 206.875L263.244 206.921C264.857 203.693 266.657 200.562 268.635 197.544C268.619 197.565 268.607 197.589 268.589 197.61C273.45 190.302 293.807 168.109 307.378 137.664C314.527 121.623 319.792 103.291 319.914 83.6353M310.773 54.2791C309.189 48.4023 307.063 42.685 304.424 37.2005C306.061 38.8293 307.631 40.5252 309.316 42.1042C312.891 47.5787 315.273 57.3939 316.673 64.0089C316.675 64.0033 316.669 63.9923 316.67 63.9857C317.57 68.6397 318.181 73.345 318.501 78.0746C318.497 78.0445 318.497 78.0166 318.493 77.9865C320.384 105.929 307.206 135.049 303.293 143.364C302.718 144.587 302.343 145.362 302.247 145.614C298.976 152.15 295.34 158.496 291.355 164.624L291.363 164.605C276.399 187.006 257.726 204.499 258.658 219.686L258.25 219.169C258.144 218.504 258.088 217.87 258.069 217.658L258.066 217.665L258.061 217.597L258.06 217.583C257.983 216.309 257.984 215.031 258.064 213.757C258.062 213.787 258.148 212.896 258.259 211.946C258.312 211.21 258.433 210.481 258.622 209.768C258.621 209.766 258.622 209.764 258.622 209.763C258.623 209.761 258.624 209.759 258.626 209.758L258.623 209.764C259.706 205.219 261.592 200.904 264.193 197.022C271.852 185.527 286.356 172.073 298.008 149.374C303.07 139.34 306.769 128.676 309.008 117.666L309.012 117.656C312.785 98.8493 315.694 72.8674 310.771 54.2781M268.875 109.866C268.875 109.863 268.876 109.861 268.878 109.859L268.875 109.866ZM181.852 302.7C182.587 302.7 185.314 302.702 186.307 302.663C194.079 302.307 201.623 299.914 208.18 295.725C219 288.855 225.105 280.721 230.491 273.172C241.846 257.297 241.531 252.076 249.783 244.92L249.743 244.95C249.893 244.827 250.043 244.704 250.193 244.581C250.172 244.6 250.148 244.618 250.128 244.637C250.721 244.162 251.341 243.722 251.985 243.319L251.955 243.337C251.963 243.33 251.973 243.324 251.982 243.319C252.014 243.269 255.887 240.564 259.371 241.082C260.18 241.741 261.055 242.314 261.982 242.792C261.833 242.932 261.701 243.039 261.338 243.412C256.673 244.647 251.493 249.784 248.646 253.799L248.649 253.792C246.601 256.832 244.922 260.105 243.648 263.541C242.827 265.563 241.929 267.756 240.482 270.555L240.489 270.539C239.971 271.521 239.442 272.496 238.93 273.48C238.951 273.432 234.19 282.812 234.169 282.853L234.179 282.832L234.152 282.892L234.16 282.874C228.426 293.77 225.387 296.321 225.771 295.907C225.75 295.927 225.731 295.948 225.713 295.97C224.727 297.02 223.674 298.004 222.561 298.916C222.555 298.923 222.548 298.928 222.541 298.933C220.948 300.213 219.279 301.397 217.543 302.476L217.559 302.466C217.535 302.484 217.509 302.497 217.486 302.513C215.611 303.737 213.567 304.677 211.418 305.304C207.186 306.413 202.775 306.659 198.447 306.029L198.544 306.047C196.526 305.831 196.641 305.716 196.348 305.909C194.2 305.664 192.07 305.282 189.972 304.763L189.979 304.766C189.979 304.766 189.97 304.762 189.967 304.761C189.806 304.723 189.844 304.73 189.88 304.743C187.04 304.068 184.928 303.428 181.853 302.692M176.518 299.435C176.523 299.434 176.528 299.434 176.533 299.434L176.518 299.435ZM171.39 300.844C171.487 300.839 171.584 300.835 171.687 300.833L171.754 300.832L171.726 300.83C171.763 300.831 171.796 300.83 171.829 300.829L171.793 300.833C173.38 300.786 174.969 300.756 176.559 300.711L176.541 300.713C180.178 300.621 183.805 300.282 187.397 299.7C187.35 299.69 188.78 299.506 190.369 299.139C215.81 293.253 231.142 262.102 237.862 252.349C237.563 252.74 240.647 248.443 242.263 246.655L242.259 246.664C244.812 243.934 248.818 240.695 252.368 239.779C252.427 239.774 255.69 238.802 257.032 239.386C257.111 239.478 257.215 239.546 257.332 239.581C257.449 239.616 257.573 239.617 257.69 239.584C257.751 239.645 257.813 239.704 257.877 239.762C254.657 240.015 251.449 241.902 248.949 243.954C248.973 243.937 248.994 243.917 249.018 243.9C239.007 252.155 232.706 274.337 214.244 289.681C214.254 289.675 214.26 289.666 214.27 289.661C211.911 291.645 209.414 293.458 206.797 295.087C206.82 295.07 206.846 295.057 206.869 295.04C202.779 297.561 200.853 298.337 198.45 299.059L198.53 299.04C194.157 300.302 190.783 301.249 186.501 301.378L186.51 301.382C186.453 301.385 186.395 301.386 186.34 301.386L186.349 301.39C186.311 301.392 186.273 301.394 186.231 301.394C186.271 301.389 186.207 301.395 186.168 301.394L186.173 301.396C174.127 301.673 174.958 301.283 171.385 300.859M169.649 299.66C188.38 296.192 213.553 274.358 211.781 275.821C211.802 275.802 211.826 275.784 211.846 275.765C215.979 272.376 219.891 268.727 223.558 264.839C240.415 247.423 242.804 238.927 252.611 237.205C255.197 236.882 255.168 238.219 255.911 237.683C256.01 237.794 256.021 237.816 256.158 237.969C249.883 237.655 243.292 243.011 239.114 248.517C237.009 251.211 235.111 254.061 233.437 257.041C228.544 265.25 224.3 271.089 224.273 271.179L224.277 271.171C222.149 274.252 219.804 277.176 217.259 279.923C214.378 282.995 211.329 285.904 208.124 288.636C208.144 288.617 208.169 288.6 208.189 288.58C206.422 290.07 204.551 291.433 202.59 292.658L202.537 292.691C200.811 293.762 199.01 294.707 197.147 295.519L197.18 295.506C193.992 296.942 190.622 297.937 187.165 298.463C183.702 299.016 180.207 299.346 176.703 299.449L176.676 299.451L176.671 299.448L176.542 299.453C174.945 299.493 173.344 299.524 171.742 299.572L171.754 299.571C171.049 299.591 170.344 299.622 169.641 299.665M277.613 24.3558C286.122 23.3702 295.201 29.0766 301.681 34.6888C301.995 35.2716 302.303 35.8595 302.603 36.4527C304.519 40.2124 306.163 44.1044 307.523 48.0987C307.523 48.0987 307.523 48.0988 307.527 48.1079C307.53 48.1206 307.548 48.1628 307.55 48.1724L307.544 48.1599C308.81 51.791 309.836 55.5019 310.613 59.2684C310.613 59.2684 310.611 59.2723 310.616 59.2783C310.621 59.2843 310.613 59.2839 310.617 59.2903C310.621 59.2967 310.621 59.313 310.624 59.3245C311.286 62.7625 311.728 66.2393 311.948 69.7339C311.944 69.7037 311.943 69.6759 311.939 69.6458C312.264 75.7641 312.18 81.8974 311.689 88.0051L311.691 88.0004L311.694 87.9948C311.019 97.5446 309.768 107.045 307.947 116.445C307.95 116.439 307.952 116.435 307.95 116.428L307.944 116.457L307.935 116.509C307.023 121.27 305.824 125.973 304.345 130.59C304.525 130.092 303.867 132.057 302.762 135.023C301.454 138.534 299.52 143.452 297.612 147.341C295.026 152.469 292.178 157.46 289.079 162.295L289.093 162.277C271.871 187.955 255.791 198.118 256.761 217.33C256.027 216.421 255.284 215.519 254.534 214.623C254.394 214.086 254.268 213.517 254.24 213.383L254.233 213.345C254.074 212.528 253.963 211.703 253.9 210.873C253.568 206.319 254.039 201.742 255.29 197.349C256.323 193.74 257.643 190.22 259.239 186.821C259.386 186.492 259.459 186.35 259.411 186.436L259.425 186.403C259.331 186.556 260.596 183.563 269.082 169.66C273.767 162 277.956 154.047 281.621 145.851C308.93 84.5826 294.494 33.1555 277.609 24.3579M280.79 111.436C287.268 85.7088 285.988 45.1811 266.371 27.006C268.361 27.2268 270.118 26.2438 273.487 25.2126C273.65 25.1607 274.334 24.9723 274.979 24.819C278.682 25.2224 283.126 30.9015 282.495 30.1111C284.573 32.4584 286.324 35.0756 287.701 37.8916C297.697 58.2822 296.616 87.7762 292.294 110.191C290.76 117.155 288.81 124.021 286.453 130.752L286.461 130.734C284.127 137.507 281.396 144.138 278.284 150.591L278.291 150.575C267.202 172.701 249.597 192.304 252.788 212.583C251.378 210.952 249.938 209.347 248.468 207.769C248.262 206.559 248.118 205.338 248.036 204.113L248.032 204.035C247.716 198.379 248.151 192.706 249.326 187.164C249.33 187.149 249.332 187.133 249.333 187.118C249.337 187.113 249.34 187.107 249.34 187.101C250.596 180.929 253.896 174.089 256.687 168.393L256.679 168.41C260.021 161.68 265.285 152.64 270.426 141.108C274.734 131.535 278.199 121.605 280.782 111.43M164.204 298.973C159.674 299.256 157.348 299.545 152.529 297.806C149.461 296.713 146.621 295.064 144.152 292.941C147.524 293.005 163.934 290.679 179.573 284.094C217.749 267.924 230.763 240.394 248.203 235.06L248.219 235.053C247.885 235.147 251.187 234.051 253.318 234.524C253.699 235.016 254.09 235.501 254.484 235.982C250.521 235.163 244.779 239.097 241.681 242.066C237.668 245.91 236.403 249.171 228.515 257.721L228.522 257.717C222.322 264.287 218.042 269.04 210.736 275.025C205.142 279.612 199.285 283.869 193.195 287.774C193.195 287.774 193.203 287.769 193.205 287.767C189.219 290.259 185.101 292.535 180.868 294.583C179.88 295.065 173.176 297.781 168.878 298.501L168.897 298.498C168.665 298.612 165.129 298.911 164.204 298.974M142.562 291.583L142.5 291.532C162.125 288.51 174.628 281.226 185.62 275.283C195.289 270.07 202.343 266.859 216.244 255.358C216.223 255.378 216.2 255.394 216.18 255.414C222.13 250.508 228.204 244.385 241.287 236.208L241.249 236.228C243.807 234.641 246.171 233.292 249.115 232.785C249.861 232.665 251.231 232.527 251.681 233.135C238.989 233.564 228.219 249.134 213.351 261.506C213.371 261.487 213.396 261.469 213.416 261.449C207.569 266.201 201.461 270.625 195.121 274.698C190.542 277.408 185.823 279.875 180.984 282.087C165.098 289.112 147.622 292.002 142.562 291.583ZM273.499 81.04C274.468 65.0032 275.09 42.7298 265.032 30.0752C263.486 28.0418 261.581 26.3085 259.41 24.961C259.467 24.9651 259.522 24.9661 259.578 24.9709C260.934 25.097 262.257 25.4627 263.485 26.0508C268.688 30.9437 268.572 31.0125 268.518 30.9622C271.084 33.8226 273.254 37.0139 274.971 40.4508C275.92 42.2799 276.733 44.1768 277.402 46.1259C276.83 44.3443 281.6 56.6413 282.792 73.3341C282.789 73.3039 282.788 73.276 282.784 73.246C283.157 79.1218 283.119 85.0167 282.671 90.8878L282.674 90.8791C282.674 90.8791 282.678 90.872 282.669 90.9593L282.669 90.9391C282.001 100.106 280.867 108.63 276.18 122.669L276.176 122.678C276.174 122.684 276.172 122.69 276.168 122.695C276.165 122.713 276.157 122.73 276.154 122.749L276.158 122.74C273.176 131.333 269.739 139.761 265.861 147.989L265.877 147.952C255.447 168.954 244.383 183.789 246.978 206.148C246.914 206.079 247.012 206.183 246.76 205.919C246.346 204.275 246.083 202.597 245.972 200.905L245.974 200.923C245.865 198.685 245.869 196.444 245.986 194.206C245.987 194.178 245.991 194.152 245.992 194.122C246.603 185.124 248.408 176.246 251.359 167.721C252.976 163.005 263.123 135.711 265.034 130.122C265.031 130.129 265.028 130.136 265.025 130.143C265.049 130.077 265.072 130.012 265.092 129.943C264.989 130.23 265.191 129.657 265.296 129.347L265.286 129.381C270.511 113.789 272.515 97.2074 273.498 81.0377M257.867 97.2023C259.741 81.92 259.594 39.2204 250.468 26.7897C252.477 25.9935 254.562 25.4054 256.691 25.0346C256.747 25.13 256.827 25.2092 256.923 25.2645C257.02 25.3199 257.128 25.3495 257.239 25.3507C257.515 25.44 257.782 25.5518 258.04 25.6849C258.035 25.6828 257.657 25.4634 259.536 26.5403C259.176 26.307 270.612 31.9406 272.481 57.9956C272.48 57.9685 272.478 57.9371 272.477 57.9095C272.859 66.3161 272.729 74.7384 272.088 83.1298C271.317 94.3207 270.893 99.7053 268.876 109.873C268.871 109.882 268.872 109.893 268.869 109.902C267.652 116.307 266.065 122.637 264.117 128.859C264.085 128.93 264.066 129.009 264.037 129.083L264.044 129.067C263.895 129.496 263.797 129.768 263.828 129.699C263.824 129.707 263.821 129.715 263.817 129.724C263.824 129.709 263.825 129.706 263.817 129.724L263.806 129.749C254.252 157.295 241.515 183.596 245.07 204.203C243.717 202.834 242.343 201.485 240.962 200.144C238.919 196.606 237.719 192.645 237.453 188.568C237.438 188.356 237.438 188.235 237.439 188.402C237.32 186.497 237.32 184.587 237.441 182.682L237.442 182.693C237.714 178.429 239.508 168.473 239.34 169.554C240.171 165.732 241.223 161.962 242.491 158.262C248.036 141.45 253.869 129.782 257.857 97.2067M237.792 21.3563C241.403 20.9919 242.134 22.2242 243.152 22.4484C250.587 26.6224 252.813 32.2688 254.564 40.8227C255.873 47.4725 256.339 52.0038 257.009 60.785C257.638 70.6198 257.697 80.483 257.186 90.3252C256.481 101.051 253.272 119.407 251.809 125.241C250.624 129.979 247.018 141.26 246.552 142.677C246.562 142.63 242.145 155.3 242.131 155.343C238.097 167.35 233.275 185.717 238.25 197.51C237.754 197.097 237.336 196.597 237.018 196.035L237.026 196.045C235.472 193.712 234.384 191.101 233.819 188.355L233.82 188.364L233.818 188.352C233.818 188.352 233.815 188.345 233.815 188.344C233.816 188.344 233.782 188.175 233.773 188.127C233.813 188.406 233.168 186.22 233.569 179.458C233.566 179.476 233.566 179.496 233.564 179.515C234.42 165.849 240.581 153.119 247.83 114.734C247.831 114.718 247.839 114.688 247.842 114.669C247.88 114.476 247.914 114.28 247.953 114.086L247.95 114.093C252.575 89.8146 259.031 33.9513 237.795 21.3527M140.638 290.481C138.136 289.858 130.632 291.379 113.874 284.28C114.506 284.385 114.848 284.421 115.864 284.501C115.846 284.498 115.824 284.498 115.806 284.494C134.808 286.042 166.046 274.758 182.965 266.453C182.96 266.451 182.956 266.457 182.95 266.458C207.428 254.514 220.374 239.064 232.674 232.936C232.528 233.051 232.694 232.873 234.336 232.201C241.113 229.481 245.651 230.274 245.882 230.238C245.931 230.245 248.034 230.558 247.842 230.516C247.865 230.52 247.893 230.526 247.921 230.531C248.717 230.689 249.479 230.981 250.177 231.394C249.943 231.397 237.792 236.861 232.593 240.535C223.046 247.256 222.42 248.603 215.767 254.1C215.771 254.091 215.782 254.087 215.789 254.079C212.49 256.855 203.697 263.486 199.331 266.216L199.347 266.204C194.684 269.076 189.791 271.556 183.111 275.183C176.519 278.766 169.467 283.138 156.048 287.153L156.06 287.151C151.033 288.733 145.87 289.848 140.638 290.481ZM236.204 80.0027C237.105 64.6396 238.308 36.9253 225.057 21.6032C229.655 23.9967 231.152 22.5166 235.654 21.6599C238.888 23.2241 241.621 25.6596 243.544 28.6923C244.193 29.7055 244.783 30.7556 245.31 31.8371C245.007 31.2213 247.125 34.8178 249.245 44.4547L249.25 44.47C249.251 44.4839 249.256 44.5 249.258 44.5154C250.043 48.6334 250.574 52.7957 250.85 56.9789C250.85 56.9789 250.852 56.9741 250.847 56.969C251.721 70.2052 251.001 76.5039 250.937 80.6714C249.847 98.6526 247.613 108.711 244.494 125.262L244.497 125.256L244.493 125.277C244.286 125.808 245.278 123.918 236.87 156.708C233.642 169.078 229.511 183.679 234.227 193.675C232.097 191.665 232.615 192.158 229.814 189.553C229.749 189.289 229.588 189.267 228.834 188.131C228.838 188.137 228.842 188.143 228.847 188.149C226.863 184.981 225.494 181.467 224.811 177.792C224.398 175.773 224.104 173.731 223.929 171.677C223.798 169.424 223.832 167.165 224.029 164.918C224.025 164.943 224.025 164.972 224.022 164.996C224.483 157.785 224.96 152.283 227.824 137.041L227.823 137.057C229.758 127.057 234.664 106.179 236.205 80.0038M99.6769 276.624C103.031 277.564 106.004 278.337 105.408 278.129C116.144 280.456 123.665 279.985 139.905 276.69C180.511 268.364 197.867 252.842 222.908 236.035L222.912 236.027L222.941 236.009C225.096 234.602 227.334 233.328 229.644 232.193C229.632 232.201 229.619 232.205 229.607 232.213C231.679 231.206 233.816 230.338 236.004 229.615L235.99 229.622C237.536 229.091 239.118 228.672 240.725 228.371C240.661 228.382 240.692 228.374 240.736 228.367L240.729 228.365C247.413 227.177 248.239 228.983 249.629 229.485L249.857 229.805C245.758 228.078 237.451 228.456 229.639 233.124C216.799 240.805 206.232 253.426 182.491 265.261C182.323 265.34 182.157 265.424 181.989 265.505L182.011 265.497C174.44 269.09 166.671 272.249 158.741 274.958C159.979 274.354 147.906 279.164 135.03 281.637C135.002 281.64 134.983 281.648 134.963 281.651C131.314 282.388 127.628 282.919 123.92 283.243C123.928 283.243 123.936 283.243 123.944 283.244C121.29 283.438 118.626 283.435 115.973 283.234L115.882 283.224L115.89 283.228C114.897 283.165 113.911 283.023 112.94 282.801C107.225 281.543 103.045 278.62 99.6691 276.623M231.181 74.2258C229.114 48.1883 220.661 19.277 196.465 9.46976C197.256 9.49734 208.474 11.7092 214.666 15.0505C215.199 15.8865 222.67 18.6311 227.607 27.4887C229.135 30.268 230.397 33.1854 231.377 36.202C231.383 36.2277 231.391 36.2528 231.401 36.2774C232.383 39.1774 233.194 42.1324 233.83 45.1272C234.482 48.5596 234.926 52.0284 235.158 55.5146C235.516 63.319 235.454 71.1371 234.974 78.9353C234.976 78.91 234.977 78.882 234.981 78.855C231.753 130.618 215.398 164.71 226.288 186.271C224.926 185.118 223.862 183.654 223.187 182.002C222.712 180.996 222.296 179.962 221.943 178.907C221.513 177.638 221.155 176.347 220.87 175.038C220.874 175.053 220.876 175.069 220.877 175.085C220.877 175.085 220.865 175.009 220.863 175.004C220.197 171.837 219.918 168.601 220.032 165.367C220.267 156.99 233.766 107.441 231.191 74.2187M181.655 13.0351C181.797 12.9472 182.503 12.5068 182.342 12.6048C184.932 10.68 189.476 9.7896 192.884 9.54602C193.109 9.61545 193.534 9.74963 193.644 9.78346C199.251 11.9829 198.972 11.9869 198.972 11.9869C200.855 12.9038 202.676 13.9421 204.423 15.0954C208.893 18.3164 212.679 22.3912 215.562 27.0842C217.633 30.2121 219.492 33.475 221.127 36.8512L221.12 36.8394C222.464 39.6524 223.626 42.5491 224.598 45.5116C224.609 45.5373 224.617 45.5636 224.624 45.5904C224.625 45.5897 224.625 45.5888 224.626 45.5879C224.626 45.5869 224.626 45.5859 224.627 45.5848C225.765 49.0413 226.695 52.563 227.412 56.1309C228.712 62.564 229.583 69.0761 230.022 75.6247C230.403 81.3783 230.378 87.1526 229.95 92.9033C229.445 101.065 227.223 121.062 225.616 129.557L225.623 129.542L225.61 129.604C225.612 129.602 225.613 129.6 225.613 129.598L225.616 129.591C220.66 154.947 215.158 167.629 221.877 182.199C218.823 179.386 217.563 178.22 214.979 175.809C214.466 174.945 213.985 174.06 213.542 173.162L213.546 173.171L213.519 173.116C212.417 170.842 211.475 168.495 210.697 166.092C209.418 162.353 208.657 158.456 208.436 154.51C208.451 154.612 208.28 151.973 208.534 147.142L208.532 147.148C209.559 129.53 214.743 112.735 213.326 92.201C212.019 72.834 201.129 34.9401 193.736 23.7392C193.752 23.7614 193.766 23.7848 193.784 23.81C191.023 19.6397 186.484 14.3456 181.66 13.0345M194.784 34.7904C190.807 26.5754 186.219 19.5855 179.005 14.271C180.719 12.7555 189.093 16.7111 195.127 28.7994L195.139 28.8218L195.144 28.8328C197.316 33.6442 199.219 38.5726 200.844 43.5951C200.842 43.5839 200.836 43.5699 200.834 43.5587C211.803 77.0697 212.048 91.0748 212.009 91.6817C212.057 92.4491 212.062 92.3422 212.044 92.2583C212.359 96.736 212.386 101.229 212.125 105.711C210.728 133.817 201.524 150.825 212.104 173.126C208.992 170.212 208.973 170.38 207.281 167.931C206.046 165.952 205.056 163.83 204.334 161.612C203.643 159.508 203.218 157.327 203.069 155.118L203.071 155.133C202.924 152.424 202.942 149.709 203.125 147.003C203.12 147.013 203.122 147.027 203.119 147.038C204.574 125.115 216.059 78.5477 195.056 35.3646L195.065 35.3797L194.779 34.7914M68.8164 260.118C68.908 260.153 88.14 265.571 96.2789 266.216C102.123 266.732 107.995 266.865 113.857 266.614C113.854 266.612 113.851 266.611 113.849 266.61C121.882 265.988 129.877 264.94 137.799 263.469C137.812 263.468 137.826 263.464 137.839 263.459C137.846 263.463 138.303 263.374 138.32 263.371C138.29 263.374 138.263 263.382 138.233 263.385C185.266 254.501 207.591 237.912 219.112 232.211L219.133 232.202C219.152 232.194 219.171 232.186 219.188 232.176C219.213 232.166 219.234 232.152 219.258 232.141L219.231 232.156C219.362 232.089 219.496 232.027 219.628 231.96L219.6 231.975C223.61 229.993 227.734 228.25 231.951 226.756L231.962 226.753C232.118 226.702 232.273 226.649 232.426 226.596L232.41 226.602C235.365 225.563 238.442 224.915 241.565 224.675C242.962 224.563 244.367 224.632 245.746 224.88C245.762 224.887 245.781 224.888 245.797 224.891C246.094 224.943 246.379 225.049 246.638 225.204C247.099 225.872 247.562 226.539 248.024 227.205C241.408 225.086 229.971 230.18 223.926 233.875C220.877 235.737 220.046 236.578 210.972 242.941C206.369 246.168 204.108 247.637 204.375 247.468C204.366 247.474 204.357 247.48 204.348 247.485C204.401 247.448 204.026 247.692 204.013 247.71C189.887 257.006 178.357 264.05 160.415 270.07L160.489 270.045C154.778 272.31 142.201 274.969 136.229 276.119L136.237 276.116C136.225 276.12 136.162 276.131 136.152 276.137C131.065 277.154 125.92 277.852 120.747 278.229C120.793 278.238 115.167 278.943 105.768 276.912C106.467 277.088 99.8472 275.608 89.3941 272.111C89.3202 272.088 89.2423 272.08 89.1652 272.087C89.0881 272.095 89.0133 272.118 88.9452 272.155C86.3415 271.042 83.0391 269.308 83.8573 269.709C78.5702 266.962 73.5361 263.754 68.8135 260.123M63.9426 256.229C62.3852 254.937 60.8628 253.608 59.3884 252.226C69.5951 256.852 76.2839 258.178 82.6421 258.943C94.3785 260.372 112.247 259.328 112.305 259.339C117.015 258.711 142.609 258.782 173.78 244.54C207.844 228.969 218.107 218.681 236.931 220.066C236.931 220.066 236.936 220.068 236.937 220.068L237.012 220.073C238.209 220.177 239.399 220.354 240.574 220.604C240.557 220.596 240.538 220.595 240.52 220.59C241.782 220.853 243.018 221.234 244.209 221.726C244.636 222.331 245.062 222.938 245.487 223.546C234.009 221.756 215.855 232.97 219.037 230.836C202.413 239.012 202.248 241.706 179.53 250.503C175.41 252.096 171.395 253.469 171.18 253.528C160.322 257.031 149.269 259.899 138.078 262.117C138.149 262.107 138.102 262.117 138.055 262.123L137.995 262.134C137.951 262.14 137.517 262.225 137.476 262.235C137.502 262.229 137.532 262.225 137.559 262.218C129.831 263.644 122.037 264.677 114.204 265.313L114.189 265.314C114.04 265.32 113.897 265.33 113.745 265.34C113.725 265.342 113.699 265.344 113.68 265.345C107.912 265.597 102.135 265.465 96.3852 264.951C96.3346 264.947 96.2301 264.939 96.0339 264.919C96.0617 264.925 96.0889 264.923 96.1175 264.929C91.757 264.62 87.4226 264.017 83.1437 263.124C78.8109 262.094 74.5387 260.825 70.347 259.321C70.3673 259.328 70.387 259.337 70.4057 259.347C68.1299 258.581 65.9585 257.534 63.9415 256.231M54.2047 245.939C60.6984 249.212 78.8413 252.866 95.4414 251.978C103.245 251.557 125.182 249.078 138.719 246.48L138.708 246.484C138.896 246.447 139.083 246.413 139.269 246.379C139.266 246.377 139.263 246.376 139.26 246.375C139.316 246.365 139.373 246.354 139.427 246.343C160.512 242.331 182.073 236.267 201.261 227.01C213.306 221.186 216.983 220.156 216.918 220.198L216.943 220.19C219.152 219.45 221.403 218.841 223.684 218.363L223.628 218.373C223.653 218.367 223.683 218.365 223.709 218.358C223.709 218.358 223.709 218.358 223.713 218.36C225.922 217.931 228.157 217.646 230.402 217.506C231.762 217.426 233.125 217.426 234.484 217.507L234.456 217.503C236.672 217.699 240.505 218.375 242.235 219.686C222.211 216.318 213.35 223.491 189.465 235.619C189.461 235.623 189.455 235.626 189.449 235.627C188.888 235.912 169.664 245.507 156.746 249.879L156.756 249.875C149.763 252.105 142.638 253.895 135.421 255.237L135.432 255.233C134.679 255.372 134.923 255.334 134.833 255.346C133.863 255.82 114.336 258.448 112.307 258.06C112.28 258.063 112.259 258.064 112.288 258.062C103.631 258.494 94.9571 258.484 86.3011 258.03C82.8063 257.737 79.3305 257.251 75.8897 256.574L75.8976 256.577C69.8725 255.121 64.0181 253.034 58.4311 250.352C57.762 250.005 57.1129 249.622 56.4871 249.202C56.5109 249.213 56.5343 249.233 56.5566 249.245C55.4655 248.396 54.6479 247.245 54.205 245.936M151.955 22.2745C155.529 19.3091 159.428 16.7601 163.579 14.6766L163.558 14.6865C169.56 12.0861 175.497 13.9656 176.204 13.9381C188.048 21.0773 194.198 36.5097 193.617 35.3215C195.489 39.0873 197.084 42.9842 198.39 46.9816C198.392 46.9768 198.385 46.967 198.383 46.9617C200.626 53.6962 202.452 60.5625 203.851 67.5217C206.389 80.4021 206.828 93.4856 206.108 106.553C206.112 106.544 206.11 106.53 206.113 106.52C204.396 133.485 197.767 152.512 204.948 166.435C203.406 165.001 201.865 163.566 200.326 162.131C200.244 160.727 192.674 156.191 188.552 143.971C188.552 143.971 188.552 143.971 188.556 143.979C187.962 142.196 187.469 140.381 187.08 138.542C186.289 134.518 186.025 130.409 186.293 126.316C186.642 122.554 187.18 118.812 187.906 115.104L187.896 115.137L187.907 115.081C187.933 115.047 190.266 104.162 191.245 99.0407C191.278 98.8502 191.318 98.664 191.352 98.4731L191.348 98.4826C193.318 88.1594 193.986 78.4501 191.576 67.6011C189.411 57.8526 184.292 48.8445 182.434 46.534C182.427 46.5145 182.182 46.1525 182.172 46.1328L182.249 46.2563C181.021 44.3602 168.352 25.5368 151.956 22.2674M184.463 99.4874C184.676 62.3279 164.258 32.0173 144.032 22.8917C145.655 23.1781 147.31 23.2416 148.951 23.0804C149.009 23.1568 149.085 23.2179 149.173 23.2587C149.26 23.2995 149.356 23.3187 149.452 23.3147C149.452 23.3147 149.448 23.313 149.443 23.3109C152.796 23.5804 156.067 24.4818 159.083 25.9675L159.078 25.9654C159.092 25.9714 159.11 25.9795 159.13 25.9887C159.122 25.9851 159.115 25.9816 159.111 25.9798C165.084 28.96 171.357 34.8431 175.789 39.8646C175.762 39.8289 175.778 39.5752 181.226 47.0169C181.254 47.0598 181.271 47.0901 181.295 47.1228C184.276 51.504 186.679 56.2513 188.444 61.2473C189.336 63.8823 190.066 66.5693 190.63 69.2935C191.127 71.8907 191.474 74.5143 191.67 77.1514C191.862 80.3077 191.867 83.4727 191.684 86.6297C191.688 86.6039 191.688 86.5764 191.691 86.5494C191.411 90.6843 190.838 94.7944 189.978 98.849C186.411 117.341 180.086 135.079 191.656 153.467C191.581 153.386 191.135 152.905 191.257 153.026C189.896 151.452 188.626 149.801 187.453 148.083C187.444 148.069 187.434 148.056 187.427 148.043C187.351 147.928 186.826 147.125 186.352 146.321C185.335 144.515 184.483 142.621 183.807 140.662C183.8 140.635 183.791 140.608 183.781 140.583C183.179 138.828 182.673 137.042 182.266 135.232C182.266 135.232 182.263 135.237 182.269 135.242C181.765 132.578 181.594 129.862 181.759 127.156L181.762 127.103C181.765 127.095 184.41 106.037 184.46 99.4883M42.1647 232.431C40.8342 230.785 39.8801 230.071 37.9069 227.682C42.4666 230.947 47.597 233.332 53.0343 234.714C75.4076 240.778 93.9041 237.173 116.593 232.281L116.572 232.285L121.892 231.153L121.883 231.154C121.938 231.142 122.004 231.129 122.013 231.127C122.022 231.126 122.013 231.127 122.018 231.129L122.088 231.11C123.665 230.768 135.029 228.248 135.151 228.217L135.177 228.212C135.182 228.214 173.749 220.431 174.791 220.204C180.538 218.939 199.065 214.497 198.793 214.554C198.82 214.547 198.85 214.543 198.876 214.536C197.067 214.925 225.272 208.078 237.831 213.123C239.027 214.653 240.201 216.2 241.354 217.763C226.849 211.646 205.207 223.866 197.028 227.63C187.601 231.954 177.796 235.193 176.88 235.513C176.787 235.51 151.222 243.489 139.134 245.111C139.134 245.111 139.139 245.113 139.143 245.115C139.147 245.117 138.653 245.208 138.645 245.206L138.613 245.213C138.607 245.214 138.6 245.215 138.594 245.217C138.56 245.222 138.523 245.229 138.49 245.238C138.419 245.247 115.298 249.499 95.5049 250.702L95.5231 250.7C95.4135 250.707 95.3066 250.713 95.1977 250.718L95.2024 250.72L95.1722 250.722C89.9133 250.973 84.6433 250.835 79.4051 250.31C79.4051 250.31 79.4098 250.312 79.4171 250.309C71.5823 249.672 59.0101 247.282 53.4007 244.053C52.4887 242.211 51.3373 241.881 48.6752 239.989C48.6626 239.983 48.6535 239.971 48.6427 239.964C44.8298 237.083 44.851 235.766 42.1762 232.437M37.7078 217.339C38.1332 217.552 57.2584 227.91 99.4412 220.609C121.083 216.863 126.751 214.796 134.554 212.735C148.56 209.033 160.282 206.505 159.519 206.667C159.546 206.66 159.576 206.656 159.603 206.65C172.258 204.057 185.058 202.228 197.933 201.174C197.955 201.173 197.983 201.17 198.009 201.167C205.66 200.584 215.145 200 223.032 201.451C223.028 201.449 223.023 201.447 223.019 201.445C224.063 201.658 225.092 201.935 226.102 202.274C227.664 202.79 229.167 203.469 230.586 204.3C231.588 205.46 232.576 206.632 233.552 207.814C221.429 201.589 201.253 202.869 187.745 204.266C152.593 207.914 140.811 214.505 110.692 220.997L110.773 220.976C109.766 221.193 109.69 221.196 109.878 221.171C94.715 224.354 80.5626 226.573 65.2313 225.816L65.2258 225.813C65.2275 225.814 65.2299 225.815 65.2313 225.816C53.8776 225.087 48.9454 222.956 48.5025 222.872C48.4992 222.869 48.4946 222.867 48.4898 222.867C44.6131 221.644 40.9725 219.773 37.7231 217.332M34.7734 223.271C33.6751 221.048 35.6226 219.32 35.049 216.688C53.7142 235.775 106.939 223.217 110.132 222.421C112.911 222.007 155.447 210.957 158.086 210.263C173.721 206.994 196.402 203.661 212.775 204.573L212.78 204.575C212.78 204.575 212.795 204.575 212.804 204.578C212.8 204.576 212.796 204.574 212.793 204.578C220.162 205.019 225.763 205.487 232.518 208.719C232.513 208.717 232.508 208.715 232.504 208.713C232.518 208.719 232.539 208.729 232.554 208.735C232.453 208.69 235.58 210.282 236.386 211.281C224.581 207.976 205.998 211.475 193.669 214.397C193.615 214.41 173.294 219.211 174.45 218.962C174.422 218.969 174.394 218.975 174.366 218.979C175.499 218.737 146.379 224.543 121.805 229.859L121.817 229.856C121.7 229.882 121.37 229.953 121.092 230.009C121.213 229.992 122.094 229.802 110.948 232.189L110.965 232.186C90.1193 236.607 65.3355 240.061 44.9452 230.402C43.1919 229.54 41.4947 228.569 39.8636 227.495C39.8802 227.502 39.8963 227.515 39.9158 227.524C38.0356 226.315 36.3045 224.889 34.758 223.275M163.999 108.076C162.421 90.8328 160.834 76.5214 153.19 61.9255C150.703 57.1886 143.021 44.3902 139.208 40.3312C138.414 39.1903 134.173 34.7474 128.053 31.0753C124.568 28.8378 120.47 27.7477 116.332 27.9582C119.072 26.4159 119.139 25.9627 122.559 24.4247L122.532 24.4383C133.732 19.5484 139.303 22.1213 144.802 24.6539C161.241 32.6686 171.81 51.0751 178.541 68.0756L178.537 68.0607C179.471 70.9239 180.235 73.8396 180.825 76.7927L180.828 76.7871C181.856 82.561 182.594 88.3828 183.04 94.2307C183.04 94.2155 183.039 94.1977 183.039 94.183C183.235 97.2774 183.237 100.381 183.045 103.476L183.044 103.455C182.392 113.497 180.613 122.078 180.45 127.729C180.258 135.77 182.687 143.654 187.37 150.191C183.627 146.844 180.51 144.138 177.188 141.297C177.092 140.991 176.896 140.969 175.924 139.873C175.926 139.874 175.929 139.875 175.931 139.876C175.919 139.862 175.883 139.822 175.873 139.811C176.056 139.994 175.02 138.804 174.849 138.626C172.93 136.666 171.367 134.387 170.231 131.891L170.199 131.825L170.203 131.831C169.002 129.287 167.963 126.669 167.093 123.994C166.294 121.432 165.639 118.828 165.131 116.193C164.606 113.512 164.228 110.804 163.999 108.081M132.077 40.7343C128.169 35.9007 123.101 31.4043 117.067 30.0181C116.069 29.7895 115.058 29.6266 114.051 29.4484C114.774 29.358 115.364 29.3015 115.896 29.2628L115.887 29.259C115.903 29.2592 115.919 29.2583 115.934 29.2561L115.928 29.2533C115.975 29.2476 115.972 29.2482 115.934 29.2561C118.233 29.0878 120.542 29.3429 122.748 30.0087L122.744 30.0069C127.584 31.6336 130.681 34.3827 133.986 36.9051C135.521 38.2416 136.962 39.6825 138.298 41.2175C143.078 46.798 150.219 58.684 153.298 64.9478C166.044 91.5673 158.43 115.538 170.67 135.38C169.08 133.964 167.565 132.467 166.131 130.894C158.096 121.655 156.964 107.848 157.217 110.461C154.823 98.3553 156.316 70.7586 132.078 40.7296M22.4722 193.783C30.0251 203.982 43.106 205.997 55.5601 207.2C69.99 208.576 77.7733 207.011 90.7922 204.819C110.105 201.571 114.686 200.544 134.821 196.918C149.043 194.353 154.773 193.981 164.196 192.286C199.665 185.915 198.893 187.423 198.836 187.42C202.481 187.644 206.112 188.059 209.714 188.663L209.718 188.664C209.745 188.671 209.77 188.674 209.797 188.68L209.769 188.676C211.514 189.062 213.236 189.549 214.925 190.134C218.199 191.418 217.283 189.463 228.328 201.752C217.909 197.413 196.063 199.871 184.689 201.279C151.547 205.386 136.327 211.66 115.284 216.26L115.365 216.239C93.9097 220.835 82.5938 221.671 81.9189 221.707C76.0248 222.135 70.1098 222.196 64.2085 221.888L64.2213 221.887C64.2077 221.886 64.1941 221.885 64.1807 221.882C59.6528 221.653 55.1456 221.118 50.6899 220.282C48.4223 219.833 46.1828 219.253 43.9828 218.545C43.9714 218.538 43.9594 218.533 43.9471 218.529C43.9851 218.546 43.9582 218.534 43.9305 218.521C43.9249 218.519 43.9091 218.512 43.9257 218.519C42.0488 217.88 40.2139 217.124 38.4316 216.256C38.4554 216.267 38.4791 216.277 38.5036 216.295C37.5288 215.828 36.5865 215.296 35.6832 214.702C35.6623 214.686 35.6404 214.67 35.6175 214.656C33.1584 213.043 31.0617 210.936 29.46 208.47C29.4038 208.403 23.5937 197.365 22.4767 193.77M21.3518 187.899C21.2938 187.539 21.2336 187.182 21.1678 186.821C28.0464 195.657 43.3037 198.293 54.5241 198.922C54.4962 198.923 54.4658 198.921 54.439 198.921C87.2641 200.644 102.396 192.707 158.318 185.786C175.193 183.714 194.273 180.954 210.64 186.45C210.631 186.446 210.627 186.445 210.62 186.441C211.926 186.863 213.202 187.374 214.439 187.969C214.461 187.979 214.48 187.987 214.494 187.994C214.486 187.99 214.475 187.985 214.463 187.98C214.583 188.04 214.701 188.103 214.821 188.165C215.158 188.472 215.489 188.776 215.822 189.084C195.662 182.186 182.037 188.702 150.463 193.098C126.166 196.485 82.1742 206.45 65.8545 206.413C61.1737 206.397 56.4984 206.094 51.8549 205.507C44.2506 204.632 39.7548 203.944 32.8314 200.647C32.8284 200.646 32.8255 200.644 32.8226 200.643C32.8048 200.636 32.7873 200.628 32.7703 200.62L32.7608 200.615C30.6174 199.5 28.6044 198.151 26.7588 196.593L26.775 196.607C26.7663 196.603 26.7597 196.595 26.7528 196.589C25.0235 195.038 23.5456 193.228 22.3717 191.224C21.9692 190.474 21.7178 189.653 21.6318 188.807C21.6335 188.805 21.6349 188.803 21.6358 188.801C21.6368 188.799 21.6372 188.797 21.6371 188.795L21.6399 188.788C21.6399 188.788 21.6399 188.788 21.6428 188.782L21.6526 188.76C21.6906 188.685 21.7128 188.602 21.7179 188.518C21.723 188.434 21.711 188.35 21.6826 188.271C21.6541 188.192 21.6098 188.119 21.5524 188.057C21.495 187.996 21.4256 187.947 21.3485 187.913M20.1522 182.591C19.6485 180.978 19.0606 179.391 18.391 177.839C38.0676 197.505 95.3093 184.361 121.615 180.456C130.794 179.066 144.013 177.857 151.419 177.281C156.232 176.907 178.454 175.791 184.752 176.142C184.724 176.142 184.694 176.14 184.667 176.139C196.652 176.847 202.526 179.394 202.253 179.27C202.294 179.289 202.37 179.308 202.321 179.294C206.502 180.707 206.116 180.332 211.971 185.587C194.304 179.173 170.298 182.628 144.722 186.276C125.071 189.105 127.583 188.17 104.918 192.929C83.477 197.365 68.5473 198.29 54.3881 197.657C54.4161 197.656 54.4465 197.659 54.4732 197.658C50.7907 197.451 47.1251 197.01 43.4986 196.339C40.5392 195.792 37.6181 195.055 34.7532 194.134C33.0329 193.575 31.3505 192.905 29.7164 192.13C28.8541 191.712 28.0145 191.249 27.2011 190.743C27.2249 190.754 27.2483 190.774 27.2706 190.786C24.6628 189.051 21.1672 185.544 20.1577 182.592M80.8194 33.2353C80.8221 33.2363 80.8248 33.2375 80.8273 33.2389L80.8194 33.2353ZM127.68 74.9464C121.733 57.7479 100.165 32.2426 80.1379 31.9376C79.0612 31.9247 77.9867 31.9433 76.9096 31.972C87.5595 25.5668 97.3672 26.1209 96.2321 26.1476C99.1451 26.0447 102.048 26.5457 104.757 27.6192L104.744 27.6135C113.193 30.7487 110.026 29.9825 115.814 31.0506C121.12 32.373 121.851 33.3987 123.915 34.5803C123.46 34.2833 125.867 35.5577 129.473 39.598L129.466 39.5948C132.18 42.7571 134.697 46.0822 137.005 49.5515L137.01 49.5536C142.222 57.752 146.457 66.5315 149.629 75.7135L149.621 75.6929C150.796 79.2285 151.787 82.8227 152.59 86.4609C152.594 86.4882 152.604 86.5294 152.606 86.5378L152.6 86.5051C155.216 99.777 154.122 117.861 164.367 130.774C157.732 125.488 150.775 120.619 143.536 116.194C143.58 115.739 143.248 115.599 142.729 115.146C142.736 115.149 142.744 115.159 142.75 115.166C140.985 113.553 139.422 111.732 138.094 109.745C136.594 107.431 135.403 104.931 134.551 102.308C134.754 102.899 133.658 100.162 131.812 91.093L131.821 91.1442C130.782 85.662 129.398 80.2509 127.677 74.9434M72.5597 34.6634C73.2647 34.2176 73.9712 33.7757 74.6792 33.3376C75.7985 33.2612 78.853 33.1694 80.7892 33.2305L80.7433 33.2271C80.7621 33.2271 80.781 33.2282 80.7997 33.2304C80.803 33.2323 80.8064 33.2338 80.81 33.235C82.1426 33.3283 83.469 33.494 84.7835 33.7313L84.7691 33.7296C91.8417 35.2056 96.6317 38.7502 98.5172 39.8773C97.2407 39.039 109.347 46.4668 119.249 61.4171C119.235 61.3937 119.219 61.3715 119.205 61.3473C125.375 70.8188 126.78 76.2156 126.752 76.2033L126.756 76.2125C128.278 80.9165 129.496 85.7133 130.403 90.5735L130.398 90.5559C132.197 99.6732 133.717 107.23 139.768 113.972C135.963 111.786 132.959 110.245 128.74 108.117C125.658 105.19 123.114 101.746 121.223 97.9409L121.214 97.9219C117.768 90.6866 116.609 80.3708 112.375 71.6864L112.382 71.6981C107.746 62.028 100.31 51.0343 92.1334 43.8707C92.1405 43.8739 92.1488 43.8852 92.1553 43.8919C87.0791 39.4513 79.3142 35.6515 72.5541 34.6694M13.3162 162.284C15.5196 176.54 48.8551 180.662 63.1602 180.822C71.616 180.845 80.0647 180.319 88.4529 179.248C104.056 177.506 111.31 176.506 161.635 172.646C161.581 172.645 182.584 170.135 200.18 176.061C200.176 176.059 200.17 176.056 200.167 176.055C200.249 176.083 200.325 176.112 200.403 176.139C201.3 176.826 202.193 177.515 203.081 178.207C189.678 173.603 177.702 174.438 155.486 175.712C138.842 176.678 122.277 178.709 105.893 181.794C88.4776 184.944 64.7292 186.962 65.8531 186.814C60.0082 187.197 54.1464 187.243 48.2966 186.953C48.3053 186.957 48.3211 186.955 48.3306 186.957C48.3038 186.958 48.2756 186.953 48.248 186.953C44.9186 186.799 41.605 186.402 38.3339 185.764C38.326 185.761 38.3163 185.761 38.3065 185.76C34.0994 184.942 30.0114 183.603 26.1376 181.771C26.1432 181.774 26.1487 181.776 26.1543 181.779C25.0829 181.246 24.0465 180.645 23.0513 179.981C20.4249 178.255 18.1593 176.035 16.3805 173.445C16.374 173.439 16.3689 173.432 16.3655 173.424C16.3898 173.464 16.4179 173.503 16.4495 173.538C16.4714 173.489 11.7844 165.836 13.3184 162.288M15.6579 153.019C20.7403 160.641 39.6691 168.963 65.2423 169.673C97.2208 170.513 117.62 163.603 156.584 160.401L156.578 160.398C156.594 160.398 156.621 160.395 156.643 160.393L156.638 160.391C165.247 159.735 173.001 159.721 181.713 161.3C187.282 165.935 192.322 169.937 197.518 173.923C177.055 168.19 157.796 171.924 130.693 174.026C128.747 174.171 120.22 174.667 118.582 174.836L118.587 174.839C113.648 175.184 77.551 179.082 77.6086 179.076C70.7797 179.521 63.9322 179.605 57.0948 179.327C57.0885 179.325 57.0391 179.323 57.0166 179.322C47.8848 178.708 38.8543 177.048 30.1024 174.376C30.1062 174.377 30.1099 174.379 30.1135 174.38C24.7306 172.556 18.0875 169.835 15.4399 164.73C15.5458 164.953 15.2528 164.374 14.931 163.514C14.1311 161.127 14.787 160.152 14.648 159.769C14.7885 159.479 14.9161 159.206 15.0316 158.947C15.9803 157.119 16.1995 155.001 15.6447 153.019M16.8189 137.092C17.8441 144.761 24.6584 150.532 31.6435 153.923C31.4319 153.829 32.0258 154.111 32.1029 154.149C63.3183 169.25 128.24 151.878 154.984 153.356C154.981 153.354 154.979 153.353 154.976 153.352C162.193 153.776 169.346 154.691 176.213 156.976L176.189 156.966C176.392 157.032 176.672 157.139 176.87 157.215C177.288 157.575 179.219 159.222 179.769 159.684C142.275 154.06 100.163 172.772 53.4771 167.527C37.0021 165.661 27.4929 160.198 27.6404 160.31C19.6405 156.317 17.5029 154.143 15.306 149.889L15.3193 149.917C14.3781 148.13 13.8022 146.173 13.6252 144.161C13.6296 144.19 13.6305 144.218 13.6342 144.248C13.4971 142.498 15.2349 140.535 16.8246 137.09M55.7715 47.0077C57.3483 45.8003 58.4822 44.8477 60.2914 43.3745C60.2886 43.3809 60.2786 43.384 60.2754 43.3892C63.5873 40.5617 67.1238 38.0081 70.8499 35.7537C71.631 35.8268 72.4106 35.9287 73.1777 36.0695L73.169 36.0657C96.8162 40.59 109.555 68.3831 111.322 72.5943C111.248 72.4009 111.154 72.1524 111.041 71.8459L111.074 71.9146C117.287 84.5658 115.831 95.429 125.273 106.372C109.853 98.6393 105.632 97.9581 97.8442 92.5014C97.7522 92.3613 97.6348 92.2395 97.4981 92.1425C96.5411 91.2922 95.6454 90.3753 94.8179 89.3987C90.5322 84.4498 88.0168 78.1622 84.6549 72.6807C81.7748 68.0972 78.5561 63.7352 75.0255 59.6312C68.6133 52.2236 61.7354 48.3722 55.7668 47.0075M18.5018 132.73C19.2427 130.018 19.6987 127.236 19.8624 124.429C29.7113 154.486 92.8625 147.358 120.464 145.169C121.665 145.206 145.569 142.348 158.054 144.761C158.027 144.755 157.998 144.75 157.967 144.743C159.992 145.128 161.99 145.644 163.948 146.287C164.131 146.35 164.829 146.59 165.557 146.862C169.418 150.529 170.749 151.813 174.469 155.109C143.83 146.525 101.631 161.107 58.7801 158.79C58.7849 158.792 58.796 158.791 58.8019 158.79L58.7252 158.786C58.7252 158.786 58.7204 158.784 58.7164 158.782C54.1467 158.56 49.5992 158.007 45.1102 157.126L45.1387 157.13C40.6529 156.253 36.3036 154.785 32.2047 152.764L32.2165 152.77C30.5784 151.939 28.9916 151.012 27.4645 149.992C22.7853 146.791 17.8074 141.331 18.0295 135.735L18.03 135.755C18.1764 133.297 18.8657 133.28 18.4968 132.723M20.4291 117.887C23.7616 124.583 27.8987 127.959 34.7004 131.286C51.3209 139.389 69.1042 139.6 84.7864 138.899C85.9248 138.763 117.562 135.86 118.294 135.791C118.3 135.792 118.307 135.791 118.313 135.789C124.499 135.306 130.706 135.158 136.907 135.345L136.913 135.347C136.921 135.349 136.93 135.35 136.939 135.349C140.93 135.595 144.902 136.086 148.832 136.82C148.86 136.825 148.888 136.831 148.913 136.835C148.908 136.833 148.9 136.829 148.893 136.832C151.764 137.36 154.591 138.103 157.35 139.056C159.358 140.942 161.35 142.847 163.342 144.749C147.117 139.621 112.075 145.496 86.8444 146.268C65.0147 146.905 53.4723 144.506 52.7056 144.339C52.7159 144.343 52.7307 144.344 52.7469 144.348C48.8862 143.564 45.0758 142.551 41.3362 141.313C41.3306 141.311 41.2766 141.293 41.2604 141.287C34.0034 139.065 27.6779 134.524 23.255 128.361C21.0453 125.342 20.0379 121.61 20.4284 117.889M20.7351 115.341C21.0892 112.498 21.2008 111.657 21.3315 110.197C24.1531 115.512 31.2844 118.812 36.9964 120.718C40.6428 121.941 44.3735 122.897 48.159 123.579L48.155 123.577C48.1677 123.583 48.206 123.587 48.2251 123.591C48.4649 123.636 48.7073 123.691 48.4938 123.642C68.7662 127.028 83.1518 124.899 103.307 123.287C103.312 123.286 103.318 123.286 103.324 123.287L103.713 123.255C109.443 122.752 115.203 122.694 120.941 123.082C120.924 123.074 120.893 123.077 120.984 123.082L120.979 123.08C120.979 123.08 120.988 123.084 120.994 123.081C121 123.078 121.264 123.094 121.364 123.102L121.396 123.104C125.609 123.236 129.804 123.712 133.939 124.529C137.233 125.283 140.484 126.216 143.676 127.324C147.679 130.345 151.514 133.581 155.165 137.018C143.545 133.614 129.674 133.4 117.728 134.558C118.816 134.493 108.699 135.352 108.637 135.355C86.9895 137.158 82.4299 138.654 66.8637 137.836C62.8035 137.637 58.7628 137.148 54.7725 136.374C50.8406 135.585 46.9621 134.552 43.1595 133.279L43.169 133.284C40.4971 132.392 37.8766 131.353 35.3195 130.172C35.3266 130.175 35.3314 130.177 35.3393 130.181C35.3139 130.17 35.2965 130.162 35.2735 130.152L35.2664 130.149C33.5999 129.367 31.9869 128.476 30.4382 127.482C30.4547 127.491 30.4702 127.502 30.4843 127.515C30.4726 127.541 23.3378 123.142 20.7397 115.348M21.6615 102.552C32.8947 120.124 89.3693 113.844 99.5478 115.362C106.348 115.779 108.641 116.388 124.166 119.347C123.898 119.311 128.7 120.146 134.594 121.802C135.753 122.127 135.808 121.934 140.296 124.922C138.277 124.249 136.218 123.699 134.133 123.276C126.79 121.857 115.066 121.089 103.229 122.02C97.6024 122.417 78.5616 124.787 60.2928 123.869C60.3429 123.868 60.269 123.865 60.2259 123.866C56.2474 123.575 52.2886 123.061 48.368 122.326C44.7571 121.655 41.1939 120.75 37.7008 119.617C37.7126 119.622 37.7229 119.627 37.7338 119.626C37.6846 119.611 37.5991 119.583 37.4925 119.545C37.4798 119.54 37.464 119.533 37.4521 119.527C37.4434 119.524 37.435 119.52 37.4268 119.516C34.1316 118.303 31.3804 117.382 28.3568 115.387C26.4897 113.96 24.7398 112.386 23.1239 110.681C21.4089 108.195 21.4355 106.561 21.5988 103.715C21.6008 103.734 21.5981 103.751 21.5997 103.771L21.6101 103.568C21.6101 103.568 21.607 103.576 21.6107 103.582L21.6138 103.494C21.6138 103.494 21.6113 103.5 21.6155 103.505C21.6317 103.185 21.6455 102.865 21.6566 102.546M30.858 78.8835C36.6554 88.6589 51.8358 91.6613 63.1398 92.3029L63.1311 92.2991C65.1385 92.4392 69.9917 92.5978 69.2078 92.6032C72.4783 92.7732 75.7343 93.1524 78.956 93.7383C78.9434 93.7327 78.9322 93.7343 78.9188 93.7303C80.8933 94.0907 82.8414 94.5826 84.7501 95.2028C84.7438 95.2 84.8167 95.2239 84.823 95.2267C84.6284 95.1648 85.358 95.3897 87.0878 96.0631C88.4017 97.065 89.7801 97.9795 91.214 98.8008C87.8405 98.2278 83.0307 97.9356 82.915 97.9439C82.911 97.9422 82.9102 97.9418 82.9063 97.9401C80.1856 97.7921 76.353 97.8615 72.8759 97.864C60.1735 97.8846 57.3495 97.4677 56.1879 97.475L56.0104 97.4644L55.9271 97.4615L55.9438 97.4604C55.7088 97.4508 55.6775 97.4445 55.6235 97.4442C50.6922 97.2863 45.7994 96.5227 41.0553 95.1706C38.085 94.1668 35.2949 92.6943 32.7908 90.8088L32.798 90.812C30.0983 88.3822 29.2599 85.777 29.3993 84.6697C29.4238 84.5914 29.4814 84.4642 29.5606 84.2887L29.6312 84.1303C30.3784 82.4791 30.7961 80.6983 30.8609 78.8876M21.6649 98.5739C22.5705 95.1936 23.7571 95.8694 28.4317 86.615C29.9205 91.2862 34.5415 94.0342 39.1308 95.8266C44.4927 97.9199 50.1565 98.4049 55.8743 98.7346L55.8617 98.7289L56.1125 98.7456C68.1856 99.4596 77.4517 98.9348 82.8305 99.2114C82.8186 99.2095 82.8067 99.2086 82.7947 99.2087C82.8241 99.2066 82.9241 99.2207 83.1805 99.2313C83.1718 99.2274 83.1649 99.2301 83.1552 99.2286C83.1639 99.2325 83.1707 99.2298 83.1805 99.2313C83.1853 99.2334 83.192 99.2355 83.2 99.2324C86.1196 99.3827 89.0272 99.7104 91.9068 100.214C91.858 100.2 91.8981 100.21 91.9385 100.219C95.6559 100.904 91.8094 99.6569 112.81 110.001C120.403 113.746 125.38 116.082 131.74 119.719C126.569 118.413 117.814 116.827 118.824 117.062C87.9029 111.01 91.6416 115.588 57.3148 113.458C33.4754 111.906 26.5589 106.003 26.5945 106.027C26.1716 105.722 25.7523 105.418 25.3568 105.085C24.8671 104.71 21.7262 101.538 21.6691 98.573M263.677 241.178C257.697 239.372 249.292 224.512 240.884 213.571C230.263 199.64 217.907 187.121 204.116 176.316C203.767 175.838 185.045 162.425 168.893 147.098C153.985 132.948 148.328 127.013 135.489 119.434C121.9 111.413 103.597 103.695 92.743 97.2257C80.7619 90.0702 74.7096 77.4925 50.4806 68.1063C45.3944 66.1422 45.0069 66.0914 35.9811 61.5248C38.3506 62.0452 38.9489 62.2154 38.6567 62.1254C66.4814 68.6632 70.8258 73.6676 93.4017 91.7984C105.596 101.564 121.1 104.732 144.235 119.133C168.612 134.3 193.943 159.155 214.506 178.289C227.787 190.655 238.979 200.772 245.694 207.888C250.725 213.216 264.893 229.319 266.708 236.444C267.013 237.347 268.037 239.141 266.082 240.766C265.942 240.68 265.786 240.625 265.623 240.604C265.623 240.604 265.631 240.607 265.636 240.609C264.944 240.618 264.268 240.814 263.679 241.177M33.4317 58.8069C33.1746 58.4377 33.0162 58.009 32.9713 57.5613C32.9264 57.1137 32.9966 56.6619 33.1752 56.2489C33.7894 54.694 35.3989 53.784 36.8318 53.2681C37.6647 52.9598 38.5317 52.7533 39.4141 52.6531C45.3704 51.9385 49.5601 51.5088 54.3778 48.0384C55.3919 48.2202 56.3925 48.4705 57.3727 48.7876C63.9405 50.7187 70.4168 55.78 74.1173 60.5313C74.0965 60.5098 74.0805 60.4884 74.0597 60.4668C85.494 73.7145 86.5478 80.378 92.057 87.9582C70.1167 69.8927 63.2278 65.001 33.4317 58.8069ZM33.815 80.7975C32.3647 79.1173 31.2409 77.1813 30.5013 75.0888C29.8737 72.5688 29.0857 71.2949 29.0145 68.6854C28.9704 66.1174 28.7635 63.9231 30.0367 62.483L30.0343 62.4885L30.0454 62.4764L30.0412 62.4859L30.072 62.455C30.0992 62.4196 30.1332 62.3816 30.072 62.455C31.1102 61.4038 31.1324 61.614 31.5391 61.4513C38.6493 66.1064 54.118 71.4827 59.6496 74.6585C63.2981 76.6319 66.8067 78.8532 70.1507 81.3067C75.7728 85.5364 80.0918 89.9781 84.2783 93.7051C79.491 92.3731 74.5684 91.5847 69.6038 91.3547L69.4738 91.3482C69.5711 91.343 69.4207 91.3416 69.3671 91.3406L69.3631 91.3388C69.3479 91.3368 69.3331 91.3359 69.3175 91.3346C69.3308 91.3368 69.3442 91.338 69.3577 91.3383C67.4001 91.227 65.4418 91.158 63.4834 91.0463C63.4834 91.0463 63.4922 91.0502 63.4961 91.052C53.3326 90.3396 40.7254 88.3165 33.8149 80.7936M27.4743 62.5658C26.7625 64.1626 26.9007 65.904 26.8833 67.7708C26.8444 70.9406 27.3538 71.934 28.2185 74.8062L28.2466 74.9136C28.9001 76.9566 28.954 79.1442 28.402 81.2175C27.8032 83.5261 24.8788 89.005 23.6229 91.0005C21.5716 94.2225 20.1165 95.6103 19.5624 98.2254C19.0257 100.789 19.7638 104 19.1731 110.581C19.1719 110.605 19.1679 110.646 19.1607 110.694C19.1601 110.68 19.1639 110.669 19.1636 110.655C18.9597 112.536 18.6878 114.53 18.3921 117.073C18.3485 117.144 18.321 117.224 18.3115 117.307C18.3021 117.39 18.3109 117.474 18.3374 117.553C17.976 120.816 17.5015 126.543 17.6088 125.762C17.6043 125.817 17.606 125.795 17.596 125.884L17.5928 125.891C17.0509 131.073 16.1509 134.337 12.974 139.83C12.7726 140.048 12.6263 140.311 12.5476 140.598C11.0769 143.375 11.2339 145.085 12.0584 147.973C14.4906 156.618 14.4362 155.477 11.6166 160.893C9.05879 165.707 13.9954 173.115 16.1596 178.059C16.1547 178.044 16.1501 178.035 16.1459 178.021C16.1594 178.053 16.1756 178.087 16.1887 178.119C16.1899 178.125 16.1917 178.131 16.1942 178.137L16.1894 178.134C17.0267 180.004 17.7282 181.931 18.2886 183.901C18.2863 183.883 18.2803 183.862 18.278 183.844L18.3036 183.94C18.7409 185.541 19.0874 187.165 19.3413 188.805L19.3301 188.728C19.3371 188.762 19.3405 188.796 19.3455 188.83C19.2329 188.263 19.6526 195.686 25.589 206.517C27.3663 209.491 29.3929 212.308 31.6469 214.939C31.615 214.904 31.5885 214.868 31.5567 214.833C31.9265 215.278 32.2706 215.743 32.5873 216.227C33.9523 218.58 31.4036 220.216 32.6383 223.715C33.6851 226.692 39.7936 232.888 40.576 233.852C43.633 237.775 43.5587 239.192 48.7613 242.635C49.9426 243.419 50.7596 243.835 51.2982 244.655C51.4569 244.939 51.6004 245.231 51.7283 245.53C52.7838 247.693 52.2281 248.441 57.4929 253.368C57.5031 253.448 60.6438 256.337 64.6736 259.58C82.2658 273.734 93.6878 275.785 96.7211 277.396C99.4194 278.853 111.463 287.01 125.367 290.622C131.152 292.129 137.772 292.348 139.53 292.471C139.792 292.548 140.061 292.597 140.334 292.618C141.629 293.204 143.788 296.295 149.737 298.95C156.69 302.042 165.409 302.006 174.521 303.433C179.205 304.173 181.604 304.85 181.058 304.685C181.105 304.694 181.252 304.728 181.171 304.713C184.898 305.606 203.357 311.448 217.55 307.394C229.568 303.931 245.215 293.866 253.057 286.924C260.577 280.278 267.046 271.302 266.509 261.366C265.836 248.528 256.701 249.929 264.441 243.44C265.023 243.455 265.591 243.262 266.044 242.896C267.056 242.848 268.054 242.633 268.995 242.258C272.874 240.799 273.754 239.434 275.521 237.959C279.74 234.589 280.303 237.428 286.122 240.755C300.701 249.095 317.169 245.367 325.529 238.615C327.972 236.529 330.234 234.241 332.293 231.776C334.37 229.385 336.292 226.866 338.048 224.232C339.791 221.423 341.332 218.495 342.661 215.469L342.667 215.457C350.361 198.195 353.296 176.911 353.666 175.655C353.666 175.655 353.669 175.648 353.67 175.645C353.71 175.289 353.748 174.931 353.791 174.575C353.78 174.552 353.767 174.531 353.752 174.51C354.992 165.964 357.602 147.538 357.344 138.958C357.381 138.83 357.375 138.694 357.327 138.571C356.798 123.24 356.961 122.817 355.596 116.959C354.066 110.382 352.745 108.142 351.512 104.038C350.485 100.504 350.113 97.0741 349.242 92.1041C349.203 91.8808 348.416 87.3371 348.249 87.0578C347.058 82.836 345.495 78.7282 343.579 74.7823C331.178 48.6494 319.953 47.1784 313.076 42.4716C309.729 40.0519 306.811 36.0652 301.524 31.7339L301.509 31.7074C301.006 31.2415 300.464 30.8186 299.889 30.443C279.359 15.5814 271.573 25.1816 266.631 24.8827C263.95 24.5218 260.427 20.99 252.298 23.9855C251.654 24.2953 250.972 24.5213 250.27 24.6582C249.063 24.4013 245.479 19.2342 239.111 19.1446C235.257 19.0814 231.722 20.6335 229.839 20.7594C225.259 20.8105 222.519 16.2263 212.234 11.435C209.671 10.1928 207.001 9.18148 204.258 8.4132C195.98 6.32317 187.567 7.42237 182.916 9.82501C180.744 10.9544 180.154 11.6908 178.84 11.9615C175.083 12.4439 168.482 7.98313 157.34 15.8503C150.615 20.5926 151.794 22.0368 141.141 20.2404C120.847 16.8353 117.382 28.7411 109.494 27.0771C105.773 26.0866 101.888 23.0194 92.5683 24.3302C87.4104 24.9247 82.4128 26.4971 77.8434 28.9629C56.4726 40.6501 55.8899 47.9136 43.6753 49.9413C40.0297 50.5029 34.707 50.4923 32.0006 54.0294C31.5037 54.6581 31.1559 55.391 30.9832 56.1732C30.8106 56.9554 30.8176 57.7664 31.0038 58.5452C30.7558 58.6169 30.5379 58.7675 30.3832 58.9742C30.2286 59.1809 30.1456 59.4323 30.1469 59.6903C29.5581 60.0226 29.0252 60.4454 28.5678 60.9432C28.118 61.4111 27.7515 61.9523 27.4842 62.5436L27.4743 62.5658Z" fill="white"/>
</mask>
<g mask="url(#mask1_55_1011)">
<path d="M-69.2176 -54.5999L-25.1458 390.966L433.636 345.456L389.565 -100.11L-69.2176 -54.5999Z" fill="#AC845D"/>
</g>
<mask id="mask2_55_1011" style="mask-type:luminance" maskUnits="userSpaceOnUse" x="69" y="92" width="1" height="1">
<path d="M69.4665 92.6009C69.4626 92.5992 69.3977 92.5978 69.3801 92.5967C69.4105 92.5988 69.4406 92.6017 69.4665 92.6009Z" fill="white"/>
</mask>
<g mask="url(#mask2_55_1011)">
<path d="M69.3759 92.5704L69.3826 92.6377L69.4689 92.6291L69.4623 92.5619L69.3759 92.5704Z" fill="#AC845D"/>
</g>
<mask id="mask3_55_1011" style="mask-type:luminance" maskUnits="userSpaceOnUse" x="33" y="92" width="1" height="1">
<path d="M33.5335 92.9229C33.5248 92.919 33.5153 92.9148 33.5058 92.9106C33.5438 92.936 33.5737 92.9541 33.5335 92.9229Z" fill="white"/>
</mask>
<g mask="url(#mask3_55_1011)">
<path d="M33.4969 92.9038L33.5022 92.9573L33.5816 92.9494L33.5763 92.8959L33.4969 92.9038Z" fill="#AC845D"/>
</g>
<mask id="mask4_55_1011" style="mask-type:luminance" maskUnits="userSpaceOnUse" x="55" y="97" width="1" height="1">
<path d="M55.9834 97.4358L55.9529 97.4348C55.963 97.4363 55.9732 97.4366 55.9834 97.4358Z" fill="white"/>
</mask>
<g mask="url(#mask4_55_1011)">
<path d="M55.9509 97.4247L55.9534 97.4493L55.9842 97.4463L55.9817 97.4217L55.9509 97.4247Z" fill="#AC845D"/>
</g>
<mask id="mask5_55_1011" style="mask-type:luminance" maskUnits="userSpaceOnUse" x="33" y="92" width="1" height="1">
<path d="M33.2853 92.7575C33.2726 92.7518 33.2617 92.7422 33.2493 92.7338L33.2853 92.7575Z" fill="white"/>
</mask>
<g mask="url(#mask5_55_1011)">
<path d="M33.2179 92.7199L33.2244 92.7854L33.3219 92.7757L33.3154 92.7102L33.2179 92.7199Z" fill="#AC845D"/>
</g>
<mask id="mask6_55_1011" style="mask-type:luminance" maskUnits="userSpaceOnUse" x="103" y="123" width="1" height="1">
<path d="M103.377 123.271C103.367 123.27 103.357 123.271 103.347 123.273C103.347 123.273 103.374 123.27 103.377 123.271Z" fill="white"/>
</mask>
<g mask="url(#mask6_55_1011)">
<path d="M103.346 123.262L103.348 123.286L103.377 123.283L103.375 123.259L103.346 123.262Z" fill="#AC845D"/>
</g>
<mask id="mask7_55_1011" style="mask-type:luminance" maskUnits="userSpaceOnUse" x="37" y="120" width="1" height="1">
<path d="M37.3369 120.808C37.3091 120.796 37.2933 120.788 37.2809 120.789C37.2991 120.797 37.3173 120.805 37.3369 120.808Z" fill="white"/>
</mask>
<g mask="url(#mask7_55_1011)">
<path d="M37.2549 120.774L37.2598 120.823L37.3375 120.815L37.3326 120.766L37.2549 120.774Z" fill="#AC845D"/>
</g>
<mask id="mask8_55_1011" style="mask-type:luminance" maskUnits="userSpaceOnUse" x="118" y="135" width="1" height="1">
<path d="M118.235 135.79C118.237 135.792 118.239 135.793 118.241 135.793L118.235 135.79Z" fill="white"/>
</mask>
<g mask="url(#mask8_55_1011)">
<path d="M118.224 135.788L118.225 135.796L118.235 135.795L118.235 135.787L118.224 135.788Z" fill="#AC845D"/>
</g>
<mask id="mask9_55_1011" style="mask-type:luminance" maskUnits="userSpaceOnUse" x="16" y="167" width="1" height="1">
<path d="M16.137 167.895C16.2269 167.996 16.1857 167.96 16.137 167.895V167.895Z" fill="white"/>
</mask>
<g mask="url(#mask9_55_1011)">
<path d="M16.1085 167.897L16.1194 168.007L16.2541 167.993L16.2432 167.884L16.1085 167.897Z" fill="#AC845D"/>
</g>
<mask id="mask10_55_1011" style="mask-type:luminance" maskUnits="userSpaceOnUse" x="21" y="188" width="1" height="1">
<path d="M21.637 188.742C21.6508 188.724 21.6531 188.705 21.637 188.742V188.742Z" fill="white"/>
</mask>
<g mask="url(#mask10_55_1011)">
<path d="M21.6331 188.707L21.6367 188.744L21.6614 188.742L21.6577 188.705L21.6331 188.707Z" fill="#AC845D"/>
</g>
<mask id="mask11_55_1011" style="mask-type:luminance" maskUnits="userSpaceOnUse" x="120" y="230" width="1" height="1">
<path d="M120.961 230.022C120.941 230.026 120.919 230.029 120.9 230.034L120.961 230.022Z" fill="white"/>
</mask>
<g mask="url(#mask11_55_1011)">
<path d="M120.893 229.991L120.901 230.067L120.984 230.058L120.977 229.982L120.893 229.991Z" fill="#AC845D"/>
</g>
<mask id="mask12_55_1011" style="mask-type:luminance" maskUnits="userSpaceOnUse" x="218" y="221" width="2" height="1">
<path d="M219.048 221.256L218.968 221.283C218.995 221.276 219.022 221.267 219.048 221.256Z" fill="white"/>
</mask>
<g mask="url(#mask12_55_1011)">
<path d="M218.962 221.224L218.971 221.32L219.069 221.31L219.06 221.214L218.962 221.224Z" fill="#AC845D"/>
</g>
<mask id="mask13_55_1011" style="mask-type:luminance" maskUnits="userSpaceOnUse" x="231" y="225" width="1" height="1">
<path d="M231.617 225.536C231.6 225.541 231.584 225.547 231.568 225.553L231.617 225.536Z" fill="white"/>
</mask>
<g mask="url(#mask13_55_1011)">
<path d="M231.526 225.515L231.534 225.595L231.615 225.587L231.607 225.507L231.526 225.515Z" fill="#AC845D"/>
</g>
<mask id="mask14_55_1011" style="mask-type:luminance" maskUnits="userSpaceOnUse" x="186" y="302" width="1" height="1">
<path d="M186.358 302.643C186.338 302.642 186.318 302.642 186.298 302.644C186.32 302.643 186.339 302.644 186.358 302.643Z" fill="white"/>
</mask>
<g mask="url(#mask14_55_1011)">
<path d="M186.273 302.615L186.279 302.682L186.36 302.674L186.354 302.607L186.273 302.615Z" fill="#AC845D"/>
</g>
<mask id="mask15_55_1011" style="mask-type:luminance" maskUnits="userSpaceOnUse" x="234" y="282" width="1" height="1">
<path d="M234.421 282.452C234.433 282.431 234.443 282.409 234.451 282.386L234.387 282.51L234.42 282.451" fill="white"/>
</mask>
<g mask="url(#mask15_55_1011)">
<path d="M234.374 282.391L234.387 282.52L234.467 282.512L234.454 282.383L234.374 282.391Z" fill="#AC845D"/>
</g>
<mask id="mask16_55_1011" style="mask-type:luminance" maskUnits="userSpaceOnUse" x="139" y="113" width="1" height="1">
<path d="M139.288 113.441L139.278 113.43C139.281 113.434 139.284 113.437 139.288 113.441Z" fill="white"/>
</mask>
<g mask="url(#mask16_55_1011)">
<path d="M139.275 113.43L139.277 113.444L139.294 113.442L139.293 113.428L139.275 113.43Z" fill="#AC845D"/>
</g>
<mask id="mask17_55_1011" style="mask-type:luminance" maskUnits="userSpaceOnUse" x="216" y="25" width="1" height="1">
<path d="M216.169 25.7587L216.192 25.7938C216.167 25.753 216.146 25.7209 216.146 25.7217C216.145 25.7225 216.152 25.7331 216.169 25.7587Z" fill="white"/>
</mask>
<g mask="url(#mask17_55_1011)">
<path d="M216.122 25.7233L216.13 25.8L216.215 25.7916L216.208 25.7148L216.122 25.7233Z" fill="#AC845D"/>
</g>
<mask id="mask18_55_1011" style="mask-type:luminance" maskUnits="userSpaceOnUse" x="236" y="188" width="1" height="1">
<path d="M236.198 188.534L236.192 188.47C236.194 188.521 236.201 188.585 236.198 188.534Z" fill="white"/>
</mask>
<g mask="url(#mask18_55_1011)">
<path d="M236.141 188.477L236.152 188.592L236.25 188.582L236.238 188.467L236.141 188.477Z" fill="#AC845D"/>
</g>
</g>
</g>
</g>
<defs>
<clipPath id="clip0_55_1011">
<rect width="262" height="319" fill="white"/>
</clipPath>
</defs>
</svg>
