<svg width="24" height="24" viewBox="0 0 24 24" fill="none" xmlns="http://www.w3.org/2000/svg">
<g clip-path="url(#clip0_789_458)">
<path d="M12.5985 19.4473L11.7464 20.1483L10.6815 19.8595C10.0036 19.6758 9.13331 19.3542 8.22691 18.7955L7.2373 19.7851C7.79718 21.4372 9.11198 22.7837 10.8339 22.7837C11.9199 22.7837 12.9274 22.2379 13.6708 21.2469C14.5399 20.0881 14.868 18.5565 14.7159 17.1166C14.1271 17.9916 13.4164 18.7744 12.5985 19.4473Z" fill="black"/>
<path d="M6.05452 16.9379L0 22.9924L1.00751 23.9999L7.06199 17.9455C6.69362 17.6297 6.36509 17.3002 6.05452 16.9379Z" fill="black"/>
<path d="M11.4092 18.5806C11.5047 18.4655 13.2595 17.3117 14.3429 14.8543L12.2481 12.7593L10.9815 14.026L9.9739 13.0184L11.2406 11.7517L9.18211 9.69293C6.88928 10.7325 5.78949 12.2041 5.41504 12.5747C5.49269 12.7718 5.78702 14.6211 7.43405 16.3391C9.20718 18.1888 11.2255 18.505 11.4092 18.5806Z" fill="black"/>
<path d="M20.6193 10.0293C20.0256 9.43557 19.9641 8.85661 19.9192 8.43376C19.8838 8.1002 19.866 7.93283 19.6285 7.69531C19.391 7.45783 19.2236 7.44007 18.8901 7.40464C18.4673 7.35975 17.8883 7.29829 17.2946 6.70461C16.701 6.11092 16.6394 5.53195 16.5946 5.10911C16.5591 4.7756 16.5414 4.60818 16.3038 4.37065C16.0664 4.13318 15.899 4.11542 15.5654 4.07998C15.1426 4.0351 14.5636 3.97364 13.97 3.37995C13.9651 3.37511 13.9823 3.39853 13.4034 2.77539C12.7432 3.87186 12.4705 5.16187 12.6422 6.45269L9.71387 8.20972L15.7897 14.2861L17.5472 11.3572C18.8513 11.5307 20.1547 11.2508 21.2586 10.5756C20.7643 10.1629 20.7419 10.1518 20.6193 10.0293Z" fill="black"/>
<path d="M18.3952 0.000244141C18.2602 0.0284087 16.1139 -0.146325 14.2944 1.6459C15.1696 2.5834 14.9358 2.33068 14.9777 2.37257C15.2151 2.61005 15.3825 2.62781 15.7161 2.66324C16.1389 2.70813 16.7179 2.76963 17.3115 3.36327C17.9052 3.95696 17.9667 4.53592 18.0116 4.95877C18.047 5.29228 18.0648 5.4597 18.3023 5.69723C18.5398 5.9347 18.7072 5.95246 19.0407 5.9879C19.4635 6.03278 20.0425 6.09428 20.6362 6.68792C21.2298 7.28161 21.2914 7.86062 21.3362 8.28343C21.3717 8.61693 21.3894 8.78435 21.627 9.02188C21.6885 9.08338 22.3877 9.66197 22.3926 9.66601C24.1363 7.86148 23.9711 5.74496 23.9999 5.60499L18.3952 0.000244141Z" fill="black"/>
</g>
<defs>
<clipPath id="clip0_789_458">
<rect width="24" height="24" fill="white"/>
</clipPath>
</defs>
</svg>
