<?xml version="1.0"?>
<svg xmlns="http://www.w3.org/2000/svg" id="Layer_1" data-name="Layer 1" viewBox="0 0 30 30"><path d="M26.312,5.91a3.832,3.832,0,0,0-2.5-2.74l-4.5-1.5a.478.478,0,0,0-.053-.006.725.725,0,0,0-.154-.031.164.164,0,0,0-.022,0l-.008,0H10.944l-.014,0c-.013,0-.024,0-.036,0a.7.7,0,0,0-.153.031.5.5,0,0,0-.054.006l-4.5,1.5a3.835,3.835,0,0,0-2.5,2.74L.3,20.322A1.77,1.77,0,0,0,2.02,22.5H4.014a1.765,1.765,0,0,0,1.715-1.34L6.1,19.684v5.9a2.792,2.792,0,0,0,2.788,2.788H21.115A2.792,2.792,0,0,0,23.9,25.58V19.687l.367,1.469a1.767,1.767,0,0,0,1.716,1.34H27.98A1.77,1.77,0,0,0,29.7,20.322ZM15,11.391,12,3.135h6.009ZM9.88,8.99l1.142-4.142,3.228,8.869V15.47L10.1,10.122A1.293,1.293,0,0,1,9.88,8.99Zm5.87,4.727,3.228-8.869L20.121,8.99a1.291,1.291,0,0,1-.225,1.132L15.75,15.47ZM7.6,25.58v-3.8H9.849a.75.75,0,0,0,0-1.5H7.6V13.593a.75.75,0,0,0-1.478-.182L4.274,20.792a.268.268,0,0,1-.26.2H2.02a.264.264,0,0,1-.211-.1.259.259,0,0,1-.051-.229L5.149,6.253A2.319,2.319,0,0,1,6.665,4.594L9.827,3.54,8.435,8.592a2.8,2.8,0,0,0,.484,2.45l5.331,6.877v8.949H8.886A1.29,1.29,0,0,1,7.6,25.58Zm20.593-4.686a.264.264,0,0,1-.211.1H25.986a.268.268,0,0,1-.26-.2l-1.845-7.381a.75.75,0,0,0-1.478.182V20.28H20.151a.75.75,0,1,0,0,1.5H22.4v3.8a1.29,1.29,0,0,1-1.288,1.288H15.75V17.919l5.332-6.878a2.8,2.8,0,0,0,.484-2.449L20.174,3.54l3.161,1.054a2.322,2.322,0,0,1,1.517,1.66l3.39,14.411A.259.259,0,0,1,28.191,20.894Z"/></svg>
