<svg width="20" height="20" viewBox="0 0 20 20" fill="none" xmlns="http://www.w3.org/2000/svg">
<path fill-rule="evenodd" clip-rule="evenodd" d="M8.45707 0.780594C9.22579 -0.214951 10.6147 -0.258226 11.4373 0.650741L11.5459 0.780594L15.4983 5.89864H18.4982C19.381 5.89864 20.0912 6.72133 19.9905 7.69371L19.898 8.52486L19.7976 9.32675L19.7151 9.92871L19.6196 10.5736L19.5107 11.252L19.3881 11.9546L19.2512 12.6718C19.1791 13.0326 19.1016 13.3953 19.0183 13.7547C18.7782 14.7911 18.4787 15.7415 18.1813 16.5568L17.9597 17.1423L17.7446 17.6724L17.5419 18.1427C17.5095 18.2158 17.4778 18.2863 17.447 18.3539L17.1968 18.8851C16.8742 19.5459 16.2683 19.9367 15.6257 19.993L15.4644 20H4.5274C3.83913 20 3.16236 19.6145 2.81016 18.9067L2.57597 18.4183L2.39528 18.0169C2.36384 17.9452 2.33181 17.871 2.29928 17.7946L2.09881 17.3081C1.72302 16.3667 1.30948 15.1567 0.984674 13.7547C0.929711 13.5175 0.877364 13.2804 0.827539 13.0446L0.685534 12.3422L0.558091 11.6547L0.444638 10.9892L0.344608 10.3526L0.257429 9.75207L0.182533 9.19466L0.0919717 8.4548L0.0258414 7.85164C0.0197797 7.7931 0.0141346 7.73753 0.00889466 7.68508C-0.0831734 6.76343 0.551326 5.98472 1.3639 5.9053L1.50089 5.89864H4.50464L8.45707 0.780594ZM7.95145 11.0204C7.81198 10.4985 7.32909 10.1608 6.8206 10.2523C6.31212 10.3438 5.95682 10.8322 5.98174 11.3746L5.99434 11.5006L6.49694 14.7547L6.52288 14.8783C6.66234 15.4002 7.14523 15.7378 7.65372 15.6464C8.16223 15.5549 8.51751 15.0665 8.49259 14.5241L8.47999 14.3981L7.97739 11.1439L7.95145 11.0204ZM13.1823 10.2523C12.6738 10.1608 12.1909 10.4985 12.0515 11.0204L12.0255 11.1439L11.5229 14.3981C11.4317 14.989 11.8016 15.5479 12.3492 15.6464C12.8577 15.7378 13.3406 15.4002 13.4801 14.8783L13.506 14.7547L14.0086 11.5006C14.0999 10.9096 13.73 10.3508 13.1823 10.2523ZM10.0015 2.16943L7.1216 5.89864H12.8814L10.0015 2.16943Z" fill="#9097A7"/>
</svg>
