<svg id="Line" height="512" viewBox="0 0 32 32" width="512" xmlns="http://www.w3.org/2000/svg" xmlns:svg="http://www.w3.org/2000/svg"><path id="XMLID_1035_" d="m26.993 2.885c-.057-.504-.485-.885-.993-.885h-20c-.508 0-.936.381-.993.885l-3 26c-.033.283.057.567.247.78.189.213.461.335.746.335h9c.453 0 .85-.305.966-.742l3.034-11.377 3.034 11.377c.116.437.513.742.966.742h9c.285 0 .557-.122.746-.334.19-.213.28-.497.247-.78zm-1.423 5.115.462 4c-2.297 0-4.032-1.841-4.032-4zm-.462-4 .231 2h-18.678l.231-2zm-18.678 4h3.57c0 2.156-1.732 4-4.032 4zm14.339 20-3.803-14.258c-.116-.437-.513-.742-.966-.742s-.85.305-.966.742l-3.803 14.258h-7.109l1.616-14c3.851 0 6.262-2.887 6.262-6h8c0 3.065 2.357 6 6.262 6l1.616 14z"/></svg>