<svg width="16" height="16" viewBox="0 0 16 16" fill="none" xmlns="http://www.w3.org/2000/svg">
<g clip-path="url(#clip0_644_2553)">
<path d="M10.0334 3.33365C10.6845 3.4607 11.2829 3.77917 11.752 4.24828C12.2212 4.7174 12.5396 5.31584 12.6667 5.96699M10.0334 0.666992C11.3862 0.817287 12.6477 1.42311 13.6109 2.385C14.574 3.34689 15.1814 4.60766 15.3334 5.96033M14.6667 11.2803V13.2803C14.6675 13.466 14.6294 13.6498 14.555 13.8199C14.4807 13.99 14.3716 14.1427 14.2348 14.2682C14.098 14.3938 13.9364 14.4894 13.7605 14.5488C13.5847 14.6083 13.3983 14.6304 13.2134 14.6137C11.1619 14.3908 9.19141 13.6898 7.46003 12.567C5.84926 11.5434 4.48359 10.1778 3.46004 8.56703C2.33335 6.82779 1.6322 4.84765 1.41337 2.78699C1.39671 2.60264 1.41862 2.41683 1.4777 2.24141C1.53678 2.06598 1.63175 1.90478 1.75654 1.76807C1.88134 1.63136 2.03324 1.52213 2.20256 1.44734C2.37189 1.37255 2.55493 1.33383 2.74004 1.33366H4.74004C5.06358 1.33047 5.37723 1.44505 5.62255 1.65601C5.86786 1.86698 6.02809 2.15996 6.07337 2.48033C6.15779 3.12037 6.31434 3.74881 6.54004 4.35366C6.62973 4.59227 6.64915 4.8516 6.59598 5.10091C6.5428 5.35022 6.41928 5.57906 6.24003 5.76033L5.39337 6.60699C6.34241 8.27599 7.72434 9.65799 9.39341 10.607L10.24 9.76031C10.4213 9.58111 10.6501 9.45759 10.8995 9.40439C11.1488 9.35119 11.408 9.37063 11.6467 9.46031C12.2516 9.68599 12.88 9.84255 13.52 9.92703C13.8439 9.97271 14.1397 10.1358 14.3511 10.3854C14.5625 10.6349 14.6748 10.9534 14.6667 11.2803Z" stroke="white" stroke-linecap="round" stroke-linejoin="round"/>
</g>
<defs>
<clipPath id="clip0_644_2553">
<rect width="16" height="16" fill="white"/>
</clipPath>
</defs>
</svg>
