<svg width="24" height="24" viewBox="0 0 24 24" fill="none" xmlns="http://www.w3.org/2000/svg">
<g clip-path="url(#clip0_832_1185)">
<path d="M11.9999 5.69597C12.7652 5.69597 13.3856 5.16325 13.3856 4.5061C13.3856 3.84895 12.7652 3.31622 11.9999 3.31622C11.2346 3.31622 10.6143 3.84895 10.6143 4.5061C10.6143 5.16325 11.2346 5.69597 11.9999 5.69597Z" fill="black"/>
<path d="M12.0005 9.96112C11.9516 9.96112 11.9034 9.95178 11.8593 9.9338L-0.00976562 5.09698V17.2154C-0.00924389 17.4628 0.0666239 17.7058 0.210306 17.9202C0.353988 18.1346 0.560486 18.313 0.809298 18.4377L12.0005 24.0242L23.1917 18.4377C23.4405 18.313 23.647 18.1346 23.7907 17.9202C23.9344 17.7058 24.0102 17.4628 24.0108 17.2154V5.09698L12.1417 9.9338C12.0976 9.95178 12.0493 9.96112 12.0005 9.96112Z" fill="black"/>
<path d="M-0.00976562 4.47099L12.0005 9.36532L24.0108 4.47099V-0.0241699H-0.00976562V4.47099ZM12.0005 2.75068C12.4048 2.75068 12.8 2.85363 13.1362 3.0465C13.4724 3.23938 13.7344 3.51352 13.8892 3.83427C14.0439 4.15502 14.0844 4.50796 14.0055 4.84848C13.9267 5.18899 13.732 5.50178 13.4462 5.74729C13.1603 5.9928 12.7961 6.16001 12.3995 6.22778C12.003 6.29555 11.592 6.26082 11.2184 6.128C10.8449 5.99518 10.5256 5.77023 10.3009 5.48158C10.0762 5.19294 9.95626 4.85357 9.95619 4.50639C9.95672 4.04094 10.1723 3.59467 10.5555 3.26551C10.9388 2.93636 11.4584 2.7512 12.0005 2.75068Z" fill="black"/>
</g>
<defs>
<clipPath id="clip0_832_1185">
<rect width="24" height="24" fill="white"/>
</clipPath>
</defs>
</svg>
