<svg width="30" height="25" viewBox="0 0 30 25" fill="none" xmlns="http://www.w3.org/2000/svg">
<path d="M14.9995 23.0391C14.8967 23.039 14.7957 23.0164 14.7065 22.9736C13.078 22.1927 11.7023 21.0928 10.6987 19.769C9.60068 18.3172 9.01674 16.6366 9.01416 14.9204V13.9438C9.01422 13.7227 9.19258 13.5292 9.44893 13.4722L14.8489 12.2725C14.9478 12.2505 15.0518 12.2505 15.1507 12.2725L20.5507 13.4731C20.8073 13.53 20.9859 13.7235 20.986 13.9448V14.9214C20.9835 16.6375 20.3995 18.3182 19.3015 19.77C18.2976 21.0938 16.9218 22.1937 15.2931 22.9746C15.2037 23.0172 15.1025 23.0395 14.9995 23.0391ZM10.186 14.3203V14.9204C10.1887 16.4529 10.7104 17.9537 11.6913 19.25C12.5311 20.3579 13.6623 21.2919 14.9995 21.9814C16.337 21.2921 17.4685 20.358 18.3083 19.25C19.2889 17.9536 19.8106 16.4529 19.8136 14.9204V14.3203L14.9995 13.2505L10.186 14.3203Z" fill="black"/>
<path d="M23.0656 25H6.93418C5.20016 24.9984 3.7949 23.8273 3.79297 22.3823V12.7324C3.79525 11.2876 5.20039 10.1168 6.93418 10.1152H23.0656C24.7994 10.1168 26.2046 11.2876 26.2068 12.7324V22.3823C26.2049 23.8273 24.7996 24.9984 23.0656 25ZM6.93418 11.0918C5.84715 11.0926 4.96613 11.8266 4.96484 12.7324V22.3823C4.96613 23.2882 5.84709 24.0224 6.93418 24.0234H23.0656C24.1527 24.0224 25.0337 23.2882 25.035 22.3823V12.7324C25.0337 11.8266 24.1527 11.0926 23.0656 11.0918H6.93418Z" fill="black"/>
<path d="M22.5864 11.0918H7.41357C7.08996 11.0918 6.82764 10.8732 6.82764 10.6035V6.81006C6.82764 3.05518 10.4938 0 14.9997 0C19.5056 0 23.1724 3.05518 23.1724 6.81006V10.6035C23.1724 10.8732 22.91 11.0918 22.5864 11.0918ZM7.99951 10.1152H22.0034V6.81006C21.968 3.58818 18.8051 1.00024 14.9388 1.02974C11.1225 1.05884 8.03736 3.62983 8.00244 6.81006L7.99951 10.1152Z" fill="black"/>
<path d="M20.2326 10.9292C19.909 10.9292 19.6467 10.7106 19.6467 10.4409V6.81006C19.6467 4.67129 17.5661 2.9375 14.9996 2.9375C12.4331 2.9375 10.3525 4.67129 10.3525 6.81006V10.4409C10.3525 10.7106 10.0902 10.9292 9.7666 10.9292C9.44299 10.9292 9.18066 10.7106 9.18066 10.4409V6.81006C9.18066 4.13198 11.7859 1.96094 14.9996 1.96094C18.2133 1.96094 20.8186 4.13198 20.8186 6.81006V10.4409C20.8186 10.7106 20.5562 10.9292 20.2326 10.9292Z" fill="black"/>
<path d="M14.3756 19.1763C14.2202 19.1762 14.0712 19.1247 13.9614 19.0332L12.7133 17.9932C12.4885 17.7992 12.4949 17.4901 12.7277 17.3027C12.9547 17.12 13.3147 17.12 13.5418 17.3027L14.3756 17.9976L16.4575 16.2627C16.6902 16.0753 17.0612 16.0807 17.286 16.2747C17.5053 16.4639 17.5053 16.7639 17.286 16.9531L14.7899 19.0332C14.68 19.1248 14.531 19.1762 14.3756 19.1763Z" fill="black"/>
</svg>
