<svg width="20" height="20" viewBox="0 0 20 20" fill="none" xmlns="http://www.w3.org/2000/svg">
<g clip-path="url(#clip0_547_8628)">
<path fill-rule="evenodd" clip-rule="evenodd" d="M12.1781 1.28914C12.1344 1.0282 11.9344 0.822578 11.6719 0.775703C10.5656 0.574766 9.43439 0.574766 8.32814 0.775703C8.06564 0.822578 7.86564 1.0282 7.82189 1.28914L7.57813 2.76977C7.24376 2.88196 6.91563 3.01758 6.60001 3.17508L5.38125 2.30039C5.16562 2.14633 4.87814 2.14383 4.65939 2.29445C3.73752 2.93477 2.93437 3.73633 2.29375 4.66039C2.14375 4.87758 2.14688 5.16602 2.3 5.38071L3.17502 6.60008C3.01877 6.91633 2.88125 7.24321 2.76875 7.57852L1.2875 7.82195C1.02813 7.86477 0.821875 8.06695 0.775 8.32695C0.575 9.43352 0.575 10.5666 0.775 11.6732C0.821875 11.9332 1.02813 12.1354 1.2875 12.1782L2.76875 12.422C2.88125 12.757 3.01877 13.0838 3.17502 13.4004L2.3 14.6195C2.14688 14.8341 2.14375 15.1226 2.29375 15.3398C2.93437 16.2638 3.73752 17.0654 4.65939 17.7057C4.87814 17.8563 5.16562 17.8538 5.38125 17.6998L6.60001 16.8251C6.91563 16.9826 7.24376 17.1182 7.57813 17.2304L7.82189 18.711C7.86564 18.972 8.06564 19.1776 8.32814 19.2245C9.43439 19.4254 10.5656 19.4254 11.6719 19.2245C11.9344 19.1776 12.1344 18.972 12.1781 18.711L12.4219 17.2304C12.7563 17.1182 13.0844 16.9826 13.4 16.8251L14.6188 17.6998C14.8344 17.8538 15.1219 17.8563 15.3406 17.7057C16.2625 17.0654 17.0656 16.2638 17.7063 15.3398C17.8563 15.1226 17.8531 14.8341 17.7 14.6195L16.825 13.4001C16.9812 13.0838 17.1188 12.757 17.2313 12.4216L18.7125 12.1782C18.9719 12.1354 19.1781 11.9332 19.225 11.6732C19.425 10.5666 19.425 9.43352 19.225 8.32695C19.1781 8.06695 18.9719 7.86477 18.7125 7.82195L17.2313 7.57821C17.1188 7.24321 16.9812 6.91633 16.825 6.59977L17.7 5.38071C17.8531 5.16602 17.8563 4.87758 17.7063 4.66039C17.0656 3.73633 16.2625 2.93477 15.3406 2.29445C15.1219 2.14383 14.8344 2.14633 14.6188 2.30039L13.4 3.17508C13.0844 3.01758 12.7563 2.88196 12.4219 2.76977L12.1781 1.28914ZM10 7.12508C11.5875 7.12508 12.875 8.4132 12.875 10.0001C12.875 11.587 11.5875 12.8751 10 12.8751C8.41251 12.8751 7.12502 11.587 7.12502 10.0001C7.12502 8.4132 8.41251 7.12508 10 7.12508Z" fill="#9097A7"/>
</g>
<defs>
<clipPath id="clip0_547_8628">
<rect width="20" height="20" fill="white"/>
</clipPath>
</defs>
</svg>
