<svg width="28" height="26" viewBox="0 0 28 26" fill="none" xmlns="http://www.w3.org/2000/svg">
<path d="M28 12.9151C28 12.5333 27.9152 12.1939 27.703 11.8545L25.1576 7.69695C24.7758 7.10301 24.097 6.72119 23.4182 6.72119H19.303C19.1333 6.72119 18.9636 6.84846 18.9212 6.97574C18.8788 7.01816 18.8788 7.10301 18.8788 7.14543V12.9151V16.3515C13.2364 16.3515 9.75758 16.3515 4.11516 16.3515C3.86061 16.3515 3.69092 16.5212 3.69092 16.7757V21.6545C3.69092 21.9091 3.86061 22.0788 4.11516 22.0788H7.29698C7.16971 23.8182 8.52728 25.2606 10.2243 25.2606C11.9212 25.2606 13.3212 23.8182 13.1515 22.0788H19.5152C19.3879 23.8182 20.7455 25.2606 22.4424 25.2606C24.1394 25.2606 25.5394 23.8182 25.3697 22.0788H27.5758C27.8303 22.0788 28 21.9091 28 21.6545C28 18.303 28 16.2666 28 12.9151ZM24.4364 8.12119L26.9818 12.2788C27.0243 12.3212 27.0243 12.406 27.0667 12.4909H19.7273V7.52725H23.4182C23.8424 7.52725 24.2242 7.73937 24.4364 8.12119ZM19.7273 13.3394H27.1515V16.3515H19.7273V13.3394ZM10.2243 24.4121C9.0788 24.4121 8.10304 23.4788 8.10304 22.3333C8.10304 21.1879 9.03637 20.2545 10.2243 20.2545C11.3697 20.2545 12.3455 21.1879 12.3455 22.3333C12.3455 23.4788 11.3697 24.4121 10.2243 24.4121ZM22.4424 24.4121C21.297 24.4121 20.3212 23.4788 20.3212 22.3333C20.3212 21.1879 21.2546 20.2545 22.4424 20.2545C23.5879 20.2545 24.5636 21.1879 24.5636 22.3333C24.5636 23.4788 23.6303 24.4121 22.4424 24.4121ZM27.1515 21.2303H25.2C24.7758 20.1273 23.7152 19.3636 22.4424 19.3636C21.2121 19.3636 20.1515 20.1273 19.6849 21.2303H12.9818C12.5576 20.1273 11.497 19.3636 10.2243 19.3636C8.99395 19.3636 7.93334 20.1273 7.46668 21.2303H4.49698V17.2H27.1091V21.2303H27.1515Z" fill="black"/>
<path d="M6.87249 5.74542C6.61794 5.74542 6.44824 5.91512 6.44824 6.16966V15.1212C6.44824 15.3757 6.61794 15.5454 6.87249 15.5454H17.4785C17.7331 15.5454 17.9028 15.3757 17.9028 15.1212C17.9028 13.5515 17.9028 9.43633 17.9028 6.16966C17.9028 5.91512 17.7331 5.74542 17.4785 5.74542C11.0725 5.74542 24.1816 5.74542 6.87249 5.74542ZM13.1513 6.59391V8.71512L12.4301 8.03633C12.2604 7.86663 12.0058 7.86663 11.8361 8.03633L11.1149 8.71512V6.59391H13.1513ZM10.3088 6.59391V7.73936H7.29673V6.59391H10.3088ZM7.29673 14.6969V8.58785H10.3088V9.69088C10.3088 9.86057 10.3937 10.0303 10.5634 10.0727C10.7331 10.1575 10.9028 10.1151 11.0301 9.98785L12.1755 8.88482L13.321 9.98785C13.4482 10.1151 13.6179 10.1575 13.7876 10.0727C13.9573 9.98785 14.0422 9.86057 14.0422 9.69088V8.58785H17.0543V14.6969H7.29673ZM17.0119 7.73936H13.9998V6.59391H17.0119V7.73936Z" fill="black"/>
<path d="M2.07903 4.34543H11.3699C11.6245 4.34543 11.7942 4.17574 11.7942 3.92119C11.7942 3.66665 11.6245 3.49695 11.3699 3.49695H2.07903C1.82448 3.49695 1.65479 3.66665 1.65479 3.92119C1.65479 4.17574 1.86691 4.34543 2.07903 4.34543Z" fill="black"/>
<path d="M3.26653 1.58786H14.4665C14.7211 1.58786 14.8908 1.41817 14.8908 1.16362C14.8908 0.909077 14.7211 0.73938 14.4665 0.73938H3.26653C3.01198 0.73938 2.84229 0.909077 2.84229 1.16362C2.84229 1.41817 3.01198 1.58786 3.26653 1.58786Z" fill="black"/>
<path d="M1.23039 7.01816H4.9213C5.17585 7.01816 5.34555 6.84847 5.34555 6.59392C5.34555 6.33937 5.17585 6.16968 4.9213 6.16968H1.23039C0.975849 6.16968 0.806152 6.33937 0.806152 6.59392C0.806152 6.84847 1.01827 7.01816 1.23039 7.01816Z" fill="black"/>
<path d="M4.53939 9.26665C4.53939 9.0121 4.3697 8.84241 4.11515 8.84241H0.424242C0.169697 8.84241 0 9.0121 0 9.26665C0 9.5212 0.169697 9.69089 0.424242 9.69089H4.11515C4.32727 9.69089 4.53939 9.5212 4.53939 9.26665Z" fill="black"/>
</svg>
