<svg width="24" height="24" viewBox="0 0 24 24" fill="none" xmlns="http://www.w3.org/2000/svg">
                <g clip-path="url(#clip0_832_1149)">
                    <path d="M23.2477 22.0836L21.4209 5.643C21.3988 5.44525 21.3247 5.25689 21.2061 5.09707C21.0875 4.93726 20.9288 4.8117 20.7459 4.73316L18.5227 3.78028C18.5195 3.77892 18.5161 3.77808 18.5129 3.77681C18.5107 3.77597 18.5088 3.7747 18.5067 3.77391L15.6617 2.70703L14.9732 0.985734C14.9454 0.916145 14.8973 0.856493 14.8352 0.814475C14.7732 0.772456 14.6999 0.749999 14.625 0.75H9.375C9.30005 0.749999 9.22682 0.772456 9.16476 0.814475C9.10269 0.856493 9.05465 0.916145 9.02681 0.985734L8.27681 2.86073C8.25821 2.90724 8.24911 2.95699 8.25005 3.00707C8.25099 3.05715 8.26196 3.10653 8.2823 3.1523L9.7823 6.5273C9.80558 6.57972 9.84058 6.62611 9.8846 6.66288C9.92862 6.69966 9.98049 6.72585 10.0362 6.73943C10.092 6.75301 10.1501 6.75363 10.2061 6.74123C10.2621 6.72884 10.3145 6.70376 10.3593 6.66792L11.6249 5.65542V22.5H6V22.2644L7.34297 21.3052C7.40823 21.2585 7.45684 21.1922 7.48164 21.116C7.50644 21.0397 7.50614 20.9575 7.48078 20.8814L6 16.4391V4.38487L7.63167 3.77297L7.36833 3.07078L5.49333 3.77391C5.48953 3.77531 5.48616 3.77742 5.48241 3.77902C5.47402 3.78244 5.46548 3.78548 5.45728 3.78961L3.43092 4.80277C3.21351 4.91204 3.03709 5.08846 2.92781 5.30587L0.789609 9.58228C0.763555 9.63435 0.749994 9.69178 0.75 9.75V16.125C0.749994 16.1832 0.763555 16.2406 0.789609 16.2927L4.16461 23.0427C4.18885 23.0912 4.2233 23.1338 4.2656 23.1677C4.30789 23.2016 4.35703 23.2259 4.40962 23.2389C4.46221 23.252 4.51701 23.2535 4.57024 23.2434C4.62347 23.2332 4.67387 23.2117 4.71797 23.1802L5.25 22.8V22.875C5.25 22.9745 5.28951 23.0698 5.35984 23.1402C5.43016 23.2105 5.52554 23.25 5.625 23.25H12C12.0995 23.25 12.1948 23.2105 12.2652 23.1402C12.3355 23.0698 12.375 22.9745 12.375 22.875V5.65528L13.6406 6.66778C13.6854 6.70362 13.7378 6.7287 13.7938 6.74109C13.8498 6.75349 13.908 6.75287 13.9637 6.73929C14.0194 6.72571 14.0713 6.69952 14.1153 6.66274C14.1593 6.62597 14.1943 6.57958 14.2176 6.52716L15.5741 3.47503L18 4.38487V22.5H13.125V23.25H18.375C18.4745 23.25 18.5698 23.2105 18.6402 23.1402C18.7105 23.0698 18.75 22.9745 18.75 22.875V18.4062L19.5051 22.9366C19.5136 22.9877 19.5326 23.0365 19.5608 23.0798C19.5891 23.1232 19.6261 23.1602 19.6694 23.1886C19.7126 23.217 19.7614 23.2361 19.8124 23.2447C19.8634 23.2534 19.9157 23.2514 19.9659 23.2388L22.9659 22.4888C23.054 22.4668 23.1311 22.4136 23.1829 22.3391C23.2347 22.2646 23.2577 22.1738 23.2477 22.0836ZM4.63917 22.3148L1.5 16.0365V9.83855L3.59864 5.64131C3.63506 5.56884 3.69388 5.51004 3.76636 5.47364L5.25 4.73175V14.0062L4.48341 11.5147L3.76659 11.7353L5.26659 16.6103H5.26716C5.268 16.6131 5.26828 16.616 5.26922 16.6188L6.09914 19.1085L4.29197 20.3131L4.70803 20.9371L6.34495 19.8458L6.68166 20.856L4.63917 22.3148ZM12 4.22109L11.4077 3.375H12.5923L12 4.22109ZM13.1173 2.625H10.8827L10.0952 1.5H13.9048L13.1173 2.625ZM10.2703 5.77852L9.03197 2.99231L9.46556 1.90828L11.4911 4.80188L10.2703 5.77852ZM13.7297 5.77852L12.5089 4.80188L14.5344 1.90828L14.968 2.99231L13.7297 5.77852ZM20.1781 22.4127L18.75 13.844V4.69369L20.4506 5.42255C20.5115 5.44871 20.5645 5.49055 20.604 5.54381C20.6435 5.59708 20.6682 5.65987 20.6756 5.72578L22.2995 20.3407L20.5634 20.6301L20.6867 21.3699L22.3824 21.0873L22.4661 21.8407L20.1781 22.4127Z" fill="black" />
                    <path d="M15.2073 13.0854C15.2594 13.1114 15.3168 13.125 15.375 13.125C15.4332 13.125 15.4906 13.1114 15.5427 13.0854L17.0427 12.3354C17.105 12.3042 17.1574 12.2564 17.194 12.1971C17.2306 12.1379 17.25 12.0696 17.25 12V9.375C17.25 9.27554 17.2105 9.18016 17.1402 9.10983C17.0698 9.03951 16.9745 9 16.875 9H13.875C13.7755 9 13.6802 9.03951 13.6098 9.10983C13.5395 9.18016 13.5 9.27554 13.5 9.375V12C13.5 12.0696 13.5194 12.1379 13.556 12.1971C13.5926 12.2564 13.645 12.3042 13.7073 12.3354L15.2073 13.0854ZM14.25 9.75H16.5V11.7682L15.375 12.3307L14.25 11.7682V9.75Z" fill="black" />
                    <path d="M10.125 7.5H10.875V8.25H10.125V7.5Z" fill="black" />
                    <path d="M10.125 11.25H10.875V12H10.125V11.25Z" fill="black" />
                    <path d="M10.125 15H10.875V15.75H10.125V15Z" fill="black" />
                    <path d="M10.125 18.75H10.875V19.5H10.125V18.75Z" fill="black" />
                </g>
                <defs>
                    <clipPath id="clip0_832_1149">
                        <rect width="24" height="24" fill="white" />
                    </clipPath>
                </defs>
            </svg>