<svg width="34" height="34" viewBox="0 0 34 34" fill="none" xmlns="http://www.w3.org/2000/svg">
<path d="M17.4319 19.2989C16.3404 19.206 15.249 19.0202 14.1807 18.8809C12.857 18.7416 10.6973 18.5326 9.58261 19.415C9.3968 19.5776 9.23431 19.7634 9.11816 19.9956C17.0835 21.4819 21.8441 25.1975 32.1085 20.4833C32.3408 18.8113 30.808 18.5094 29.4844 18.2075C25.583 17.3483 24.4451 17.9753 20.6365 15.6298C20.4507 16.071 20.3114 16.4891 20.1488 16.9303C19.6845 18.2074 18.9646 19.3917 17.4319 19.2989Z" fill="#141515"/>
<path d="M14.5753 10.9155C14.0876 10.5672 13.6 10.1956 13.1123 9.82404C12.3459 10.2653 12.4156 11.0781 12.8104 12.0302C13.5303 11.8444 14.1109 11.4728 14.5753 10.9155Z" fill="#141515"/>
<path d="M8.74671 19.9259C10.0239 17.3714 14.5988 18.7415 17.432 18.9273C19.3595 19.0666 19.731 16.8373 20.3116 15.4439C18.3609 14.2131 16.5959 12.7037 14.8543 11.1478C14.3898 11.7051 13.8093 12.0767 13.0893 12.2625C9.97749 13.888 6.58698 13.9809 2.84818 12.216C1.82639 14.3525 1.57092 16.489 1.80314 18.6487C4.40408 19.3453 6.19226 19.4614 8.74671 19.9259ZM18.895 15.2117C19.1969 15.2117 19.4291 15.4439 19.4291 15.7458C19.4291 16.0244 19.1969 16.2567 18.895 16.2567C18.6163 16.2567 18.3841 16.0245 18.3841 15.7458C18.3841 15.4439 18.6163 15.2117 18.895 15.2117ZM16.8515 13.7718C17.1533 13.7718 17.3856 14.004 17.3856 14.2827C17.3856 14.5846 17.1533 14.8169 16.8515 14.8169C16.5496 14.8169 16.3405 14.5847 16.3405 14.2827C16.3405 14.0041 16.5495 13.7718 16.8515 13.7718ZM14.9936 12.3321C15.2955 12.3321 15.5278 12.5643 15.5278 12.843C15.5278 13.1449 15.2956 13.3771 14.9936 13.3771C14.715 13.3771 14.4828 13.1449 14.4828 12.843C14.4828 12.5643 14.715 12.3321 14.9936 12.3321Z" fill="#141515"/>
<path d="M32.1088 20.8316C21.7051 25.6154 16.9212 21.7372 8.74684 20.2743C6.19233 19.833 4.40421 19.7169 1.80327 19.0203C1.64071 20.4368 1.66395 21.8999 1.91935 23.4326H8.74684C8.74684 22.7591 8.74684 22.1089 8.74684 21.4354C11.6032 21.9231 14.3435 22.9216 17.1302 23.6415C19.9633 24.2918 22.8661 24.3615 25.8386 23.7809C28.1144 23.2699 30.3438 22.7126 32.2945 21.598C32.3178 21.3425 32.2714 21.087 32.1088 20.8316Z" fill="#141515"/>
</svg>
