<svg width="24" height="24" viewBox="0 0 24 24" fill="none" xmlns="http://www.w3.org/2000/svg">
<path d="M6.89752 3.84375C6.7386 3.52318 6.6557 3.1703 6.65527 2.8125V1.125C6.65578 0.767211 6.73867 0.414344 6.89752 0.0937503H2.25015C2.11464 0.0936517 1.98044 0.12025 1.85522 0.172027C1.72999 0.223803 1.6162 0.299743 1.52033 0.395508C1.42446 0.491274 1.34839 0.604988 1.29648 0.730156C1.24457 0.855325 1.21782 0.989494 1.21777 1.125V2.8125C1.21777 2.94802 1.24448 3.08221 1.29638 3.2074C1.34828 3.33259 1.42434 3.44633 1.52022 3.5421C1.6161 3.63788 1.72991 3.71382 1.85516 3.76557C1.98041 3.81733 2.11463 3.8439 2.25015 3.84375H6.89752Z" fill="black"/>
<path d="M1.96777 5.13751V6.84376H7.40527V5.15626H2.25015C2.15573 5.15575 2.06143 5.14949 1.96777 5.13751Z" fill="black"/>
<path d="M8.71777 5.15626V6.84376H16.7803V5.13751C16.687 5.14933 16.5931 5.15547 16.499 5.15589L8.71777 5.15626Z" fill="black"/>
<path d="M16.499 0.09375H8.99902C8.42948 0.09375 7.96777 0.555456 7.96777 1.125V2.8125C7.96777 3.38204 8.42948 3.84375 8.99902 3.84375H16.499C17.0686 3.84375 17.5303 3.38204 17.5303 2.8125V1.125C17.5303 0.555456 17.0686 0.09375 16.499 0.09375Z" fill="black"/>
<path d="M2.625 13.6954C2.40365 13.6963 2.18326 13.7244 1.96875 13.779V14.8406C1.96876 15.4294 2.09772 16.011 2.34657 16.5445C2.59541 17.0781 2.95809 17.5507 3.40912 17.9291L4.22137 18.6105C4.68633 18.2737 5.03259 17.7982 5.21043 17.2523C5.38827 16.7065 5.38853 16.1183 5.21118 15.5722C5.03384 15.0262 4.688 14.5504 4.22335 14.2132C3.75869 13.876 3.19912 13.6947 2.625 13.6954Z" fill="black"/>
<path d="M7.40527 14.8406V8.15625H1.96777V12.4414C2.18493 12.4039 2.40479 12.3844 2.62515 12.3829C3.4486 12.3823 4.25245 12.6341 4.92838 13.1044C5.60432 13.5747 6.11985 14.2408 6.40553 15.0131C6.6912 15.7855 6.73328 16.6268 6.52609 17.4237C6.3189 18.2207 5.87241 18.935 5.24677 19.4704L9.40927 22.9628C10.0943 23.5366 10.9506 23.8664 11.8436 23.9004C12.7365 23.9343 13.6154 23.6704 14.342 23.1503L9.31702 18.933C8.7183 18.4323 8.23678 17.8063 7.90645 17.0992C7.57612 16.3921 7.40503 15.6211 7.40527 14.8406Z" fill="black"/>
<path d="M21.3403 16.7869L16.7803 12.9619V8.15625H8.71777V12.4414C9.58548 12.2965 10.4767 12.44 11.2552 12.8498C12.0336 13.2595 12.6564 13.9131 13.0282 14.7103C13.3999 15.5076 13.5003 16.4048 13.3138 17.2645C13.1273 18.1242 12.6643 18.8991 11.9956 19.4708L16.1581 22.9631C16.5636 23.3035 17.0322 23.5606 17.5371 23.7198C18.0419 23.879 18.5732 23.9372 19.1006 23.8911C19.6279 23.8449 20.141 23.6953 20.6106 23.4509C21.0801 23.2064 21.4969 22.8718 21.8371 22.4662C22.1775 22.0607 22.4346 21.5921 22.5938 21.0872C22.753 20.5824 22.8112 20.051 22.7651 19.5236C22.719 18.9962 22.5694 18.4831 22.3249 18.0135C22.0804 17.544 21.7459 17.1271 21.3403 16.7869Z" fill="black"/>
<path d="M10.1581 17.9291L10.9704 18.6105C11.4835 18.2416 11.8517 17.7051 12.0114 17.0937C12.1712 16.4823 12.1125 15.8344 11.8454 15.2616C11.5784 14.6889 11.1198 14.2274 10.5488 13.9567C9.97778 13.686 9.33018 13.6231 8.71777 13.779V14.8406C8.71779 15.4294 8.84675 16.011 9.09559 16.5445C9.34443 17.0781 9.70711 17.5507 10.1581 17.9291Z" fill="black"/>
</svg>
