<svg width="24" height="24" viewBox="0 0 24 24" fill="none" xmlns="http://www.w3.org/2000/svg">
<path d="M18.6979 0.600006L13.2949 4.14572L15.9013 6.46254C16.1101 6.64814 16.4402 6.56696 16.539 6.30567L18.6979 0.600006Z" fill="black"/>
<path d="M12.6756 7.69144L13.8575 6.28441L12.0003 4.65225L10.143 6.28441L11.3249 7.69144V8.14169L8.69168 20.43C8.64968 20.6259 8.71981 20.8291 8.87379 20.9574L11.6549 23.275C11.855 23.4417 12.1455 23.4417 12.3456 23.275L15.1267 20.9574C15.2807 20.8291 15.3508 20.6259 15.3088 20.43L12.6756 8.14169V7.69144Z" fill="black"/>
<path d="M5.30273 0.600006L7.46163 6.30567C7.5605 6.56696 7.89051 6.64814 8.09932 6.46254L10.7057 4.14572L5.30273 0.600006Z" fill="black"/>
</svg>
