<svg width="56" height="56" viewBox="0 0 56 56" fill="none" xmlns="http://www.w3.org/2000/svg">
<rect width="56" height="56" rx="2" fill="white"/>
<path opacity="0.2" d="M21.2377 25.925L17.3127 30.625C17.2138 30.7403 17.144 30.8777 17.1092 31.0256C17.0744 31.1735 17.0756 31.3276 17.1127 31.475L18.6502 38.4375C18.6873 38.603 18.7659 38.7563 18.8786 38.8831C18.9912 39.0099 19.1343 39.1059 19.2943 39.1621C19.4543 39.2184 19.626 39.233 19.7932 39.2047C19.9604 39.1763 20.1177 39.1059 20.2502 39L24.0002 36C21.8002 32.175 21.0877 28.8125 21.2377 25.925Z" fill="#2DA5F3"/>
<path opacity="0.2" d="M34.6873 25.8375L38.6123 30.55C38.7112 30.6654 38.781 30.8028 38.8158 30.9507C38.8506 31.0986 38.8494 31.2526 38.8123 31.4L37.2748 38.35C37.2394 38.5165 37.162 38.6713 37.05 38.7996C36.938 38.9278 36.7951 39.0254 36.6349 39.083C36.4747 39.1406 36.3024 39.1563 36.1343 39.1286C35.9663 39.101 35.8081 39.0309 35.6748 38.925L31.9248 35.925C34.1248 32.0875 34.8373 28.725 34.6873 25.8375Z" fill="#2DA5F3"/>
<path d="M30 40H26" stroke="#2DA5F3" stroke-width="2" stroke-linecap="round" stroke-linejoin="round"/>
<path d="M27.3749 14.475C24.9999 16.375 17.0624 23.975 23.9999 36H31.9999C38.7999 23.975 30.9749 16.3875 28.6249 14.475C28.4496 14.3285 28.2284 14.2483 27.9999 14.2483C27.7715 14.2483 27.5503 14.3285 27.3749 14.475Z" stroke="#2DA5F3" stroke-width="2" stroke-linecap="round" stroke-linejoin="round"/>
<path d="M21.2377 25.925L17.3127 30.625C17.2138 30.7403 17.144 30.8777 17.1092 31.0256C17.0744 31.1735 17.0756 31.3276 17.1127 31.475L18.6502 38.4375C18.6873 38.603 18.7659 38.7563 18.8786 38.8831C18.9912 39.0099 19.1343 39.1059 19.2943 39.1621C19.4543 39.2184 19.626 39.233 19.7932 39.2047C19.9604 39.1763 20.1177 39.1059 20.2502 39L24.0002 36" stroke="#2DA5F3" stroke-width="2" stroke-linecap="round" stroke-linejoin="round"/>
<path d="M34.6875 25.825L38.6875 30.625C38.7864 30.7404 38.8561 30.8778 38.8909 31.0257C38.9258 31.1736 38.9246 31.3277 38.8875 31.475L37.35 38.4375C37.3129 38.603 37.2343 38.7564 37.1216 38.8831C37.009 39.0099 36.8659 39.1059 36.7059 39.1622C36.5459 39.2184 36.3742 39.233 36.207 39.2047C36.0398 39.1763 35.8825 39.1059 35.75 39L32 36" stroke="#2DA5F3" stroke-width="2" stroke-linecap="round" stroke-linejoin="round"/>
<path d="M28 25.5C28.8284 25.5 29.5 24.8284 29.5 24C29.5 23.1716 28.8284 22.5 28 22.5C27.1716 22.5 26.5 23.1716 26.5 24C26.5 24.8284 27.1716 25.5 28 25.5Z" fill="#2DA5F3"/>
</svg>
