<svg width="30" height="30" viewBox="0 0 30 30" fill="none" xmlns="http://www.w3.org/2000/svg">
<path d="M16.9045 13.8698C16.8482 13.8698 16.8027 13.9158 16.8027 13.972C16.8027 14.0836 17.0066 14.0836 17.0066 13.972C17.0066 13.9158 16.9602 13.8698 16.9045 13.8698Z" fill="black"/>
<path d="M14.5313 24.5822V7.61063L8.7952 1.875H7.23848C7.28535 3.64922 7.28629 9.08016 5.61426 10.5816V16.6978H10.0725C10.3313 16.6978 10.5413 16.9073 10.5413 17.1666V18.8438C10.5413 19.103 10.3313 19.3125 10.0725 19.3125H5.61426V23.2589L11.7788 27.9469L14.5313 24.5822Z" fill="black"/>
<path d="M5.61426 17.6353H9.60379V18.375H5.61426V17.6353Z" fill="black"/>
<path d="M20.3965 17.6353H24.386V18.375H20.3965V17.6353Z" fill="black"/>
<path d="M16.9045 17.9972C16.8482 17.9972 16.8027 18.0431 16.8027 18.0994C16.8027 18.2109 17.0066 18.2109 17.0066 18.0994C17.0066 18.0431 16.9602 17.9972 16.9045 17.9972Z" fill="black"/>
<path d="M16.9045 22.1241C16.8482 22.1241 16.8027 22.17 16.8027 22.2258C16.8027 22.3383 17.0066 22.3383 17.0066 22.2258C17.0066 22.17 16.9602 22.1241 16.9045 22.1241Z" fill="black"/>
<path d="M24.3858 19.3125H19.9275C19.6688 19.3125 19.4588 19.103 19.4588 18.8438V17.1666C19.4588 16.9073 19.6688 16.6978 19.9275 16.6978H24.3858V10.5816C22.7137 9.08016 22.7147 3.64922 22.7616 1.875H21.2048L15.4688 7.61063V24.5822L18.2213 27.9469L24.3858 23.2589V19.3125ZM16.9045 23.0616C16.4437 23.0616 16.0687 22.6866 16.0687 22.2258C16.0687 21.765 16.4437 21.3905 16.9045 21.3905C17.3653 21.3905 17.7403 21.7655 17.7403 22.2258C17.7403 22.6861 17.3653 23.0616 16.9045 23.0616ZM16.9045 18.9342C16.4437 18.9342 16.0687 18.5592 16.0687 18.0989C16.0687 17.6386 16.4437 17.2631 16.9045 17.2631C17.3653 17.2631 17.7403 17.6381 17.7403 18.0989C17.7403 18.5597 17.3653 18.9342 16.9045 18.9342ZM16.9045 14.8069C16.4437 14.8069 16.0687 14.4319 16.0687 13.9716C16.0687 13.5112 16.4437 13.1358 16.9045 13.1358C17.3653 13.1358 17.7403 13.5108 17.7403 13.9716C17.7403 14.4323 17.3653 14.8069 16.9045 14.8069ZM16.9045 10.68C16.4437 10.68 16.0687 10.305 16.0687 9.84422C16.0687 9.38344 16.4437 9.00891 16.9045 9.00891C17.3653 9.00891 17.7403 9.38391 17.7403 9.84422C17.7403 10.3045 17.3653 10.68 16.9045 10.68Z" fill="black"/>
<path d="M16.9045 9.74298C16.8482 9.74298 16.8027 9.78892 16.8027 9.8447C16.8027 9.9572 17.0066 9.9572 17.0066 9.8447C17.0066 9.78892 16.9602 9.74298 16.9045 9.74298Z" fill="black"/>
</svg>
